<svg xmlns="http://www.w3.org/2000/svg" viewBox="0 0 4680 3120"><defs><style>.cls-1{fill:#fff;}.cls-2{fill:#f99b28;}.cls-3{fill:#fdc734;}.cls-4{fill:#f7af21;}.cls-5{fill:#fefefe;}.cls-6{fill:#d1d3d4;}.cls-7{fill:#f4a700;}.cls-8{fill:#f69026;}.cls-9{fill:#e8ebf0;}.cls-10{fill:#ccc;}.cls-11{fill:#ea6552;}.cls-12{opacity:0.5;}.cls-13{fill:#f4f4f4;}.cls-14{fill:#e5e5e5;}.cls-15{fill:#e2dbd1;}.cls-16{fill:#131416;}.cls-17{fill:#28292b;}.cls-18{fill:#40332c;}.cls-19{fill:#231b15;}.cls-20{fill:#5e5048;}.cls-21{fill:#352a24;}.cls-22{fill:none;stroke:#352a24;stroke-miterlimit:10;}.cls-23{fill:#faa184;}.cls-24{fill:#cbcfd2;}.cls-25{fill:#ef8d72;}.cls-26{fill:#ce5f28;}.cls-27{fill:#b8522a;}.cls-28{fill:#fba284;}.cls-29{fill:#513027;}.cls-30{fill:#a33a46;}.cls-31{fill:#ec4d52;}</style></defs><title>04</title><g id="_4" data-name="4"><rect class="cls-1" width="4680" height="3120"/><path class="cls-2" d="M2505.43,726.38,2579.81,679a11.33,11.33,0,0,1,14.35,1.8l60.35,64.33-11,87.47-149.07-18.72Z"/><polygon class="cls-3" points="2505.33 727.24 2494.56 812.99 2494.45 813.85 2561.75 777.88 2505.43 726.38 2505.33 727.24"/><polygon class="cls-3" points="2587.2 781.07 2643.52 832.57 2643.63 831.71 2654.4 745.96 2654.51 745.1 2587.2 781.07"/><polygon class="cls-4" points="2587.26 781.08 2561.75 777.88 2561.76 777.84 2494.45 813.85 2643.52 832.57 2587.26 781.08"/><path class="cls-2" d="M2284.45,559.75l73.88-118.15a17.92,17.92,0,0,1,21.71-7.19l129.78,50.76,43.76,132.24L2328.21,692Z"/><rect class="cls-5" x="2315.84" y="444.14" width="164.24" height="161.62" rx="2.17" transform="translate(-43.51 779.95) rotate(-18.31)"/><rect class="cls-6" x="2368.33" y="459.75" width="72.23" height="8.62" transform="translate(-24.05 778.91) rotate(-18.31)"/><rect class="cls-6" x="2373.67" y="475.9" width="72.23" height="8.62" transform="translate(-28.85 781.4) rotate(-18.31)"/><rect class="cls-7" x="2326.41" y="479.42" width="42.64" height="42.64" transform="translate(-38.44 762.95) rotate(-18.31)"/><rect class="cls-6" x="2379.02" y="492.05" width="72.23" height="8.62" transform="translate(-33.65 783.9) rotate(-18.31)"/><rect class="cls-6" x="2335.07" y="516.14" width="122.8" height="8.62" transform="translate(-42.17 779.26) rotate(-18.31)"/><rect class="cls-6" x="2345.76" y="548.45" width="122.8" height="8.62" transform="translate(-51.78 784.25) rotate(-18.31)"/><rect class="cls-6" x="2340.42" y="532.3" width="122.8" height="8.62" transform="translate(-46.97 781.76) rotate(-18.31)"/><rect class="cls-6" x="2351.11" y="564.6" width="122.8" height="8.62" transform="translate(-56.58 786.75) rotate(-18.31)"/><rect class="cls-6" x="2356.45" y="580.75" width="122.8" height="8.62" transform="translate(-61.38 789.25) rotate(-18.31)"/><polygon class="cls-3" points="2284.88 561.05 2327.78 690.7 2328.21 691.99 2399.78 594.95 2284.45 559.75 2284.88 561.05"/><polygon class="cls-3" points="2438.26 582.22 2553.58 617.41 2553.15 616.12 2510.25 486.47 2509.82 485.17 2438.26 582.22"/><polygon class="cls-4" points="2438.33 582.19 2399.78 594.95 2399.76 594.89 2328.21 691.99 2553.58 617.41 2438.33 582.19"/><path class="cls-3" d="M2785.25,727.46a5.51,5.51,0,0,1,2.3-2.6c.85-.66,1.88-.33,2.76.4q7.43,6.09,14.89,12.12c7.22,5.83,14.47,11.62,21.7,17.45,5.16,4.16,10.24,8.42,15.48,12.49,3.59,2.78,3.16,3.43.37,6.65-1.72.38-3.41-.17-5.06-.37-8.34-1-16.69-1.76-25-2.75-2.69-.32-5.41-.48-8.07-1.05a10.15,10.15,0,0,1-7.28-6.08c-2.27-4.89-3.33-10.2-5.25-15.19-1.52-4-2.47-8.09-4.11-12A65.72,65.72,0,0,1,2785.25,727.46Z"/><path class="cls-8" d="M2785.25,727.46c1.33,1.39,1.52,3.29,2.07,5,1.63,5,3.43,10,5,15,1.15,3.78,2.65,7.45,3.62,11.31,1.05,4.18,2.78,8.29,7.3,10.11,2.45,1,5.13,1,7.71,1.33,2.23.25,4.48.42,6.71.72,1.9.26,3.83.32,5.74.49a34.08,34.08,0,0,1,5.17.58c2,.5,4,.44,5.93.75,2.75.44,5.6.24,8.28,1.24a1.49,1.49,0,0,1-1,1,1.71,1.71,0,0,1-1.58.39c-6.83-.68-13.68-1.14-20.52-1.71-4.58-.38-9.18-.44-13.74-1-1.27-.16-1.25.22-1.06,1.32,1.6,9.74,5.21,19,6.69,28.77.14.87.5,1.69.72,2.55.17.67.59,1.47-.4,1.93l-1.34-.89c-1.8-1.91-4.06-3.25-6.08-4.9-7.82-6.4-15.71-12.74-23.58-19.09q-10.34-8.32-20.69-16.62a5.85,5.85,0,0,1-.74-.83c0-1.1.92-.8,1.52-.93,2.83-.61,5.68-.13,8.5,0,3,.17,5.93,0,8.89.23,4.59.4,9.2.15,13.79.59a5.87,5.87,0,0,0,1.51,0c.88-.14,1.15-.53.84-1.45-2.68-8-4.72-16.13-7.43-24.09-1-2.86-1.52-5.87-2.56-8.73a2.76,2.76,0,0,1-.17-1.68C2784.61,728.33,2784.52,727.62,2785.25,727.46Z"/><path class="cls-3" d="M2784.34,728.8a38.65,38.65,0,0,1,2.24,6c1.2,5.74,3.28,11.23,4.93,16.83,1,3.49,1.83,7,3,10.5a4.81,4.81,0,0,0,.2.53c.34.7,1.41,1.36.74,2.13a3.32,3.32,0,0,1-2.85.64,57.66,57.66,0,0,0-9.92-.37,23.39,23.39,0,0,1-5-.33c-2.83-.43-5.64,0-8.46-.27a34.92,34.92,0,0,0-9.36,0c-.14,0-.25.26-.38.39-2.2-1.5-2.37-2.63-.72-4.68l10.51-13q6.74-8.4,13.51-16.78C2783.2,729.78,2783.5,729,2784.34,728.8Z"/><path class="cls-3" d="M2811.88,807.15a1.25,1.25,0,0,0,0-1.44,24.11,24.11,0,0,1-1.51-6.24c-1.56-8.51-4.7-16.64-6-25.22-.36-2.4-.65-2.28,1.8-2.11,5,.35,9.94.53,14.91.89,3.6.26,7.17.86,10.77,1,2.19.09,4.34.74,6.56.36,1.13-.19,2.1.91,3.3.54-.36,1.72-1.89,2.61-2.88,3.85q-11.32,14.16-22.8,28.18C2814.63,808.76,2813.51,808.75,2811.88,807.15Z"/><path class="cls-9" d="M2663.82,625.88c-1.57-1.22-2-3.14-2.47-4.83s.58-2.91,2.14-3.79q13.07-7.32,26.07-14.75c12.56-7.19,25.09-14.43,37.65-21.62,9-5.14,18.06-10.11,26.94-15.42,6.08-3.63,6.78-2.63,9.87,3.25-.42,2.71-2.18,4.84-3.41,7.14-6.16,11.55-12,23.25-18.19,34.8-2,3.74-3.77,7.59-6.1,11.14-3.06,4.64-7.58,6.77-13,7.11-8.38.54-16.71-.93-25.05-1-6.61,0-13.15-1-19.78-.83C2673.64,627.22,2668.71,626.45,2663.82,625.88Z"/><path class="cls-10" d="M2663.82,625.88c2.77-1.16,5.64-.35,8.41-.19,8.21.48,16.44.67,24.61,1.3,6.15.46,12.33.37,18.49,1.15,6.67.84,13.62.65,18.83-4.87,2.83-3,4.42-6.86,6.31-10.45,1.64-3.1,3.15-6.27,4.86-9.34,1.45-2.61,2.62-5.38,4-8.06a52.15,52.15,0,0,1,3.78-7.18c1.84-2.57,2.88-5.51,4.45-8.2,2.2-3.75,3.53-8,6.5-11.32a2.27,2.27,0,0,1,.83,2,2.65,2.65,0,0,1-.31,2.52c-4.87,9.53-9.42,19.23-14.13,28.84-3.15,6.44-5.85,13.1-9.29,19.39-1,1.75-.4,1.93,1.31,2.29,15.06,3.19,30.57,3.2,45.59,6.59a40.45,40.45,0,0,0,4.12.4c1.07.14,2.46,0,2.58,1.68l-2.06,1.45c-3.8,1.53-7,4-10.56,6-13.75,7.74-27.43,15.59-41.12,23.43q-18,10.29-35.89,20.63a10.18,10.18,0,0,1-1.62.61c-1.59-.65-.65-1.8-.5-2.74.73-4.45,3-8.33,4.87-12.34,1.93-4.21,3.33-8.62,5.38-12.78,3.18-6.44,5.44-13.29,8.68-19.7a9.25,9.25,0,0,0,.87-2.2c.29-1.35-.11-2-1.63-2-13.09-.62-26.11-2.3-39.21-2.88-4.7-.21-9.4-1.13-14.14-1.23a4.16,4.16,0,0,1-2.53-.71C2664.72,627.3,2663.64,627,2663.82,625.88Z"/><path class="cls-9" d="M2665.26,628c3.32,0,6.71-.41,9.95.14,9,1.52,18.18,1.61,27.25,2.39,5.66.48,11.28,1.35,17,1.6a6.46,6.46,0,0,0,.88,0c1.21-.09,2.78-1.28,3.51.14s0,3.12-.68,4.51a88.56,88.56,0,0,0-6.16,14.2,36.48,36.48,0,0,1-3.34,7.12c-2.23,3.87-3.18,8.2-5.2,12.14a54.63,54.63,0,0,0-5.31,13.6c0,.22.23.51.35.77-3.43,2.34-5.17,2-7.21-1.62q-6.5-11.33-13-22.65c-5.58-9.71-11.18-19.4-16.7-29.14C2666,630.17,2665.05,629.28,2665.26,628Z"/><path class="cls-9" d="M2794.72,632.39a2,2,0,0,0-2.07-.87c-3.41.25-6.65-.71-9.93-1.35-13.25-2.56-26.84-2.61-40-5.62-3.69-.84-3.67-.34-2-3.81,3.32-7,6.42-14.15,9.76-21.16,2.42-5.08,5.31-9.94,7.56-15.08,1.36-3.13,3.54-5.88,4.24-9.32.36-1.76,2.52-2.55,2.65-4.5,2.31,1.5,2.73,4.23,4,6.38q14.14,24.47,28,49.11C2798.62,629.31,2798,630.93,2794.72,632.39Z"/><path class="cls-9" d="M2121.77,759.28c.14-3.25,2.32-5.61,4.1-7.88s4.44-2,7.09-.72q22.14,10.49,44.39,20.78c21.5,10,43,19.81,64.54,29.75,15.38,7.1,30.61,14.51,46.11,21.33,10.62,4.67,9.95,6.55,5,16.25-4,2-8.55,1.68-12.77,2.22-21.25,2.73-42.43,6-63.68,8.72-6.88.88-13.7,2.17-20.64,2.42-9.11.32-16.22-3.7-21.8-10.57-8.67-10.68-14.59-23.18-22.44-34.36-6.21-8.86-11.13-18.49-17.63-27.18C2129.29,773.65,2125.64,766.35,2121.77,759.28Z"/><path class="cls-10" d="M2121.77,759.28c4.17,2.6,5.81,7.2,8.22,11,7.15,11.4,14.69,22.58,21.61,34.07,5.2,8.64,11.18,16.8,16,25.77,5.2,9.7,12,18.79,24.35,20.5,6.69.93,13.34-.61,19.92-1.49,5.69-.75,11.35-1.73,17.07-2.37,4.87-.54,9.67-1.6,14.51-2.35,4.38-.69,8.78-1.78,13.16-1.77,5.17,0,10.09-1.37,15.16-1.82,7.09-.64,14-2.89,21.28-2.07a3.81,3.81,0,0,1-1.84,3c-.8,1.44-2.15,1.74-3.65,2-17.34,2.56-34.59,5.67-51.88,8.5-11.59,1.89-23,4.61-34.69,6-3.25.38-2.94,1.3-1.81,3.92,10,23.11,24.71,43.82,34.44,67.08a66.76,66.76,0,0,0,3.35,5.87c.84,1.56,2.37,3.28.21,5l-3.88-1.37c-5.64-3.61-12.07-5.53-18.08-8.36-23.36-11-46.81-21.82-70.25-32.65q-30.77-14.21-61.56-28.33a16.94,16.94,0,0,1-2.34-1.59c-.64-2.73,1.78-2.57,3.18-3.25,6.63-3.26,14-3.85,21.08-5.2,7.45-1.43,14.67-3.75,22.16-5,11.6-1.86,22.88-5.34,34.52-7.09a14.72,14.72,0,0,0,3.75-.93c2.07-.88,2.51-2,1.17-4.1-11.59-18-21.68-37-33.33-55-4.18-6.47-7.41-13.6-11.76-20a6.93,6.93,0,0,1-1.47-4.05C2120.73,761.83,2120.06,760.13,2121.77,759.28Z"/><path class="cls-9" d="M2120.36,763.16c3.13,4.45,6.92,8.58,9.26,13.41,6.52,13.49,15.08,25.78,22.65,38.63,4.72,8,8.89,16.33,13.93,24.14a11,11,0,0,0,.84,1.18c1.26,1.53,4.33,2.49,3.14,4.82s-4.13,3-6.66,3.36a145.44,145.44,0,0,0-24.79,5.25,60.15,60.15,0,0,1-12.67,2.29c-7.28.69-13.94,3.53-21.12,4.57-7.77,1.12-15.78,2.58-23.18,5.8-.34.15-.47.79-.7,1.2-6.37-2.36-7.51-5-4.68-11.15q9-19.39,17.94-38.77c7.66-16.65,15.28-33.32,23-49.92C2118.15,766.3,2118.4,764.15,2120.36,763.16Z"/><path class="cls-9" d="M2237.17,940.11c.73-1.41,0-2.66-.8-3.58-3.56-4.32-5.35-9.56-7.61-14.53-9.13-20.11-22-38.29-30.45-58.76-2.38-5.72-3-5.22,3.14-6.32,12.52-2.23,25-4.86,37.49-7,9.07-1.58,18.29-2.34,27.29-4.21,5.47-1.15,11.2-.86,16.46-3.17,2.68-1.19,5.78.94,8.51-.73.19,4.51-3,7.64-4.74,11.34q-19.26,42.07-39,83.94C2245,942.4,2242.2,943.05,2237.17,940.11Z"/><path class="cls-2" d="M1663.11,713.67l26.1-250.82a32.39,32.39,0,0,1,29.56-28.93l251.32-20.73,176.3,180.13-307,300.47Z"/><rect class="cls-5" x="1671.32" y="420.59" width="297.2" height="292.46" rx="3.92" transform="translate(122.85 1434.77) rotate(-44.39)"/><rect class="cls-6" x="1716.66" y="454.89" width="130.69" height="15.59" transform="translate(184.88 1378.54) rotate(-44.39)"/><rect class="cls-6" x="1738.2" y="476.89" width="130.69" height="15.59" transform="translate(175.63 1399.88) rotate(-44.39)"/><rect class="cls-11" x="1680.44" y="528.84" width="77.16" height="77.16" transform="translate(93.64 1364.36) rotate(-44.39)"/><rect class="cls-6" x="1759.73" y="498.89" width="130.69" height="15.59" transform="translate(166.39 1421.22) rotate(-44.39)"/><rect class="cls-6" x="1702.81" y="552.89" width="222.21" height="15.59" transform="translate(125.42 1428.82) rotate(-44.39)"/><rect class="cls-6" x="1745.88" y="596.9" width="222.21" height="15.59" transform="translate(106.94 1471.51) rotate(-44.39)"/><rect class="cls-6" x="1724.34" y="574.89" width="222.21" height="15.59" transform="translate(116.18 1450.16) rotate(-44.39)"/><rect class="cls-6" x="1767.41" y="618.9" width="222.21" height="15.59" transform="translate(97.69 1492.85) rotate(-44.39)"/><rect class="cls-6" x="1788.95" y="640.9" width="222.21" height="15.59" transform="translate(88.45 1514.19) rotate(-44.39)"/><polygon class="cls-3" points="1664.83 715.43 1837.69 892.03 1839.41 893.79 1878.54 679.14 1663.11 713.67 1664.83 715.43"/><polygon class="cls-3" points="1930.95 627.84 2146.39 593.32 2144.67 591.55 1971.81 414.96 1970.09 413.19 1930.95 627.84"/><polygon class="cls-4" points="1931.06 627.74 1878.54 679.14 1878.47 679.07 1839.41 893.79 2146.39 593.32 1931.06 627.74"/><g class="cls-12"><path class="cls-13" d="M1788.59,2041.65a869.77,869.77,0,0,0,18.34,103.52c47.64,198.19,161.4,359.42,306.4,452.1a568.63,568.63,0,0,0,88.81,46.47c127.45,52.76,264.9,37.12,391-12.66,105.67-41.71,215.82-98.51,300.75-191.28l59.33-76.22A697.21,697.21,0,0,0,3029.12,2212a668.4,668.4,0,0,0,25.61-91.93h0c20.3-100.48,16.76-206.85-21.69-307a321.93,321.93,0,0,0-24.55-50.55c-1.16-1.92-2.34-3.82-3.52-5.7l-.11-.17h0c-35-55.31-83.87-92.94-137.87-116.29-73.54-31.79-155.93-26.9-224.72-73.67-71.55-48.64-89.42-145.13-87.75-241.17,2.11-122.7-30.58-253.88-119.66-316.77-201.47-142.26-394,104.25-494.88,304.4q-25.74,51.08-48.42,105.07C1810.68,1611.41,1764,1829.06,1788.59,2041.65Z"/><path class="cls-14" d="M1788.59,2041.65a869.77,869.77,0,0,0,18.34,103.52c47.64,198.19,161.4,359.42,306.4,452.1a568.63,568.63,0,0,0,88.81,46.47c127.45,52.76,264.9,37.12,391-12.66,105.67-41.71,215.82-98.51,300.75-191.28l59.33-76.22A697.21,697.21,0,0,0,3029.12,2212a668.4,668.4,0,0,0,25.61-91.93h0c20.3-100.48,16.76-206.85-21.69-307a321.93,321.93,0,0,0-24.55-50.55l-3.63-5.87s-236.17,450-535.68,220.17-613.58,216.12-577.62-558.59C1810.68,1611.41,1764,1829.06,1788.59,2041.65Z"/><path class="cls-10" d="M3054.73,2120v0a670.17,670.17,0,0,1-25.6,91.93,698.21,698.21,0,0,1-75.94,151.64l-59.33,76.21a587.46,587.46,0,0,1-65.38,61.08,719.75,719.75,0,0,1-92.63,62.77c-46.68,26.81-95.17,48.65-142.75,67.43-126.06,49.77-263.52,65.42-391,12.65a568.92,568.92,0,0,1-88.81-46.45q-24.32-15.57-47.42-33.63l0,0q-19.49-15.26-38-32.21-16-14.64-31.21-30.53-11.49-12-22.51-24.66h0c-2.26-2.58-4.49-5.2-6.72-7.83a730.3,730.3,0,0,1-60.85-83.61q-5.82-9.3-11.39-18.82c-38.76-66.11-69-140.4-88.27-220.77,29.11,47.14,57.79,84.7,86,114.3.29.29.57.59.85.88,37,38.52,73.16,63.41,108.61,78.25a232.78,232.78,0,0,0,82.28,18.17q8,.3,16,.08c39.79-1,78.51-11.2,116.14-24.72q4.76-1.71,9.5-3.49l1.64-.62a0,0,0,0,0,0,0c15.9-6,31.61-12.51,47.11-19.08h0l11.84-5.05,13.08-5.58c20.46-8.71,40.56-17.1,60.28-24.1l3.13-1.11c30.08-10.47,59.29-17.59,87.63-17.57h.32c1,0,2,0,3.08,0A143.63,143.63,0,0,1,2501,2264a138,138,0,0,1,14.18,6.07,156.62,156.62,0,0,1,26.84,16.94c42,32.67,89.45,43.83,138,41.16C2859.41,2318.36,3054.73,2120,3054.73,2120Z"/></g><path class="cls-15" d="M2620.61,2732s-147.24-14.89-170,8.19,155.11,20.32,242.85,18.64C2698,2742.29,2620.61,2732,2620.61,2732Z"/><path class="cls-15" d="M2204,2731.78s-133.68-17.7-154.77,4.94S2190,2760,2269.82,2760C2274.2,2743.57,2204,2731.78,2204,2731.78Z"/><path class="cls-16" d="M2648.67,1823.18s-1.09,287.32,41.1,386.44c12.65,41.21-327.94,263.37-439.2,391.63L2204,2611.4l-5.65-10.54L2184.64,2587l20-36.57,277-323.55-8.87-491Z"/><path class="cls-17" d="M2284.75,1869l236.15,789.26,23.25,17.92,31.73-6.62,19.42-22.46s-67.55-337.67-63.17-849.3c-127.2-261.35-242-35-242-35Z"/><path class="cls-16" d="M2291.12,1890.32s121.65-24.83,161-69.12,75.93,51.54,164.51,34.56-72.5-117.33-72.5-117.33l-84.27-13.54-111.08,47.8-57.68,50.62-6.37,45.72Z"/><path class="cls-17" d="M2651,1442.65l20,378.58c-154,19-198.26-85.42-198.26-85.42-11.59,121.27-210.91,136-210.91,136l-24.13-158c28.45-.28,47-1.58,47-1.58,23.2-15.47,20.38-72.42,20.38-72.42l-83.19-29.63-45.66-173.91-59.8-229.52,131.71-51c20.51,26.69,40.46,58,59.34,91.26q3,5.37,6.07,10.84,2.22,4,4.43,8,6.9,12.71,13.59,25.64l3.29,6.36a.42.42,0,0,1,0,.06s0,0,0,0c66.27,129.47,113.62,267,114.65,270a.11.11,0,0,1,0,.05c0-65.25,13.64-142,30.89-212.8l1.71-7c.61-2.47,1.23-4.92,1.85-7.37.18-.76.38-1.53.58-2.32.46-1.83.93-3.65,1.4-5.48q4.23-16.43,8.61-32.19.72-2.62,1.45-5.23,3.64-13,7.29-25.42h0c23.93-81.44,46.81-140.91,46.81-140.91l124.93,23.43Z"/><path class="cls-18" d="M2766.31,2727.14a44.23,44.23,0,0,1-7.88,13.46s0,0,0,0c-9.41,11.1-25.35,19.35-48.26,19.35-69.92,0-114.86-13.64-114.86-13.64,0,14.88-27.86,13.64-27.86,13.64-51.43,0-62.66-3.72-60.18-12.4.18-.48.37-1,.57-1.61a158.66,158.66,0,0,0,4.12-18.82c3.18-18.45,6.15-43.32,7.73-57.55.77-6.9,1.22-11.3,1.22-11.3,38.44,11.16,74.4-11.16,74.4-11.16,21.63,37.67,49.14,44.34,77.47,43,22-1.08,44.53-7,65.14-7C2763.76,2683.09,2773.94,2706.24,2766.31,2727.14Z"/><path class="cls-18" d="M2358.45,2719.05a30,30,0,0,1-1.18,8.5c-2.17,7.46-7.23,13.22-13.81,17.64h0c-23.91,16.1-68,14.78-68,14.78-95.41,0-96.81-93-96.81-93a43.1,43.1,0,0,1-19.84,2.48c-11.16-1.24-68.2-74.4-45.88-78.12q3.85-.47,7.81-1.31c3.93-.79,7.93-1.83,11.92-3.05,23.23-7.1,46.56-20.33,60.13-28.78,7.4-4.6,11.9-7.79,11.9-7.79,6.2,38.45,45.89,50.85,45.89,50.85-28.23,25.2-8.93,63.5,19.25,75a43,43,0,0,0,20.43,3.16C2327.45,2675.65,2358.45,2675.65,2358.45,2719.05Z"/><path class="cls-19" d="M2758.42,2740.62c-9.41,11.1-25.35,19.35-48.26,19.35-69.92,0-114.86-13.64-114.86-13.64,0,14.88-27.86,13.64-27.86,13.64-51.43,0-62.66-3.72-60.18-12.4.18-.48.37-1,.57-1.61a104.89,104.89,0,0,0,2.57-10.51c.27-1.28.53-2.62.78-4,.1-.53.19-1.08.29-1.64.17-.86.31-1.76.48-2.66,0,0,51.73,19.81,82.73,2.45C2594.68,2729.59,2707.63,2772.68,2758.42,2740.62Z"/><path class="cls-19" d="M2343.45,2745.19c-23.91,16.1-68,14.78-68,14.78-95.41,0-96.81-93-96.81-93a43.1,43.1,0,0,1-19.84,2.48c-11.16-1.24-68.2-74.4-45.88-78.12q3.85-.47,7.81-1.31c1-.18,2-.4,3-.64s1.71-.4,2.56-.62c2.12-.53,4.26-1.14,6.39-1.79,0,0,21.81,64.5,55.29,67C2187.94,2654,2194.43,2793.73,2343.45,2745.19Z"/><path class="cls-20" d="M2766.31,2727.14c-54.07,5-93.54-37-93.54-37,22-1.08,44.53-7,65.14-7C2763.76,2683.09,2773.94,2706.24,2766.31,2727.14Z"/><path class="cls-20" d="M2358.45,2719.05a30,30,0,0,1-1.18,8.5c-86.12,15.31-87.45-51.34-87.45-51.34a43,43,0,0,0,20.43,3.16C2327.45,2675.65,2358.45,2675.65,2358.45,2719.05Z"/><path class="cls-21" d="M2187.94,2654c-33.48-2.48-55.29-67-55.29-67,23.23-7.1,46.56-20.33,60.13-28.78C2220.59,2602.21,2187.94,2654,2187.94,2654Z"/><path class="cls-21" d="M2594.68,2729.59c-31,17.36-82.73-2.45-82.73-2.45,3.18-18.45,6.15-43.32,7.73-57.55C2582,2676.31,2594.68,2729.59,2594.68,2729.59Z"/><path class="cls-16" d="M2449.59,1568.12c-40.48-84.76-120.2-159.56-161.11-194.37h0c-4.69-4-8.88-7.45-12.43-10.36a26.34,26.34,0,0,1-8.89-26.94l12.35-48.5a10.7,10.7,0,0,0-9.48-13.31l-34-2.79a11.48,11.48,0,0,1-10.28-13.91l22.48-102.12q1.8,2.34,3.58,4.73c.73,1,1.45,1.92,2.17,2.9.19.25.37.51.56.75.45.61.91,1.23,1.35,1.85.65.87,1.28,1.74,1.91,2.62l1.9,2.64c5.68,7.91,11.3,16.15,16.84,24.64,1.07,1.64,2.13,3.29,3.2,4.94.26.4.53.81.79,1.24.91,1.4,1.8,2.81,2.69,4.22.23.35.44.69.65,1q1.52,2.4,3,4.84c1.14,1.83,2.29,3.68,3.43,5.54s2.27,3.72,3.39,5.61q1.54,2.55,3.07,5.11l3.67,6.23c1.11,1.91,2.23,3.84,3.33,5.76,1.27,2.19,2.53,4.4,3.79,6.61,1.63,2.87,3.24,5.76,4.86,8.67,1.89,3.37,3.75,6.77,5.61,10.18q6.93,12.72,13.62,25.67c1.12,2.14,2.22,4.3,3.32,6.46,25.42,49.65,48,100.49,66.36,144.47a.19.19,0,0,0,0,.07l.08.21,0,.08C2430.92,1513.79,2449.14,1566.79,2449.59,1568.12Z"/><path class="cls-22" d="M2284.75,1712.26s-18.54,1.3-47,1.58l-15.82-103.63,83.19,29.63S2308,1696.79,2284.75,1712.26Z"/><path class="cls-16" d="M2602.81,1216.62l-37.75,29.89a10,10,0,0,0-1.84,13.73l18.74,25.44a24,24,0,0,1-2.55,31.38,458.6,458.6,0,0,0-73.3,94.34,442.18,442.18,0,0,0-56.51,156.74c0-38.74,4.81-81.52,12.32-124.71,5.15-29.55,11.55-59.31,18.57-88.09,7.24-29.79,15.13-58.53,22.89-85h0l1.7-5.77,1.66-5.54c.66-2.19,1.3-4.34,2-6.49.09-.28.17-.58.26-.87.4-1.31.81-2.63,1.2-3.93q.84-2.74,1.68-5.44c.85-2.78,1.71-5.52,2.55-8.22s1.59-5.08,2.38-7.56c.66-2,1.3-4.08,1.94-6.08q.73-2.31,1.47-4.58c3-9.23,5.84-17.88,8.53-25.89l.93-2.78c.36-1,.72-2.1,1.06-3.13l.77-2.25c.42-1.2.82-2.38,1.21-3.54.47-1.39.94-2.74,1.4-4.06,0,0,0,0,0,0,.45-1.32.9-2.61,1.34-3.87.69-2,1.36-3.93,2-5.79.37-1.09.74-2.15,1.11-3.19,3.12-8.82,5.72-16,7.68-21.32.15-.43.31-.85.46-1.25s.36-1,.52-1.43c.44-1.21.85-2.28,1.2-3.22.16-.42.31-.82.43-1.18.69-1.78,1.11-2.9,1.27-3.31l0-.15v0l54.06,77.39A7.2,7.2,0,0,1,2602.81,1216.62Z"/><path class="cls-16" d="M2383.43,1602.05c-1.93,17.73-.92,12.64-3.37,27.4a286.73,286.73,0,0,1-8.47,36.52c-10.2,33.54-24.66,57-37.06,72.46-13.59,16.9-24.74,24.17-25.17,24.44a203.57,203.57,0,0,0,40.95-23.07,142.58,142.58,0,0,0,14.65-12.36c15.95-15.36,25.3-31.92,30.32-48.18a112.06,112.06,0,0,0,4.82-27.75C2402,1612.42,2383.43,1602.05,2383.43,1602.05Z"/><path class="cls-16" d="M2515.52,1592.68c1.93,17.73.92,12.64,3.37,27.4a286.73,286.73,0,0,0,8.47,36.52c10.19,33.54,24.65,57,37,72.45,13.59,16.91,24.74,24.17,25.18,24.44a202.81,202.81,0,0,1-41-23.06,146.42,146.42,0,0,1-14.66-12.36c-15.95-15.37-25.3-31.92-30.32-48.18a112.5,112.5,0,0,1-4.81-27.75C2496.9,1603.05,2515.52,1592.68,2515.52,1592.68Z"/><path class="cls-17" d="M2284.75,1712.26s-8.79.62-23.55,1.1c-4.63.15-9.84.28-15.54.38h-.73c-2.31,0-4.7.06-7.17.09-3.94,0-8,.47-12.19,0-99.63-12.23-224.06-47.72-252.7-132.21v0a111.16,111.16,0,0,1-4.17-16.13c-.57-3.1-1.57-9.66-1.47-12.8,1.34-53.09,17.41-107.08,40.21-158.87,22.1-50.22,50.5-98.35,77.88-141.55q1.29-2,2.55-4c16.68-26.19,28.62-41.41,28.62-41.41l55.35,212.45L2108.08,1539a12.67,12.67,0,0,0,2.59,18.06h0a12.13,12.13,0,0,0,3.14,1.63l108.1,51.51,15.74,5.6,8,2.86,13.9,5,1.19.42,22.3,7.94,22,7.86S2308,1696.79,2284.75,1712.26Z"/><path class="cls-23" d="M2406.37,1665.15c-.2,5.78-5.66,10.93-11.09,14.11-4.47,2.62-8.93,3.91-10.35,3.12-3.16-1.75-13.35-16.41-13.35-16.41a226.88,226.88,0,0,1-24.52,54.77,181.08,181.08,0,0,1-12.53,17.69c-13.7-2.63-31.11-9.64-49.79-26.17,23.2-15.47,20.39-72.42,20.39-72.42a83.9,83.9,0,0,0,12.25-1.68c9.49-2,22.71-6.19,33.1-15.18,7.79-6.74,19.13-2,29.57,6.47a107,107,0,0,1,20,22.06C2404.05,1657.35,2406.45,1662.46,2406.37,1665.15Z"/><path class="cls-9" d="M2503.38,1270.36h0q-3.65,12.39-7.29,25.42-.74,2.61-1.45,5.23-4.35,15.74-8.61,32.19c-.47,1.83-.94,3.65-1.4,5.48-.2.79-.4,1.56-.58,2.32-.64,2.45-1.24,4.9-1.85,7.37l-1.71,7c-17.25,70.85-30.89,147.55-30.89,212.8a.11.11,0,0,0,0-.05c-1-3-48.38-140.57-114.65-270,0,0,0,0,0,0a.42.42,0,0,0,0-.06c-.33-.83-.64-1.65-.91-2.48s-.52-1.62-.74-2.42c-.15-.52-.29-1-.43-1.56-.17-.72-.34-1.45-.48-2.19-3.59-17.48,1.89-35.33,9.09-49.74a147,147,0,0,1,20.64-30.66s7,3.51,19.5,5.79l39.13,165.2v.06l15.88,67-4.91-156.09h0l-2.12-67.47s5.52,1.15,9.14.24a100.49,100.49,0,0,1,35.47,10.56C2487,1241.05,2499.35,1252.21,2503.38,1270.36Z"/><path class="cls-24" d="M2510.66,1147.79a103.52,103.52,0,0,1-13.6,14.71l-15.22,1-71,4.43L2314,1155.81l-1.68-.57h0l-18.47-6.33-3.7-15.79,0,0c.9-.49,17.25-9.55,35-17.46,15.36-6.83,31.75-12.82,40.13-11.72,18.37,2.42,59.29-5.14,59.29-5.14a253.8,253.8,0,0,1,34.71.74h0c15,1.34,32.42,4.31,47,10.62l.66.27.85.39C2526.56,1119.59,2519.6,1135.85,2510.66,1147.79Z"/><path class="cls-23" d="M2488.58,1121.28c-2.84,32-13.1,95.07-49.87,102.38-3.62.91-9.14-.24-9.14-.24l7,223.57L2419,1372.77v0l-37.44-158.06c-12.48-2.28-19.51-5.79-19.51-5.79-34.72-18-50-51.15-56-69.47,0,0,9.29-2.93,20.15-12.24a87.15,87.15,0,0,0,20.48-26,109,109,0,0,0,9.49-25.93,152.59,152.59,0,0,0,3.79-35h74.17a102.15,102.15,0,0,0,3.72,32.28,89,89,0,0,0,3.14,9.08c4.77,11.69,12.79,23.43,26.13,31.46A69,69,0,0,0,2488.58,1121.28Z"/><path class="cls-25" d="M2381.58,1214.69c-12.48-2.28-19.51-5.79-19.51-5.79-34.72-18-50-51.15-56-69.47,0,0,9.29-2.93,20.15-12.24C2316.89,1169.7,2381.58,1214.69,2381.58,1214.69Z"/><path class="cls-25" d="M2488.58,1121.28c-2.84,32-13.1,95.07-49.87,102.38-3.62.91-9.14-.24-9.14-.24l7,223.57L2419,1372.77v0l2.46-155.82c58.35-3.86,45.64-104,45.64-104A69,69,0,0,0,2488.58,1121.28Z"/><path class="cls-9" d="M2363,1208.9v0l-.05,0a147.93,147.93,0,0,0-20.57,30.59c-7.21,14.41-12.69,32.26-9.09,49.74.13.74.31,1.47.48,2.19.14.52.27,1,.42,1.56.23.8.47,1.61.75,2.42s.58,1.65.9,2.48c-1.09-2.12-2.18-4.24-3.29-6.36q-6.68-12.93-13.61-25.67c-1.86-3.41-3.72-6.81-5.62-10.18-1.61-2.91-3.22-5.8-4.86-8.67-1.25-2.21-2.52-4.42-3.78-6.61-1.11-1.92-2.22-3.85-3.34-5.76q-1.82-3.12-3.68-6.22c-1-1.71-2-3.42-3-5.12-1.13-1.89-2.27-3.75-3.4-5.61s-2.28-3.71-3.42-5.54c-1-1.63-2-3.24-3-4.84l-.64-1q-1.33-2.11-2.69-4.22c-.26-.43-.54-.84-.8-1.24q-1.59-2.48-3.2-4.94c-5.54-8.49-11.16-16.73-16.84-24.64q-.93-1.32-1.89-2.64l-1.91-2.62c-.44-.62-.9-1.24-1.35-1.85-.19-.24-.38-.5-.56-.75-.72-1-1.44-2-2.17-2.9-1.19-1.59-2.38-3.17-3.59-4.73l17.15-9.27,24.84-13.43s0,0,0,0c.89-.49,17.25-9.55,35-17.46-20.18,14.39-15.94,32.13-12.89,39.61h0c0,.09.07.16.1.24.52,1.09,1.06,2.19,1.63,3.32l0,0a119.82,119.82,0,0,0,26.95,35.59c.59.53,1.18,1,1.79,1.55A103,103,0,0,0,2363,1208.9Z"/><path class="cls-9" d="M2550.19,1129.45v0l0,.15c-.16.41-.58,1.53-1.27,3.31-.12.36-.27.76-.43,1.18-.35.94-.76,2-1.2,3.22-.16.46-.35.93-.52,1.43s-.31.82-.46,1.25c-2,5.31-4.56,12.5-7.68,21.32-.37,1-.74,2.1-1.11,3.19-.66,1.86-1.33,3.78-2,5.79-.45,1.26-.9,2.55-1.34,3.87,0,0,0,0,0,0-.46,1.32-.93,2.67-1.4,4.06-.39,1.16-.79,2.34-1.21,3.54l-.77,2.25c-.34,1-.7,2.08-1.06,3.13s-.62,1.84-.93,2.78c-2.69,8-5.55,16.66-8.53,25.89q-.73,2.26-1.47,4.58c-.64,2-1.28,4-1.94,6.08q-1.18,3.72-2.38,7.56c-.84,2.7-1.7,5.44-2.55,8.22q-.84,2.7-1.68,5.44c-.39,1.3-.8,2.62-1.2,3.93-.09.29-.17.59-.26.87-.66,2.15-1.3,4.3-2,6.49l-1.66,5.54-1.7,5.77c-4-18.15-16.37-29.31-29.2-36.14a100.66,100.66,0,0,0-35.33-10.55h-.14c8.09-1.62,14.89-5.92,20.62-12,11-11.69,18.05-30,22.51-48.21,1.15-4.67,2.13-9.35,3-13.91a.75.75,0,0,0,0-.16c.48-2.72.93-5.4,1.34-8,1.24-12.63-.24-36.07-26.8-41.85,15,1.34,32.42,4.31,47,10.62l.66.27.85.39,33.14,14.62Z"/><path class="cls-24" d="M2503.38,1270.36h0c-7.76,26.44-15.65,55.18-22.89,85-7,28.78-13.42,58.54-18.57,88.09,6.12-69.64,28.81-168.45,28.81-168.45-4.43-44.62-49.09-51-51.88-51.31a100.66,100.66,0,0,1,35.33,10.55C2487,1241.05,2499.35,1252.21,2503.38,1270.36Z"/><path class="cls-24" d="M2401.3,1442.52c-18.32-44-40.94-94.82-66.36-144.47-1.1-2.16-2.2-4.32-3.32-6.46l3.29,6.36c-.33-.83-.64-1.65-.91-2.48s-.52-1.62-.74-2.42c-.15-.52-.29-1-.43-1.56-.17-.72-.34-1.45-.48-2.19-3.59-17.48,1.89-35.33,9.09-49.74A148.37,148.37,0,0,1,2362,1209c-1.66,2.09-35.08,44.67-16.58,90.38C2363.68,1344.39,2398.6,1435.48,2401.3,1442.52Z"/><path class="cls-25" d="M2441,1081.52s-24.28,29-94.31,19.62a109,109,0,0,0,9.49-25.93c3.57-.86,5.9-1.34,5.9-1.34l75.78-1.43A89,89,0,0,0,2441,1081.52Z"/><path class="cls-26" d="M2483.62,854.81c2.6,34.37-2.65,59.43-2.65,59.43l0,0-26.43-46.13c-2.5.73-5,1.37-7.37,1.93-.47.11-.93.23-1.39.32a158.39,158.39,0,0,1-16.14,2.75c-.62.07-1.24.13-1.84.21-1.19.12-2.33.23-3.41.32l-1.55.12-.3,0-1.75.12c-.14,0-.29,0-.43,0l-1,.05c-1,.06-1.82.08-2.56.11l-.6,0h-.41l-.84,0h-1.32c-29-79.2-74.08-35.16-75.06-34.18v0c-7.46-3.44-13.79-4.82-19.13-4.58-.36,0-.72,0-1.07.07s-.72.07-1.08.12a16.09,16.09,0,0,0-1.62.27l-.62.13c-.25,0-.5.12-.73.19l-.44.12a13.88,13.88,0,0,0-1.54.51c-.27.1-.54.21-.81.34a20.61,20.61,0,0,0-5,3c-.24.18-.47.38-.7.59a23.45,23.45,0,0,0-2.12,2.11c-.16.19-.33.36-.47.55a5.74,5.74,0,0,0-.38.44c-.15.18-.28.36-.42.54s-.42.54-.61.82-.39.54-.58.83c0,0,0,0,0,0-.38.56-.76,1.15-1.1,1.75-.18.28-.35.58-.51.88-.37.68-.75,1.39-1.09,2.12-.24.48-.46,1-.67,1.47-.11.25-.23.51-.32.76-.38.89-.72,1.81-1.06,2.74-.15.42-.3.87-.44,1.3s-.33,1-.49,1.55c-.58,1.94-1.09,4-1.52,6-.08.3-.14.6-.19.9s-.07.37-.11.56c-.08.36-.15.72-.21,1.07s-.16.91-.24,1.36-.11.63-.16,1-.06.37-.09.56l-.27,1.83c0,.3-.09.61-.12.92-.11.86-.21,1.73-.31,2.58s-.19,1.74-.26,2.61c-.06.58-.11,1.17-.15,1.76,0,.28-.05.55-.06.84-.07.79-.12,1.59-.16,2.38a230.83,230.83,0,0,0,1.84,41.73c-9.31-1.9-16.11,8.28-16.11,8.28s-17.6-14-33-10.9h0c-12.86-20.57-21-46.08-23.4-67.48-1.16-10.41-1-19.83.71-27.25a32.34,32.34,0,0,1,3.19-8.74c10.67-19,34.45-32.27,34.45-32.27,6.41-18.44,19.59-25.83,34.2-28.93l.06,0c20.44-4.34,43.62-.36,54.88-6.59,95.1-52.54,141.74-12.39,156.78,39.54a87.55,87.55,0,0,1,2.94,14.34c.16,1.47.29,2.91.34,4.29C2509.66,831.48,2498.28,845.25,2483.62,854.81Z"/><path class="cls-27" d="M2508.59,809c1.08,22.53-10.31,36.3-25,45.86,2.6,34.37-2.65,59.43-2.65,59.43l-26.46-46.18a156.17,156.17,0,0,1-40.88,6.05C2384.31,794,2338.56,840,2338.56,840s23.55-37.09,62.48-12.28S2492.91,867.53,2508.59,809Z"/><path class="cls-28" d="M2389.83,1091.88c-3.78.42-7.44.67-11,.78h-.25l-1.23,0h-.06c-.44,0-.87,0-1.31,0-.93,0-1.87,0-2.8,0-87.23-1.63-100-100.39-100-100.39-16.87,15.37-32.79,8.34-41.77-6.68-7.8-13-10.39-32-3.92-47.63,4.18-10.11,10.37-14.61,17-15.93,15.35-3.11,32.95,10.91,32.95,10.91s6.8-10.19,16.11-8.29c0,0-17-113.25,45-84.73,0,0,45.75-45.92,75.07,34.16,0,0,31.53.36,58.25-12.71a9.7,9.7,0,0,1,.89,2C2495.14,988.8,2501.09,1079.42,2389.83,1091.88Z"/><path class="cls-27" d="M2408.39,902.08c.16,2.47,1.05,7,4.88,12.55a2.56,2.56,0,0,0,2.63,1.06c5.65-1.16,25.3-4.5,44.19.66a2.93,2.93,0,0,0,3.44-1.48c.86-1.73,1.65-4.23.55-6.38-1.83-3.59-36.45-13.63-53.83-9A2.52,2.52,0,0,0,2408.39,902.08Z"/><path class="cls-27" d="M2362.2,910.74a22.38,22.38,0,0,1-3,10.94,3,3,0,0,1-2.87,1.58c-5.81-.37-24-.87-40.55,5.9a2.33,2.33,0,0,1-2.8-.8c-1-1.43-2.2-3.69-1.37-5.85,1.29-3.37,31.75-16.19,48.29-14.27A2.58,2.58,0,0,1,2362.2,910.74Z"/><ellipse class="cls-29" cx="2352.83" cy="955.76" rx="10.28" ry="14.03" transform="translate(-130.72 425.43) rotate(-10.05)"/><ellipse class="cls-29" cx="2433.88" cy="946.11" rx="9.85" ry="13.45" transform="matrix(0.98, -0.17, 0.17, 0.98, -127.79, 439.44)"/><path class="cls-25" d="M2386.41,958.15s15.68,24,26.87,27.37,9,25.73-16.29,26.42c0,0,23-7.56,14.17-19.36S2398,981,2386.41,958.15Z"/><path class="cls-25" d="M2443,1016.22s3.15,39.65-34.84,43.92-47.09-30.86-47.09-30.86S2415.24,1032,2443,1016.22Z"/><path class="cls-1" d="M2443,1016.22c-10,20.65-16.46,24.51-36.77,26.79-33.47,3.37-45.16-13.73-45.16-13.73S2415.24,1032,2443,1016.22Z"/><path class="cls-27" d="M2338.56,840c-31.51-14.48-42.64,7.6-45.95,32.84-3.21,24.46.91,51.89.91,51.89-9.31-1.9-16.11,8.29-16.11,8.29s-17.6-14-32.95-10.91h0c-12.86-20.58-21-46.08-23.41-67.49,0,0,30.28,23.29,55.77,8.21S2290.59,810.45,2338.56,840Z"/><path class="cls-25" d="M2373.21,1092.69c-87.23-1.63-100-100.39-100-100.39-16.87,15.37-32.79,8.34-41.77-6.68,0,0,22.38,23.35,47.47-6.39C2278.89,979.23,2299.69,1090.62,2373.21,1092.69Z"/><circle class="cls-16" cx="2453.8" cy="1614.14" r="9.08"/><circle class="cls-16" cx="2458.27" cy="1668.95" r="9.08"/><path class="cls-25" d="M2347.06,1720.74a181.08,181.08,0,0,1-12.53,17.69c-13.7-2.63-31.11-9.64-49.79-26.17,23.2-15.47,20.39-72.42,20.39-72.42a83.9,83.9,0,0,0,12.25-1.68c.22.91,11.84,49.66-5.22,71.94C2304.1,1720.62,2323.81,1722.12,2347.06,1720.74Z"/><path class="cls-27" d="M2296.46,800.51a50.93,50.93,0,0,0-37.06-14.2c6.41-18.44,19.59-25.83,34.2-28.93-18.93,6-33.58,20.17-19.87,24.62S2296.46,800.51,2296.46,800.51Z"/><path class="cls-16" d="M2284.75,1636.68l-21.17,74.83-2.38,1.85c-4.63.15-9.84.28-15.54.38h-.73c-2.31,0-4.7.06-7.17.09-3.94,0-8,.47-12.19,0-99.63-12.23-224.06-47.72-252.7-132.21,1.75,3.36,66.33,124.86,232.46,91.5,38.38-9.85,40.39-46.46,40.37-54.42l13.9,5,1.19.42,22.3,7.94Z"/><polygon class="cls-30" points="2959.26 799.08 2966.08 811.02 2950.1 884.28 2945.26 892.52 2941.44 876.25 2959.26 799.08"/><path class="cls-31" d="M2959.26,799.08s-8.5,35.5-16.88,77.1q-.89,4.32-1.74,8.7c-7.76,39.39-14.91,82.32-14.51,105v0c0,1.23.06,2.39.13,3.48,0,0-65.56,11.56-84.3.71,0,0-2-14.29-3.26-36.49-.44-8-.8-17-.91-26.77-.44-33.7,1.84-76.11,12.15-114.88C2849.94,816,2926.85,788.93,2959.26,799.08Z"/><path class="cls-30" d="M2940.64,884.88c-7.76,39.39-14.91,82.32-14.51,105v0c0,1.23.06,2.39.13,3.48,0,0-65.56,11.56-84.3.71,0,0-2-14.29-3.26-36.49l21.3-18.48s11.86,7.73,4.51,29.15,34.41,13.17,34.74-5.38,1.4-70.5,28.73-80.58C2933.67,880.26,2937.75,881.54,2940.64,884.88Z"/><path class="cls-22" d="M2893.7,1065.05h0Z"/><path class="cls-17" d="M2927,1073.22s2.11,16.8,4.83,43.69c.83,8.12,1.7,17.17,2.6,27,9,98.6,19.45,271.85-11.19,329a48.14,48.14,0,0,1-8,11.26c-56.32,56.74-173.19,73.87-262-68.08l21.89-263.17,42.24,66.38L2814,1366l29-243.53,6.13-51.45s22.36-6.08,44.56-6h0C2906.18,1065.08,2918.61,1067.09,2927,1073.22Z"/><path class="cls-23" d="M2966.24,998.15c-15.59,8.83-25.26,27.14-31,43.2a164,164,0,0,0-7.6,29.65l-.61,2.22c-8.38-6.13-20.81-8.13-33.29-8.17h0c-22.19-.09-44.55,6-44.55,6a181.32,181.32,0,0,0,1.44-21c0-8.07-.7-16.57-3.3-21.62-6.1-11.87-31.93-37.75-29.76-45.2s17.06-51.24,20.27-52.34h0c3.25-1.09,17-.84,22.21,8.29s-18.59,48.42-18,55c18.74,10.85,84.3-.71,84.3-.71s.36-.9-.13-3.48v0c-.85-4.42-4.16-13.83-16.05-32.16h0c-12.23-57.51,18.5-81.11,32.31-81.57S2984,988.64,2966.24,998.15Z"/><path class="cls-16" d="M2927,1073.22s3.58,28.51,7.43,70.65c-72.27-10.66-92.13,66.93-99,157.63S2814,1366,2814,1366l35.12-295s22.36-6.08,44.56-6h0C2906.18,1065.08,2918.61,1067.09,2927,1073.22Z"/><path class="cls-1" d="M2927,1073.22s2.11,16.8,4.83,43.69c-36.14-6.67-68.85-.35-88.83,5.58l6.13-51.45s22.36-6.08,44.56-6h0C2906.18,1065.08,2918.61,1067.09,2927,1073.22Z"/><path class="cls-25" d="M2918.4,1011.55c-45.33,22.66-76.44-17.41-76.44-17.41,18.74,10.85,84.3-.71,84.3-.71s.36-.9-.13-3.48v0c-.85-4.42-4.16-13.83-16.05-32.16C2911.17,958.4,2963.26,989.12,2918.4,1011.55Z"/><path class="cls-25" d="M2935.2,1041.35a164,164,0,0,0-7.6,29.65l-.61,2.22c-8.38-6.13-20.81-8.13-33.29-8.17h0c-22.19-.09-44.55,6-44.55,6a181.32,181.32,0,0,0,1.44-21C2868,1043.91,2905.34,1033.19,2935.2,1041.35Z"/><path class="cls-1" d="M2860,828.52s53.41-18,81.17-16.36l-12.34,58.11s-63.89.88-73.7,9.51C2855.08,879.78,2853.61,846.26,2860,828.52Z"/><path class="cls-1" d="M2284.75,1712.26s-15.16,1.07-39.09,1.48c16.14-33.57,15.1-74.35,13.94-90.11l1.19.42,44.34,15.8S2308,1696.79,2284.75,1712.26Z"/><path class="cls-16" d="M2110.67,1557.06c-41.88-20.09-2.65-96,15.59-130.85s-41-174-41-174q1.29-2,2.55-4c16.68-26.19,28.62-41.41,28.62-41.41l55.35,212.45L2108.08,1539A12.67,12.67,0,0,0,2110.67,1557.06Z"/></g></svg>