<?xml version="1.0" encoding="iso-8859-1"?>
<!-- Generator: Adobe Illustrator 19.0.1, SVG Export Plug-In . SVG Version: 6.00 Build 0)  -->
<svg version="1.1" id="jewel" xmlns="http://www.w3.org/2000/svg" xmlns:xlink="http://www.w3.org/1999/xlink" x="0px" y="0px"
	 viewBox="0 0 128 128" style="enable-background:new 0 0 128 128;" xml:space="preserve">
<g id="row3" style="display:none;">
	<g id="Jewelry:4_2_" style="display:inline;">
		<path id="Shape_35_" style="fill:#7087A2;" d="M85.695,59.454h7.258c2.5,0,4.546,2.046,4.546,4.546v0
			c0,2.5-2.046,4.546-4.546,4.546h-7.258V59.454z M42.305,59.454h-7.259c-2.5,0-4.546,2.046-4.546,4.546v0
			c0,2.5,2.046,4.546,4.546,4.546h7.259V59.454z"/>
		<path id="Shape_33_" style="fill:#FEAE00;" d="M63.615,90.575l-22.823-13.62l0.385-26.576l23.208-12.954l22.823,13.62
			l-0.385,26.576L63.615,90.575z M43.817,75.267l19.849,11.846l20.183-11.267l0.334-23.112L64.334,40.888L44.151,52.154
			L43.817,75.267z M63.707,84.245L46.32,73.869l0.293-20.245l17.68-9.869L81.68,54.131l-0.293,20.245L63.707,84.245z M47.328,73.307
			l16.396,9.784l16.67-9.307l0.277-19.091l-16.396-9.784l-16.67,9.307L47.328,73.307z M62.163,78.056l-7.846-3.813l-4.146-7.722
			l1.134-8.686l5.982-6.333l8.549-1.558l7.846,3.813l4.146,7.722l-1.134,8.686l-5.982,6.333L62.163,78.056z M64.295,65.606
			L62.818,76.92l6.877-1.254L64.295,65.606z M55.513,73.711l6.315,3.07l1.477-11.317L55.513,73.711z M65.172,65.125l5.401,10.062
			l4.815-5.096L65.172,65.125z M51.454,66.795l3.34,6.221l7.795-8.25L51.454,66.795z M65.593,64.218l10.221,4.969l0.913-6.998
			L65.593,64.218z M52.187,58.813l-0.913,6.998l11.134-2.029L52.187,58.813z M73.206,54.984l-7.795,8.25l11.135-2.029L73.206,54.984
			z M52.611,57.908l10.217,4.967l-5.401-10.062L52.611,57.908z M66.172,51.219l-1.477,11.317l7.792-8.247L66.172,51.219z
			 M58.305,52.334l5.4,10.06l1.477-11.313L58.305,52.334z"/>
	</g>
	<g id="Jewelry:3_2_" style="display:inline;">
		<path id="Shape_32_" style="fill:#B2B2B2;" d="M73.51,41.958c-0.066,0-0.134-0.013-0.198-0.041
			c-1.034-0.447-2.115-0.823-3.213-1.117C68.119,40.269,66.067,40,64,40c-0.276,0-0.5-0.224-0.5-0.5S63.724,39,64,39
			c2.155,0,4.294,0.28,6.358,0.833c1.144,0.308,2.271,0.699,3.35,1.166c0.254,0.109,0.37,0.404,0.261,0.657
			C73.887,41.846,73.703,41.958,73.51,41.958z"/>
		<path id="Shape_31_" style="fill:#308445;" d="M66.188,88.908C51.146,90.169,38.5,78.283,38.5,63.5
			c0-5.673,1.884-11.157,5.336-15.612c0.535-0.691,1.54-0.799,2.195-0.22l0,0c0.587,0.518,0.684,1.405,0.203,2.023
			C43.172,53.627,41.5,58.48,41.5,63.5c0,13.396,11.768,24.096,25.509,22.303c9.294-1.212,16.984-8.253,18.965-17.415
			c2.341-10.828-3.329-21.35-13.059-25.554l1.189-2.754c10.677,4.612,17.04,15.939,15.024,27.794
			C87.201,79.21,77.646,87.947,66.188,88.908z"/>
	</g>
	<g id="Jewelry:2_2_" style="display:inline;">
		<path id="Shape_29_" style="fill:#FD8B7C;" d="M73.735,46.973L46.968,73.74l-6.095-6.095l0.265-7.685l18.816-18.816l7.685-0.265
			L73.735,46.973z M61.666,59.042l-4.296,4.296l21.334,21.334L83,80.376L61.666,59.042z"/>
		
			<rect id="Shape_30_" x="38.487" y="53.108" transform="matrix(0.7071 -0.7071 0.7071 0.7071 -23.7848 57.4149)" style="fill:#B5554E;" width="37.854" height="8.62"/>
		<path id="Shape_28_" style="fill:#715A51;" d="M88.14,63.85c0-0.57-0.22-1.15-0.66-1.59c-0.88-0.87-2.3-0.87-3.18,0l-7.33,7.34
			L64.75,57.38l10.4-10.41l-7.11-7.11l-8.51,0.3L40.15,59.53l-0.29,8.51l7.11,7.11l10.4-10.4l12.22,12.22l-7.33,7.33
			c-0.88,0.88-0.88,2.31,0,3.18c0.44,0.44,1.02,0.66,1.59,0.66s1.15-0.22,1.59-0.66l7.33-7.33l5.93,5.94l7.38-7.38l-5.93-5.93
			l7.33-7.34C87.92,65.01,88.14,64.43,88.14,63.85z M55.96,63.34l-8.99,8.99l-5.08-5.08l0.23-6.86l18.26-18.26l6.86-0.24l5.08,5.08
			l-8.99,8.99L55.96,63.34z M83.25,78.71l-4.55,4.55L58.78,63.34l4.55-4.55L83.25,78.71z"/>
	</g>
	<g id="Jewelry:1_2_" style="display:inline;">
		<path id="Shape_27_" style="fill:#7087A2;" d="M64,86c-12.507,0-22.683-11.215-22.683-25S51.492,36,64,36
			c12.508,0,22.684,11.215,22.684,25S76.508,86,64,86z M64,38c-11.405,0-20.683,10.317-20.683,23S52.595,84,64,84
			s20.684-10.317,20.684-23S75.405,38,64,38z"/>
		<path id="Shape_26_" style="fill:#BE475E;" d="M86.603,74.75c0,2.76-2.24,5-5,5c-0.99,0-1.92-0.29-2.69-0.8
			c0.38,0.71,0.6,1.52,0.6,2.38c0,2.76-2.24,5-5,5c-1.37,0-2.61-0.55-3.52-1.45c0.01,0.04,0.01,0.08,0.01,0.12c0,3.87-3.14,7-7,7
			c-3.85,0-6.97-3.1-7-6.94c-0.91,1.18-2.34,1.94-3.95,1.94c-2.76,0-5-2.24-5-5c0-0.77,0.18-1.51,0.49-2.16
			c-0.61,0.26-1.28,0.41-1.99,0.41c-2.76,0-5-2.24-5-5s2.24-5,5-5c2.77,0,5,2.24,5,5c0,0.77-0.18,1.51-0.49,2.16
			c0.61-0.26,1.28-0.41,1.99-0.41c2.56,0,4.66,1.92,4.96,4.39c1.22-2.04,3.44-3.39,5.99-3.39c2.26,0,4.28,1.08,5.55,2.75
			c0.28-2.49,2.4-4.42,4.96-4.42c0.99,0,1.91,0.29,2.68,0.79c-0.37-0.7-0.59-1.51-0.59-2.37c0-2.76,2.24-5,5-5
			S86.603,71.99,86.603,74.75z"/>
	</g>
</g>
<g id="row2" style="display:none;">
	<g id="Jewelry:4_1_" style="display:inline;">
		<path id="Shape_23_" style="fill:#BFBFBF;" d="M52.027,75.318c5.303,5.303,9.251,5.009,9.251,5.009L51.27,90.161L37.835,76.726
			l10.008-9.834C47.843,66.892,46.723,70.015,52.027,75.318z M79.554,61.876l11.314-11.314L77.433,37.128L66.119,48.441
			c0,0,3.948-0.295,9.251,5.009C80.674,58.753,79.554,61.876,79.554,61.876z"/>
		<path id="Shape_25_" style="fill:#3EBBA7;" d="M72.125,55.865c-4.68-4.69-12.28-4.69-16.97,0c-4.68,4.69-4.68,12.29,0,16.97
			c4.69,4.69,12.29,4.69,16.97,0C76.815,68.155,76.815,60.555,72.125,55.865z M69.865,70.795l-0.01,0.01
			c-0.43,0.43-1.13,0.43-1.57,0l-4.46-4.47c-0.57,0.06-1.16-0.14-1.6-0.57c-0.77-0.78-0.77-2.05,0-2.83
			c0.49-0.49,1.18-0.66,1.82-0.55l3.54-3.54c0.43-0.43,1.13-0.44,1.57,0s0.43,1.14,0,1.57l-3.55,3.54c0.06,0.33,0.05,0.65-0.04,0.97
			l4.3,4.31C70.295,69.665,70.295,70.365,69.865,70.795z"/>
		<path id="Shape_24_" style="fill:#715A51;" d="M63.644,76.845c-3.201,0-6.402-1.219-8.839-3.655
			c-4.874-4.874-4.874-12.804,0-17.678c4.873-4.873,12.805-4.873,17.678,0c4.874,4.874,4.874,12.804,0,17.678
			C70.047,75.627,66.845,76.845,63.644,76.845z M63.644,52.856c-2.945,0-5.89,1.121-8.132,3.363c-4.483,4.484-4.483,11.779,0,16.264
			c4.484,4.484,11.779,4.484,16.264,0c4.483-4.484,4.483-11.779,0-16.264C69.534,53.977,66.59,52.856,63.644,52.856z M80.505,62.345
			l11.78-11.78l-14.85-14.85l-11.76,11.76c-0.67-0.08-1.35-0.12-2.03-0.12c-2.27,0-4.47,0.44-6.51,1.28
			c-2.04,0.84-3.9,2.09-5.51,3.7c-3.21,3.21-4.98,7.48-4.98,12.02c0,0.68,0.04,1.36,0.12,2.03l-11.05,11.05l14.85,14.85l11.06-11.06
			c0.67,0.08,1.35,0.12,2.02,0.12c3.18,0,6.37-0.89,9.15-2.66c0.04,0.13,0.12,0.24,0.22,0.34l1.06,1.06c0.39,0.39,1.02,0.39,1.41,0
			l3.89-3.89c0.39-0.39,0.39-1.03,0-1.41l-1.06-1.06c-0.11-0.1-0.23-0.18-0.35-0.23C80.125,70.135,80.975,66.175,80.505,62.345z
			 M50.565,89.455l-12.02-12.02l8.68-8.69c0.75,2.86,2.25,5.48,4.4,7.63c2.18,2.18,4.83,3.65,7.62,4.39L50.565,89.455z
			 M74.255,74.955c-3.47,3.47-8.23,4.88-12.74,4.24c-0.2-0.03-0.4-0.06-0.6-0.1c-2.89-0.53-5.65-1.91-7.88-4.14
			c-2.18-2.18-3.6-4.91-4.14-7.88c-0.04-0.2-0.07-0.4-0.1-0.6c-0.1-0.7-0.15-1.4-0.15-2.12c0-2,0.39-3.95,1.13-5.75
			c0.75-1.79,1.84-3.45,3.26-4.86c2.84-2.83,6.6-4.39,10.61-4.39c4.01,0,7.77,1.56,10.61,4.39
			C80.095,59.595,80.095,69.105,74.255,74.955z M75.665,52.335c-2.15-2.15-4.77-3.65-7.63-4.4l9.4-9.39l12.02,12.02l-9.4,9.39
			C79.315,57.155,77.855,54.525,75.665,52.335z"/>
	</g>
	<g id="Jewelry:3_1_" style="display:inline;">
		<path id="Shape_22_" style="fill:#53BBE9;" d="M86.799,77.056c-1.66,5.91-12.06,11.16-22.75,11.16
			c-12.21,0-21.58-7.33-23.25-12.16c-1.66-4.84,0-20.59,0-20.59s0.01,0.02,0.02,0.05c0.38-7.54,8.9-14.06,19.25-15.58v16.85
			c-6.43,0.58-12.855,3.48-15.725,6.6c3.72,4.48,10.885,8.75,20.045,8.75c9.13,0,16.357-3.084,19.807-7.474
			c-2.81-3.28-10.767-7.276-17.397-7.876v-16.85c5.31,0.78,11.12,2.87,14.61,5.73c3.33,2.72,5.44,6.14,5.64,9.81
			c0.01-0.01,0.01-0.01,0.01-0.01S88.469,71.136,86.799,77.056z"/>
		<path id="Shape_21_" style="fill:#715A51;" d="M64.052,89.219c-12.728,0-22.386-7.592-24.195-12.84
			c-1.686-4.891-0.18-19.227-0.055-20.382c0.04-8.039,8.678-15.362,20.124-17.048l1.146-0.169v18.915l-0.909,0.083
			C53.5,58.384,47.887,60.856,45.4,64.258c4.14,4.31,11.294,6.961,18.901,6.961c7.168,0,13.564-2.271,17.688-5.802
			c-1.93-3.96-8.3-7.073-15.859-7.672l-0.921-0.073v-18.79l1.056,0.059c12.848,0.71,22.537,8.066,22.537,17.112
			c0,0.319-0.013,0.637-0.037,0.951l0.036-0.002c0.027,0.541,0.655,13.316-1.036,19.322C85.864,83.073,74.561,89.219,64.052,89.219z
			 M41.304,62.001c-0.307,4.727-0.488,11.024,0.442,13.726c1.423,4.125,10.093,11.492,22.305,11.492
			c10.456,0,20.298-6.148,21.787-11.438c0.923-3.274,1.105-8.92,1.093-13.149c-3.691,6.21-12.445,10.587-22.63,10.587
			c-8.62,0-16.44-3.067-20.92-8.204C42.548,64.058,41.853,63.048,41.304,62.001z M67.209,55.836
			c7.603,0.801,13.84,3.949,16.274,8.137c2.104-2.307,3.318-5.02,3.318-7.92c0-7.597-8.523-14.068-19.593-15.04V55.836z
			 M59.071,41.12c-9.772,1.825-17.27,8.232-17.27,14.934c0,2.304,0.785,4.576,2.282,6.638c2.816-3.493,8.408-6.039,14.987-6.81
			V41.12z"/>
	</g>
	<g id="Jewelry:2_1_" style="display:inline;">
		<polygon id="Shape_18_" style="fill:#C0EBFF;" points="60.833,51.583 52.667,42.25 58,35.75 70.333,35.75 75.667,41.583 
			67,51.583 		"/>
		<path id="Shape_17_" style="fill:#715A51;" d="M67.14,51.99l9.03-10.42l-5.78-6.32H57.6l-5.76,7.01l8.59,9.81
			c-9.61,1.69-16.93,10.1-16.93,20.18c0,11.3,9.2,20.5,20.5,20.5s20.5-9.2,20.5-20.5C84.5,62.02,76.95,53.51,67.14,51.99z
			 M66.6,51.08h-0.11l2.31-8.45h5.14L66.6,51.08z M65.45,51.08h-3.39l-2.05-8.45h7.76L65.45,51.08z M70.41,36.76l4.42,4.83
			l-5.75,0.04L70.41,36.76z M69.51,36.25l-1.28,4.7l-2.92-4.7H69.51z M64.13,36.25l3.34,5.38h-7.06l3.28-5.38H64.13z M62.52,36.25
			L59.62,41l-1.15-4.75H62.52z M57.58,36.84l1.16,4.79h-5.08L57.58,36.84z M53.49,42.63h5.49l2.05,8.45h-0.14L53.49,42.63z
			 M64,89.75c-9.65,0-17.5-7.85-17.5-17.5c0-9.65,7.85-17.5,17.5-17.5s17.5,7.85,17.5,17.5C81.5,81.9,73.65,89.75,64,89.75z"/>
	</g>
	<g id="Jewelry:1_1_" style="display:inline;">
		<g id="Shape_13_">
			<circle id="Shape_20_" style="fill:#B74F65;" cx="63.663" cy="48.037" r="6.351"/>
			<ellipse id="Shape_19_" style="fill:#F7E300;" cx="64.118" cy="100.684" rx="11.613" ry="14.029"/>
			<path id="Shape_16_" style="fill:#959593;" d="M67.305,86.133c0.12-0.29,0.18-0.61,0.18-0.94c0-1.56-1.334-2.261-3.044-2.261
				c-1.71,0-3.146,0.701-3.146,2.261c0,0.28,0.05,0.55,0.13,0.81c-5.66,1.47-9.92,7.49-9.92,14.68c0,8.29,5.66,15.03,12.61,15.03
				c6.96,0,12.62-6.74,12.62-15.03C76.735,93.703,72.725,87.823,67.305,86.133z M64.115,113.713c-5.85,0-10.61-5.84-10.61-13.03
				c0-6.72,4.17-12.28,9.51-12.96c0.36-0.05,0.73-0.07,1.1-0.07c0.52,0,1.02,0.05,1.52,0.14c5.14,0.9,9.1,6.34,9.1,12.89
				C74.735,107.873,69.975,113.713,64.115,113.713z M65.025,40.813v-3c0.9-0.48,1.51-1.43,1.51-2.53c0-1.23-0.78-2.28-1.87-2.67
				l0.01-6.41c1.16-1.2,5.14-5.65,4.6-9.44c-0.23-1.61-1.19-2.88-2.85-3.77c-1.96-1.04-4.04-0.93-5.86,0.32
				c-2.23,1.53-3.61,4.59-3.27,7.27c0.36,2.94-2.92,3.58-3.3,3.64l0.33,1.98c1.92-0.32,5.44-1.94,4.95-5.86
				c-0.24-1.95,0.8-4.27,2.42-5.38c0.83-0.57,2.16-1.07,3.79-0.2c1.08,0.58,1.67,1.33,1.81,2.28c0.39,2.76-2.98,6.74-4.32,8.04
				l-0.3,0.29l-0.01,7.24c-1.1,0.39-1.87,1.44-1.87,2.67c0,1.33,0.89,2.44,2.12,2.77v2.67c-3.71,0.38-6.6,3.51-6.6,7.31
				c0,3.35,2.24,6.17,5.3,7.06v1.23h4.78v-1.47c2.7-1.08,4.62-3.73,4.62-6.82C71.015,44.443,68.425,41.453,65.025,40.813z
				 M63.665,53.383c-2.95,0-5.35-2.4-5.35-5.35c0-2.95,2.4-5.35,5.35-5.35s5.35,2.4,5.35,5.35
				C69.015,50.983,66.615,53.383,63.665,53.383z"/>
		</g>
		<g id="Shape_12_">
			<rect id="Shape_15_" x="57.693" y="61.209" style="fill:#6EB077;" width="12.623" height="17.005"/>
			<path id="Shape_14_" style="fill:#686868;" d="M76.865,75.733c-0.01-0.12-0.02-0.23-0.03-0.32c-0.01-0.09-0.02-0.17-0.02-0.23
				l-0.04-0.3c-0.02-0.1-0.03-0.2-0.05-0.29c-0.02-0.09-0.03-0.18-0.05-0.27c-0.03-0.09-0.05-0.18-0.07-0.26h0.01
				c-0.15-0.4-0.34-0.73-0.5-0.97c0.37-0.45,0.77-1.15,0.75-2.07c0-0.49-0.11-0.93-0.25-1.31c-0.15-0.4-0.34-0.73-0.5-0.97
				c0.37-0.45,0.77-1.15,0.75-2.07c0-0.49-0.11-0.92-0.25-1.3v-0.01c-0.04-0.13-0.08-0.24-0.12-0.36c-0.05-0.11-0.09-0.22-0.13-0.33
				c-0.04-0.1-0.09-0.19-0.13-0.29c-0.04-0.08-0.08-0.17-0.12-0.24c0.04-0.08,0.09-0.15,0.14-0.23c0.04-0.09,0.09-0.17,0.14-0.27
				c0.04-0.09,0.08-0.18,0.13-0.28l0.06-0.16l0.05-0.16l0.06-0.17l0.04-0.18l0.04-0.18l0.04-0.19l0.02-0.2l0.02-0.2l0.01-0.21v-0.45
				l-0.02-0.22l-0.02-0.22l-0.03-0.21l-0.04-0.21l-0.04-0.2c-0.04-0.13-0.07-0.25-0.1-0.37c-0.04-0.13-0.08-0.25-0.12-0.37
				c-0.05-0.11-0.09-0.22-0.13-0.33c-0.04-0.1-0.09-0.2-0.13-0.29c-0.04-0.09-0.08-0.17-0.12-0.25l-0.1-0.18l-0.11-0.18l-0.12-0.19
				l-0.13-0.17l-0.14-0.18l-0.15-0.17l-0.16-0.17l-0.17-0.17l-0.18-0.16l-0.19-0.16l-0.2-0.16l-0.21-0.15l-0.22-0.14l-0.23-0.14
				l-0.24-0.13l-0.24-0.13l-0.26-0.12l-0.26-0.12l-0.27-0.1l-0.28-0.1l-0.29-0.09l-0.3-0.09l-0.62-0.14l-0.33-0.06l-0.33-0.04
				l-0.34-0.04l-0.34-0.03l-0.36-0.02l-0.36-0.01l-0.74,0.02c-0.12,0.01-0.23,0.02-0.32,0.02c-0.09,0.01-0.17,0.02-0.23,0.03
				l-0.3,0.04c-0.1,0.01-0.2,0.03-0.29,0.04c-0.09,0.02-0.18,0.04-0.27,0.06c-0.09,0.02-0.18,0.05-0.26,0.07v-0.01
				c-0.47,0.15-0.86,0.34-1.14,0.5c-0.54-0.38-1.37-0.78-2.45-0.76c-0.58,0.01-1.09,0.12-1.54,0.26h-0.01
				c-0.13,0.04-0.24,0.08-0.36,0.12c-0.11,0.04-0.22,0.09-0.32,0.13c-0.11,0.04-0.2,0.08-0.29,0.12c-0.09,0.05-0.18,0.09-0.25,0.13
				c-0.08-0.04-0.15-0.09-0.23-0.14c-0.09-0.05-0.17-0.09-0.26-0.14c-0.1-0.04-0.19-0.08-0.29-0.13l-0.16-0.06l-0.16-0.06
				l-0.17-0.05l-0.17-0.05l-0.19-0.04l-0.19-0.03l-0.19-0.03l-0.21-0.02l-0.21-0.01h-0.21l-0.23,0.01l-0.23,0.02l-0.22,0.02
				l-0.21,0.03l-0.21,0.04l-0.2,0.04c-0.12,0.03-0.25,0.07-0.37,0.1c-0.13,0.04-0.25,0.08-0.37,0.12c-0.11,0.04-0.22,0.09-0.32,0.13
				c-0.11,0.04-0.2,0.08-0.29,0.12c-0.09,0.05-0.18,0.09-0.25,0.13l-0.19,0.1l-0.18,0.11l-0.18,0.12l-0.18,0.13l-0.18,0.14
				l-0.17,0.15l-0.17,0.16l-0.17,0.17l-0.16,0.18l-0.16,0.19l-0.16,0.2l-0.15,0.21l-0.14,0.22l-0.14,0.23l-0.13,0.23l-0.13,0.25
				l-0.12,0.25l-0.22,0.54l-0.1,0.28l-0.09,0.29l-0.08,0.3l-0.08,0.31l-0.07,0.31l-0.05,0.32l-0.05,0.33l-0.04,0.34l-0.03,0.35
				l-0.02,0.35l-0.01,0.36l0.01,0.37l0.01,0.38c0.01,0.12,0.02,0.22,0.02,0.32c0.02,0.09,0.02,0.16,0.03,0.23l0.04,0.3
				c0.01,0.1,0.03,0.19,0.05,0.29c0.02,0.09,0.03,0.18,0.05,0.27c0.03,0.09,0.05,0.18,0.07,0.26h-0.01c0.15,0.4,0.34,0.73,0.5,0.97
				c-0.37,0.45-0.78,1.15-0.76,2.07c0.01,0.49,0.12,0.93,0.26,1.31c0.15,0.4,0.34,0.73,0.5,0.97c-0.37,0.45-0.78,1.15-0.76,2.07
				c0.01,0.49,0.12,0.92,0.26,1.3v0.01c0.04,0.13,0.08,0.24,0.12,0.35c0.04,0.12,0.09,0.23,0.13,0.33c0.04,0.1,0.09,0.2,0.13,0.29
				c0.04,0.09,0.08,0.17,0.12,0.25c-0.04,0.07-0.09,0.15-0.14,0.23c-0.04,0.08-0.09,0.17-0.14,0.26c-0.04,0.09-0.08,0.19-0.13,0.29
				l-0.06,0.16l-0.05,0.16l-0.06,0.17l-0.04,0.17l-0.04,0.19l-0.04,0.19l-0.03,0.19l-0.02,0.42l-0.01,0.21l0.01,0.23l0.02,0.23
				l0.02,0.22l0.03,0.21l0.04,0.21l0.04,0.19c0.04,0.13,0.07,0.26,0.1,0.38c0.04,0.13,0.08,0.25,0.12,0.37
				c0.04,0.11,0.09,0.22,0.13,0.32c0.04,0.11,0.09,0.2,0.13,0.29c0.04,0.09,0.08,0.18,0.12,0.25l0.1,0.19l0.11,0.18l0.12,0.18
				l0.13,0.18l0.14,0.18l0.15,0.17l0.16,0.17l0.17,0.17l0.18,0.16l0.19,0.16l0.2,0.15l0.21,0.15l0.22,0.15l0.23,0.14l0.23,0.13
				l0.25,0.13l0.26,0.12l0.26,0.11l0.27,0.11l0.28,0.1l0.29,0.09l0.3,0.08l0.31,0.08l0.31,0.07l0.33,0.05l0.33,0.05l0.34,0.04
				l0.34,0.03l0.36,0.02h0.73l0.37-0.01c0.12-0.01,0.23-0.02,0.32-0.03c0.09-0.01,0.17-0.02,0.23-0.02l0.3-0.04
				c0.1-0.02,0.19-0.03,0.29-0.05c0.09-0.02,0.18-0.04,0.27-0.05c0.09-0.03,0.18-0.05,0.26-0.07v0.01c0.47-0.15,0.86-0.34,1.14-0.5
				c0.54,0.37,1.37,0.77,2.45,0.75c0.58,0,1.09-0.11,1.54-0.25h0.01c0.13-0.04,0.24-0.08,0.35-0.12c0.12-0.05,0.23-0.09,0.33-0.13
				c0.1-0.04,0.2-0.09,0.29-0.13c0.09-0.04,0.17-0.08,0.25-0.12c0.07,0.04,0.15,0.09,0.23,0.14c0.09,0.04,0.17,0.09,0.26,0.14
				c0.1,0.04,0.19,0.08,0.29,0.13l0.16,0.06l0.16,0.05l0.17,0.06l0.17,0.04l0.38,0.08l0.19,0.02l0.21,0.02l0.21,0.01h0.44l0.23-0.02
				l0.22-0.02l0.21-0.03l0.21-0.04l0.19-0.04c0.13-0.04,0.26-0.07,0.38-0.1c0.13-0.04,0.25-0.08,0.37-0.12
				c0.11-0.05,0.22-0.09,0.32-0.13c0.11-0.04,0.2-0.09,0.29-0.13c0.09-0.04,0.18-0.08,0.25-0.12l0.19-0.1l0.18-0.11l0.18-0.12
				l0.18-0.13l0.18-0.14l0.17-0.15l0.17-0.16l0.17-0.17l0.16-0.18l0.16-0.19l0.16-0.2l0.14-0.21l0.15-0.22l0.14-0.23l0.26-0.48
				l0.12-0.26l0.11-0.26l0.11-0.27l0.1-0.28l0.09-0.29l0.08-0.3l0.08-0.31l0.07-0.31l0.1-0.66l0.04-0.34l0.03-0.34l0.02-0.36v-0.73
				L76.865,75.733z M74.905,59.963l0.06,0.16l0.05,0.17l0.05,0.18l0.05,0.2l0.03,0.2l0.03,0.21l0.02,0.22l0.01,0.22v0.24
				c-0.01,0.07-0.02,0.15-0.02,0.22c-0.01,0.07-0.03,0.14-0.04,0.21c-0.01,0.06-0.03,0.13-0.04,0.19c-0.02,0.07-0.04,0.13-0.06,0.18
				l-0.06,0.17c-0.03,0.06-0.05,0.11-0.07,0.16c-0.03,0.05-0.05,0.09-0.08,0.14c-0.02,0.04-0.05,0.08-0.07,0.12
				c-0.02,0.04-0.05,0.08-0.07,0.11c-0.05,0.07-0.1,0.13-0.13,0.18c-0.05,0.05-0.08,0.09-0.11,0.12c-0.02,0.03-0.04,0.05-0.05,0.06
				l-0.02,0.01l-1.69,1.73h-0.01v0.01h-0.01l-1.36,1.09v-2.84l0.8-0.82L74.905,59.963z M74.405,68.333l-0.02,0.01l-1.7,1.37
				l-1.37,1.1v-2.47l3.59-2.88c0.16,0.33,0.29,0.75,0.3,1.23C75.225,67.703,74.475,68.283,74.405,68.333z M75.205,71.043
				c0.02,1.01-0.73,1.59-0.8,1.64l-0.02,0.01l-1.7,1.37h-0.01l-0.76,0.77l-0.6,0.61v-2.75l3.59-2.88
				C75.065,70.143,75.195,70.563,75.205,71.043z M66.865,56.983l0.17-0.05l0.19-0.05l0.19-0.04c0.13-0.02,0.27-0.04,0.41-0.06
				c0.15-0.02,0.29-0.03,0.45-0.05c0.12,0,0.24-0.01,0.36-0.02c0.12,0,0.24,0,0.36-0.01c0.11,0,0.23,0.01,0.34,0.01
				s0.21,0.01,0.32,0.01c0.11,0.01,0.21,0.02,0.31,0.03c0.1,0.02,0.2,0.03,0.3,0.04c0.09,0.02,0.19,0.03,0.28,0.05
				c0.09,0.02,0.18,0.03,0.27,0.05c0.09,0.02,0.17,0.05,0.26,0.07c0.08,0.02,0.16,0.04,0.24,0.07l0.23,0.07l0.22,0.08l0.21,0.09
				l0.19,0.09l0.18,0.09l0.17,0.09l0.16,0.1l0.15,0.1c0.09,0.06,0.18,0.12,0.26,0.18c0.07,0.07,0.15,0.13,0.21,0.18
				c0.07,0.06,0.13,0.12,0.18,0.17l0.14,0.14c0.04,0.04,0.07,0.08,0.1,0.11c0.05,0.07,0.08,0.11,0.09,0.12l-1.12,1.19l-0.57,0.58
				l-0.8,0.82v-1.02h-1.37l-0.37-0.36l-0.03-0.02l-2.84-2.79L66.865,56.983z M56.695,66.733l-3.59,2.87
				c-0.16-0.32-0.29-0.74-0.3-1.22c-0.02-1.01,0.73-1.6,0.8-1.65l0.02-0.01l1.7-1.36h0.01l0.75-0.77l0.61-0.62V66.733z
				 M53.605,71.083l0.02-0.01l1.7-1.36l1.37-1.1v2.47l-3.59,2.87c-0.16-0.32-0.29-0.74-0.3-1.22
				C52.785,71.723,53.535,71.133,53.605,71.083z M58.695,62.213h10.62v15h-10.62V62.213z M63.005,56.723
				c1.19-0.02,1.88,0.74,1.94,0.81l0.02,0.01l1.61,1.71v0.01l0.77,0.75l0.2,0.2h-2.98l-3.01-3.18
				C61.945,56.873,62.445,56.733,63.005,56.723z M56.195,56.973l0.17-0.05l0.38-0.1l0.2-0.04l0.21-0.03l0.22-0.02l0.23-0.01
				c0.08,0.01,0.15,0.01,0.23,0.01c0.08,0.01,0.15,0.01,0.22,0.02s0.14,0.02,0.21,0.03c0.07,0.02,0.13,0.04,0.19,0.05
				c0.07,0.02,0.13,0.04,0.19,0.06l0.16,0.06c0.06,0.03,0.11,0.05,0.16,0.07c0.05,0.03,0.09,0.05,0.14,0.07
				c0.04,0.03,0.08,0.05,0.12,0.08c0.04,0.02,0.08,0.05,0.12,0.07c0.06,0.05,0.12,0.09,0.17,0.13c0.05,0.04,0.09,0.08,0.12,0.1
				c0.03,0.03,0.05,0.05,0.06,0.06l0.01,0.01l1.73,1.7v0.01l0.91,0.96h-3.07l-0.4-0.39l-2.84-2.79L56.195,56.973z M52.785,63.293
				v-0.69c0.01-0.11,0.01-0.22,0.02-0.32c0.01-0.11,0.02-0.21,0.02-0.31c0.02-0.11,0.03-0.2,0.04-0.3c0.02-0.1,0.03-0.19,0.05-0.28
				c0.02-0.1,0.04-0.19,0.05-0.27c0.03-0.09,0.05-0.18,0.07-0.26c0.02-0.08,0.05-0.16,0.07-0.24l0.07-0.23l0.09-0.22l0.08-0.21
				l0.09-0.19l0.09-0.18l0.1-0.17l0.09-0.16l0.1-0.15c0.06-0.09,0.13-0.18,0.19-0.26c0.06-0.08,0.12-0.15,0.17-0.22l0.17-0.17
				c0.05-0.06,0.1-0.1,0.14-0.14c0.04-0.04,0.08-0.07,0.11-0.1c0.07-0.05,0.11-0.09,0.12-0.09l1.19,1.12l0.58,0.57l0.4,0.39h-0.19
				v1.37l-0.77,0.78l-0.02,0.02l-2.79,2.85l-0.06-0.17l-0.05-0.17l-0.04-0.18l-0.04-0.19c-0.03-0.14-0.05-0.27-0.07-0.41
				c-0.01-0.15-0.03-0.3-0.05-0.45C52.805,63.543,52.795,63.413,52.785,63.293z M53.105,79.463l-0.06-0.16l-0.05-0.18l-0.05-0.18
				l-0.05-0.19l-0.03-0.2l-0.03-0.21l-0.02-0.22l-0.01-0.23v-0.23c0.01-0.08,0.02-0.15,0.02-0.22c0.01-0.07,0.03-0.14,0.04-0.21
				c0.01-0.07,0.03-0.13,0.04-0.2c0.02-0.06,0.04-0.12,0.06-0.18l0.06-0.17c0.03-0.05,0.05-0.1,0.07-0.15
				c0.03-0.05,0.05-0.09,0.08-0.14c0.02-0.04,0.05-0.09,0.07-0.13c0.02-0.03,0.05-0.07,0.07-0.11c0.05-0.06,0.1-0.12,0.13-0.18
				c0.05-0.04,0.08-0.08,0.11-0.11c0.02-0.03,0.04-0.05,0.05-0.06l0.02-0.01l1.69-1.73h0.01v-0.01h0.01l1.36-1.09v2.84l-0.8,0.82
				L53.105,79.463z M61.145,82.443l-0.18,0.05l-0.18,0.04l-0.19,0.04c-0.13,0.02-0.27,0.05-0.41,0.07
				c-0.15,0.01-0.29,0.03-0.45,0.04l-0.36,0.03h-0.7c-0.11-0.01-0.22-0.01-0.32-0.02c-0.11-0.01-0.21-0.02-0.31-0.03
				c-0.1-0.01-0.2-0.02-0.3-0.03c-0.1-0.02-0.19-0.03-0.28-0.05c-0.09-0.02-0.18-0.04-0.27-0.06c-0.09-0.02-0.17-0.04-0.26-0.06
				c-0.08-0.02-0.16-0.05-0.24-0.07l-0.23-0.08l-0.22-0.08l-0.21-0.08l-0.19-0.09l-0.18-0.09l-0.17-0.1l-0.16-0.09l-0.15-0.1
				c-0.09-0.06-0.18-0.13-0.26-0.19c-0.08-0.06-0.15-0.12-0.22-0.18c-0.06-0.06-0.12-0.11-0.17-0.16s-0.1-0.1-0.14-0.14
				c-0.04-0.05-0.07-0.08-0.1-0.11c-0.05-0.07-0.08-0.11-0.09-0.12l1.12-1.19l0.57-0.58l0.8-0.82v1.02h1.37l0.37,0.36l0.03,0.02
				l2.84,2.79L61.145,82.443z M64.995,82.693c-1.19,0.02-1.88-0.73-1.94-0.8l-0.01-0.02l-1.61-1.7v-0.01l-0.77-0.76l-0.19-0.19h2.97
				l3,3.18C66.065,82.553,65.565,82.683,64.995,82.693z M71.815,82.453l-0.18,0.05l-0.18,0.05l-0.19,0.05l-0.2,0.03l-0.21,0.03
				l-0.22,0.02l-0.23,0.01h-0.23c-0.08-0.01-0.15-0.02-0.22-0.02c-0.07-0.02-0.14-0.03-0.21-0.04s-0.13-0.03-0.2-0.04
				c-0.06-0.02-0.12-0.04-0.18-0.06l-0.17-0.06c-0.05-0.03-0.1-0.05-0.15-0.07c-0.05-0.03-0.09-0.05-0.14-0.08
				c-0.04-0.02-0.09-0.05-0.13-0.07c-0.03-0.02-0.07-0.05-0.11-0.07c-0.06-0.05-0.12-0.1-0.18-0.13c-0.04-0.05-0.08-0.08-0.11-0.11
				c-0.03-0.02-0.05-0.04-0.06-0.05l-0.01-0.02l-1.73-1.69v-0.01h-0.01v-0.01l-0.9-0.95h3.07l0.4,0.39l2.84,2.79L71.815,82.453z
				 M75.225,76.823c-0.01,0.11-0.01,0.21-0.02,0.32s-0.02,0.21-0.03,0.31s-0.02,0.2-0.03,0.3c-0.02,0.09-0.03,0.19-0.05,0.28
				c-0.02,0.09-0.04,0.18-0.06,0.27c-0.02,0.09-0.04,0.17-0.06,0.26c-0.02,0.08-0.05,0.16-0.07,0.24l-0.08,0.23l-0.08,0.22
				l-0.08,0.21l-0.09,0.19l-0.09,0.18l-0.1,0.17l-0.09,0.16l-0.1,0.15c-0.06,0.09-0.13,0.18-0.19,0.26
				c-0.06,0.07-0.12,0.15-0.18,0.21c-0.06,0.07-0.11,0.13-0.16,0.18l-0.14,0.14c-0.05,0.04-0.08,0.07-0.11,0.1
				c-0.07,0.05-0.11,0.08-0.12,0.09l-1.19-1.12l-0.58-0.57l-0.4-0.39h0.19v-1.37l0.77-0.78l0.02-0.03l2.79-2.84l0.06,0.16l0.05,0.17
				l0.04,0.19l0.04,0.19c0.02,0.13,0.05,0.27,0.07,0.41c0.01,0.14,0.03,0.29,0.04,0.45l0.03,0.36V76.823z"/>
		</g>
	</g>
</g>
<g id="row1">
	<g id="Jewelry:4">
		<path id="Shape_10_" style="fill:#FCE49B;" d="M60.181,39.5c0-1.933,1.578-3.5,3.525-3.5s3.525,1.567,3.525,3.5
			S65.653,43,63.706,43S60.181,41.433,60.181,39.5z M56.362,44.677c1.947,0,3.525-1.567,3.525-3.5c0-1.933-1.578-3.5-3.525-3.5
			s-3.525,1.567-3.525,3.5C52.838,43.11,54.416,44.677,56.362,44.677z M50.194,49.052c1.947,0,3.525-1.567,3.525-3.5
			c0-1.933-1.578-3.5-3.525-3.5s-3.525,1.567-3.525,3.5C46.669,47.485,48.247,49.052,50.194,49.052z M45.787,56.052
			c1.947,0,3.525-1.567,3.525-3.5c0-1.933-1.578-3.5-3.525-3.5s-3.525,1.567-3.525,3.5C42.263,54.485,43.841,56.052,45.787,56.052z
			 M44.025,63.927c1.947,0,3.525-1.567,3.525-3.5c0-1.933-1.578-3.5-3.525-3.5s-3.525,1.567-3.525,3.5
			C40.5,62.36,42.078,63.927,44.025,63.927z M44.025,71.802c1.947,0,3.525-1.567,3.525-3.5c0-1.933-1.578-3.5-3.525-3.5
			s-3.525,1.567-3.525,3.5C40.5,70.235,42.078,71.802,44.025,71.802z M45.787,79.677c1.947,0,3.525-1.567,3.525-3.5
			c0-1.933-1.578-3.5-3.525-3.5s-3.525,1.567-3.525,3.5C42.263,78.11,43.841,79.677,45.787,79.677z M50.194,85.802
			c1.947,0,3.525-1.567,3.525-3.5c0-1.933-1.578-3.5-3.525-3.5s-3.525,1.567-3.525,3.5C46.669,84.235,48.247,85.802,50.194,85.802z
			 M56.362,90.177c1.947,0,3.525-1.567,3.525-3.5c0-1.933-1.578-3.5-3.525-3.5s-3.525,1.567-3.525,3.5
			C52.838,88.61,54.416,90.177,56.362,90.177z M64.294,92c-1.947,0-3.525-1.567-3.525-3.5s1.578-3.5,3.525-3.5
			c1.947,0,3.525,1.567,3.525,3.5S66.241,92,64.294,92z M75.162,41.177c0-1.933-1.578-3.5-3.525-3.5c-1.947,0-3.525,1.567-3.525,3.5
			c0,1.933,1.578,3.5,3.525,3.5C73.584,44.677,75.162,43.11,75.162,41.177z M81.331,45.552c0-1.933-1.578-3.5-3.525-3.5
			c-1.947,0-3.525,1.567-3.525,3.5c0,1.933,1.578,3.5,3.525,3.5C79.753,49.052,81.331,47.485,81.331,45.552z M85.738,52.552
			c0-1.933-1.578-3.5-3.525-3.5c-1.947,0-3.525,1.567-3.525,3.5c0,1.933,1.578,3.5,3.525,3.5
			C84.159,56.052,85.738,54.485,85.738,52.552z M87.5,60.427c0-1.933-1.578-3.5-3.525-3.5c-1.947,0-3.525,1.567-3.525,3.5
			c0,1.933,1.578,3.5,3.525,3.5C85.922,63.927,87.5,62.36,87.5,60.427z M87.5,68.302c0-1.933-1.578-3.5-3.525-3.5
			c-1.947,0-3.525,1.567-3.525,3.5c0,1.933,1.578,3.5,3.525,3.5C85.922,71.802,87.5,70.235,87.5,68.302z M85.738,76.177
			c0-1.933-1.578-3.5-3.525-3.5c-1.947,0-3.525,1.567-3.525,3.5c0,1.933,1.578,3.5,3.525,3.5
			C84.159,79.677,85.738,78.11,85.738,76.177z M81.331,82.302c0-1.933-1.578-3.5-3.525-3.5c-1.947,0-3.525,1.567-3.525,3.5
			c0,1.933,1.578,3.5,3.525,3.5C79.753,85.802,81.331,84.235,81.331,82.302z M75.162,86.677c0-1.933-1.578-3.5-3.525-3.5
			c-1.947,0-3.525,1.567-3.525,3.5c0,1.933,1.578,3.5,3.525,3.5C73.584,90.177,75.162,88.61,75.162,86.677z"/>
		<path id="Shape_9_" style="fill:#4C4C4C;" d="M64.294,93c-2.148,0-3.952-1.497-4.412-3.497c-0.83,1.021-2.1,1.674-3.52,1.674
			c-2.495,0-4.524-2.019-4.524-4.5c0-0.062,0.001-0.123,0.004-0.184c-0.511,0.2-1.067,0.309-1.648,0.309
			c-2.495,0-4.524-2.019-4.524-4.5c0-0.574,0.108-1.124,0.307-1.629c-0.062,0.002-0.125,0.004-0.188,0.004
			c-2.495,0-4.524-2.019-4.524-4.5c0-1.414,0.659-2.678,1.688-3.503c-1.978-0.481-3.45-2.258-3.45-4.372
			c0-1.692,0.944-3.169,2.336-3.938c-1.392-0.769-2.336-2.246-2.336-3.938c0-2.113,1.473-3.891,3.45-4.372
			c-1.028-0.826-1.688-2.089-1.688-3.503c0-2.481,2.029-4.5,4.524-4.5c0.231,0,0.459,0.018,0.681,0.051
			c-0.504-0.726-0.799-1.604-0.799-2.551c0-2.481,2.029-4.5,4.524-4.5c0.581,0,1.138,0.109,1.648,0.309
			c-0.003-0.061-0.004-0.123-0.004-0.184c0-2.481,2.029-4.5,4.524-4.5c1.203,0,2.299,0.47,3.11,1.234
			c0.646-1.7,2.301-2.912,4.233-2.912c2.108,0,3.885,1.441,4.385,3.385c0.83-1.04,2.111-1.708,3.547-1.708
			c2.495,0,4.524,2.019,4.524,4.5c0,0.062-0.001,0.123-0.004,0.184c0.511-0.2,1.067-0.309,1.648-0.309
			c2.495,0,4.524,2.019,4.524,4.5c0,0.946-0.295,1.825-0.799,2.551c0.222-0.033,0.449-0.051,0.681-0.051
			c2.495,0,4.524,2.019,4.524,4.5c0,1.414-0.659,2.678-1.688,3.503c1.978,0.481,3.45,2.258,3.45,4.372
			c0,1.692-0.944,3.169-2.336,3.938c1.392,0.769,2.336,2.246,2.336,3.938c0,2.113-1.473,3.891-3.45,4.372
			c1.028,0.826,1.688,2.089,1.688,3.503c0,2.545-2.169,4.608-4.713,4.496c0.198,0.505,0.307,1.055,0.307,1.629
			c0,2.481-2.029,4.5-4.524,4.5c-0.581,0-1.138-0.109-1.648-0.309c0.003,0.061,0.004,0.123,0.004,0.184c0,2.481-2.029,4.5-4.524,4.5
			c-1.184,0-2.264-0.455-3.07-1.197C67.95,91.736,66.268,93,64.294,93z M64.294,86c-1.393,0-2.525,1.122-2.525,2.5
			s1.133,2.5,2.525,2.5c1.392,0,2.524-1.122,2.524-2.5S65.686,86,64.294,86z M71.638,84.177c-1.393,0-2.525,1.122-2.525,2.5
			s1.133,2.5,2.525,2.5c1.392,0,2.524-1.122,2.524-2.5S73.029,84.177,71.638,84.177z M56.362,84.177c-1.392,0-2.524,1.122-2.524,2.5
			s1.133,2.5,2.524,2.5c1.393,0,2.525-1.122,2.525-2.5S57.755,84.177,56.362,84.177z M56.362,82.177
			c2.148,0,3.952,1.497,4.412,3.497c0.83-1.021,2.1-1.674,3.52-1.674c1.184,0,2.263,0.455,3.069,1.197
			c0.617-1.757,2.3-3.02,4.274-3.02c0.581,0,1.137,0.109,1.647,0.309c-0.003-0.061-0.004-0.122-0.004-0.184
			c0-2.543,2.142-4.601,4.713-4.496c-0.198-0.505-0.307-1.055-0.307-1.629c0-2.113,1.473-3.891,3.45-4.372
			c-1.028-0.826-1.688-2.089-1.688-3.503c0-1.692,0.944-3.169,2.336-3.938c-1.392-0.769-2.336-2.246-2.336-3.938
			c0-1.414,0.659-2.678,1.688-3.503c-1.978-0.481-3.45-2.258-3.45-4.372c0-0.946,0.295-1.825,0.799-2.551
			c-0.222,0.034-0.448,0.051-0.68,0.051c-2.495,0-4.525-2.019-4.525-4.5c0-0.062,0.001-0.123,0.004-0.184
			c-0.511,0.199-1.066,0.309-1.647,0.309c-2.108,0-3.885-1.441-4.385-3.385C66.423,43.332,65.142,44,63.706,44
			c-1.203,0-2.298-0.47-3.109-1.234c-0.647,1.699-2.301,2.911-4.234,2.911c-0.581,0-1.137-0.109-1.647-0.309
			c0.003,0.061,0.004,0.122,0.004,0.184c0,2.481-2.03,4.5-4.525,4.5c-0.231,0-0.458-0.017-0.68-0.051
			c0.504,0.726,0.799,1.604,0.799,2.551c0,2.113-1.473,3.891-3.45,4.372c1.028,0.826,1.688,2.089,1.688,3.503
			c0,1.692-0.944,3.169-2.336,3.938c1.392,0.769,2.336,2.246,2.336,3.938c0,1.414-0.659,2.678-1.688,3.503
			c1.978,0.481,3.45,2.258,3.45,4.372c0,0.574-0.108,1.124-0.307,1.629c2.562-0.1,4.713,1.953,4.713,4.496
			c0,0.062-0.001,0.123-0.004,0.184C55.226,82.287,55.781,82.177,56.362,82.177z M77.807,79.802c-1.393,0-2.525,1.122-2.525,2.5
			s1.133,2.5,2.525,2.5c1.392,0,2.524-1.122,2.524-2.5S79.198,79.802,77.807,79.802z M50.193,79.802c-1.392,0-2.524,1.122-2.524,2.5
			s1.133,2.5,2.524,2.5c1.393,0,2.525-1.122,2.525-2.5S51.586,79.802,50.193,79.802z M82.213,73.677c-1.393,0-2.525,1.122-2.525,2.5
			s1.133,2.5,2.525,2.5c1.392,0,2.524-1.122,2.524-2.5S83.604,73.677,82.213,73.677z M45.787,73.677c-1.392,0-2.524,1.122-2.524,2.5
			s1.133,2.5,2.524,2.5c1.393,0,2.525-1.122,2.525-2.5S47.18,73.677,45.787,73.677z M83.975,65.802c-1.392,0-2.524,1.122-2.524,2.5
			s1.133,2.5,2.524,2.5c1.393,0,2.525-1.122,2.525-2.5S85.367,65.802,83.975,65.802z M44.025,65.802c-1.393,0-2.525,1.122-2.525,2.5
			s1.133,2.5,2.525,2.5c1.392,0,2.524-1.122,2.524-2.5S45.417,65.802,44.025,65.802z M83.975,57.927c-1.392,0-2.524,1.122-2.524,2.5
			s1.133,2.5,2.524,2.5c1.393,0,2.525-1.122,2.525-2.5S85.367,57.927,83.975,57.927z M44.025,57.927c-1.393,0-2.525,1.122-2.525,2.5
			s1.133,2.5,2.525,2.5c1.392,0,2.524-1.122,2.524-2.5S45.417,57.927,44.025,57.927z M82.213,50.052c-1.393,0-2.525,1.122-2.525,2.5
			s1.133,2.5,2.525,2.5c1.392,0,2.524-1.122,2.524-2.5S83.604,50.052,82.213,50.052z M45.787,50.052c-1.392,0-2.524,1.122-2.524,2.5
			s1.133,2.5,2.524,2.5c1.393,0,2.525-1.122,2.525-2.5S47.18,50.052,45.787,50.052z M77.807,43.052c-1.393,0-2.525,1.122-2.525,2.5
			s1.133,2.5,2.525,2.5c1.392,0,2.524-1.122,2.524-2.5S79.198,43.052,77.807,43.052z M50.193,43.052c-1.392,0-2.524,1.122-2.524,2.5
			s1.133,2.5,2.524,2.5c1.393,0,2.525-1.122,2.525-2.5S51.586,43.052,50.193,43.052z M71.638,38.677c-1.393,0-2.525,1.122-2.525,2.5
			s1.133,2.5,2.525,2.5c1.392,0,2.524-1.122,2.524-2.5S73.029,38.677,71.638,38.677z M56.362,38.677c-1.392,0-2.524,1.122-2.524,2.5
			s1.133,2.5,2.524,2.5c1.393,0,2.525-1.122,2.525-2.5S57.755,38.677,56.362,38.677z M63.706,37c-1.392,0-2.524,1.122-2.524,2.5
			s1.133,2.5,2.524,2.5c1.393,0,2.525-1.122,2.525-2.5S65.099,37,63.706,37z"/>
	</g>
	<g id="Jewelry:3" style="display:none;">
		<path id="shape_1_" style="display:inline;fill:#D2B27E;" d="M55.21,71.347c-7.209,6.509,8.851,17.918,8.851,17.918
			s16.098-11.409,8.889-17.918c-4.603-4.156-8.889,1.68-8.889,1.68S59.813,67.191,55.21,71.347z"/>
		<path id="shape" style="display:inline;fill:#4C4C4C;" d="M73.62,70.605c-1.45-1.31-3.04-1.89-4.72-1.72
			c-0.57,0.06-1.11,0.2-1.61,0.4c0.02-0.17,0.03-0.35,0.03-0.53c0-1.59-0.57-2.99-1.44-3.79l21.68-26.19l-1.55-1.27L64,64.105
			l-22.01-26.6l-1.55,1.27l21.89,26.45c-0.72,0.82-1.18,2.1-1.18,3.53c0,0.23,0.01,0.45,0.04,0.67c-0.59-0.27-1.24-0.47-1.93-0.54
			c-0.2-0.02-0.4-0.03-0.59-0.03c-1.46,0-2.84,0.59-4.13,1.75c-1.56,1.41-2.29,3.13-2.18,5.11c0.39,6.67,10.68,14.05,11.12,14.37
			l0.58,0.41l0.58-0.41c0.44-0.32,10.76-7.71,11.16-14.37C75.91,73.735,75.18,72.015,73.62,70.605z M64.06,88.025
			c-3.08-2.32-9.44-7.98-9.7-12.43c-0.08-1.36,0.42-2.51,1.52-3.51c1.03-0.93,2.07-1.32,3.17-1.21c2.34,0.23,4.19,2.72,4.2,2.74
			l0.81,1.11l0.81-1.11c0-0.01,0.29-0.39,0.78-0.87c0.14-0.13,0.29-0.27,0.45-0.41l0.01-0.01c0.77-0.65,1.82-1.33,2.99-1.45
			c1.11-0.11,2.15,0.28,3.18,1.21c1.1,1,1.6,2.15,1.52,3.51C73.51,80.495,66.19,86.405,64.06,88.025z"/>
	</g>
	<g id="Jewelry:2" style="display:none;">
		<path id="Shape_4_" style="display:inline;fill:#B3DCBC;" d="M58.399,76.959c0,8.263-4.879,11.541-10.897,11.541
			s-10.897-3.279-10.897-11.541s10.897-19.236,10.897-19.236S58.399,68.696,58.399,76.959z M80.502,57.723
			c0,0-10.897,10.973-10.897,19.236S74.484,88.5,80.502,88.5s10.897-3.279,10.897-11.541S80.502,57.723,80.502,57.723z"/>
		<path id="Shape_8_" style="display:inline;fill:#FFFFFF;" d="M58.605,76.807c0,8.263-5.084,11.693-11.103,11.693
			s-10.897-3.279-10.897-11.541c0-1.194,0.233-2.632,0.233-2.632s1.315,9.82,11.346,9.82c8.424,0,10.226-10.377,10.226-10.377
			S58.605,75.187,58.605,76.807z M91.41,73.77c0,0-1.802,10.377-10.226,10.377c-10.031,0-11.346-9.82-11.346-9.82
			s-0.233,1.439-0.233,2.632c0,8.263,4.879,11.541,10.897,11.541s11.103-3.43,11.103-11.693C91.605,75.187,91.41,73.77,91.41,73.77z
			"/>
		<path id="Shape" style="display:inline;fill:#715A51;" d="M48.305,57.11v-5.83c2.96-0.49,5.23-3.15,5.23-6.35
			c0-3.54-2.79-6.43-6.23-6.43c-3.43,0-6.22,2.89-6.22,6.43h2c0-2.44,1.89-4.43,4.22-4.43s4.23,1.99,4.23,4.43
			c0,2.45-1.9,4.44-4.23,4.44h-1v8.16c-2.19,2.31-10.7,11.79-10.7,19.43c0,7.85,4.45,12.54,11.9,12.54
			c7.45,0,11.89-4.69,11.89-12.54C59.395,68.69,49.415,58.26,48.305,57.11z M47.505,59.18c2.04,2.21,7.9,8.93,9.48,14.94
			c-0.32,8.12-6.03,9.36-9.48,9.36c-3.45,0-9.17-1.24-9.49-9.36C39.595,68.11,45.455,61.39,47.505,59.18z M47.505,87.5
			c-3.57,0-9.48-1.28-9.88-9.63c1.35,4.25,4.78,6.61,9.88,6.61c5.09,0,8.52-2.36,9.87-6.61C56.975,86.22,51.065,87.5,47.505,87.5z
			 M81.305,57.11v-5.83c2.96-0.49,5.23-3.15,5.23-6.35c0-3.54-2.79-6.43-6.23-6.43c-3.43,0-6.22,2.89-6.22,6.43h2
			c0-2.44,1.89-4.43,4.22-4.43s4.23,1.99,4.23,4.43c0,2.45-1.9,4.44-4.23,4.44h-1v8.16c-2.19,2.31-10.7,11.79-10.7,19.43
			c0,7.85,4.45,12.54,11.9,12.54c7.45,0,11.89-4.69,11.89-12.54C92.395,68.69,82.415,58.26,81.305,57.11z M80.505,59.18
			c2.04,2.21,7.9,8.93,9.48,14.94c-0.32,8.12-6.03,9.36-9.48,9.36c-3.45,0-9.17-1.24-9.49-9.36
			C72.595,68.11,78.455,61.39,80.505,59.18z M80.505,87.5c-3.57,0-9.48-1.28-9.88-9.63c1.35,4.25,4.78,6.61,9.88,6.61
			c5.09,0,8.52-2.36,9.87-6.61C89.975,86.22,84.065,87.5,80.505,87.5z"/>
	</g>
	<g id="Jewelry:1" style="display:none;">
		<path id="Shape_3_" style="display:inline;fill:#715A51;" d="M93.518,40.819l-1.748-1.749c-0.643-0.644-1.69-0.644-2.334,0
			l-3.496,3.499c-0.643,0.644-0.643,1.691,0,2.335l-1.171,1.172c-0.635-0.644-1.69-0.644-2.334,0l-3.496,3.499
			c-0.643,0.644-0.643,1.691,0,2.335l-1.163,1.163c-0.643-0.644-1.69-0.644-2.334,0l-3.496,3.499c-0.643,0.644-0.643,1.691,0,2.335
			l-1.171,1.172c-0.643-0.644-1.69-0.644-2.334,0l-3.496,3.499c-0.643,0.644-0.643,1.692,0,2.335l-0.948,0.949l-0.948-0.949
			c0.643-0.644,0.643-1.691,0-2.335l-3.496-3.499c-0.643-0.644-1.682-0.644-2.325,0h-0.008l-1.163-1.172
			c0.635-0.644,0.635-1.691,0-2.335l-3.505-3.499c-0.635-0.644-1.69-0.644-2.325,0h-0.008l-1.163-1.163
			c0.643-0.644,0.643-1.692,0-2.335l-3.496-3.499c-0.643-0.644-1.682-0.644-2.325,0h-0.008l-1.163-1.172
			c0.635-0.644,0.635-1.691,0-2.335l-3.505-3.499c-0.635-0.644-1.69-0.644-2.334,0l-1.748,1.749c-0.635,0.644-0.635,1.691,0,2.335
			l3.505,3.499c0.635,0.644,1.69,0.644,2.325,0l1.171,1.172c-0.643,0.635-0.643,1.691,0,2.335l3.496,3.499
			c0.643,0.644,1.69,0.644,2.334,0l1.163,1.163c-0.635,0.644-0.635,1.691,0,2.335l3.505,3.499c0.635,0.644,1.69,0.644,2.334,0
			l1.163,1.172c-0.643,0.644-0.643,1.691,0,2.335l3.496,3.499c0.643,0.644,1.69,0.644,2.334,0l2.086,2.088l0.61-0.611l0.61,0.611
			l2.086-2.088c0.643,0.644,1.69,0.644,2.334,0l3.496-3.499c0.643-0.644,0.643-1.691,0-2.335l1.171-1.172
			c0.643,0.644,1.69,0.644,2.334,0l3.496-3.499c0.643-0.644,0.643-1.691,0-2.335l1.163-1.163c0.643,0.644,1.69,0.644,2.334,0
			l3.496-3.499c0.643-0.644,0.643-1.7,0-2.335l1.171-1.172c0.643,0.644,1.69,0.644,2.334,0l3.496-3.499
			C94.161,42.51,94.161,41.462,93.518,40.819z M39.143,45.489l-3.496-3.499l1.748-1.758l3.496,3.507L39.143,45.489z M46.144,52.486
			l-3.505-3.499l1.748-1.749l3.505,3.499L46.144,52.486z M53.137,59.491l-3.496-3.499l1.748-1.758l3.496,3.507L53.137,59.491z
			 M60.138,66.488l-3.505-3.499l1.748-1.749l3.505,3.499L60.138,66.488z M67.864,66.488l-1.748-1.749l3.496-3.499l1.748,1.749
			L67.864,66.488z M74.857,59.491l-1.748-1.749l3.496-3.507l1.756,1.758L74.857,59.491z M81.858,52.486l-1.748-1.749l3.496-3.499
			l1.748,1.749L81.858,52.486z M88.85,45.489l-1.748-1.749l3.496-3.507l1.756,1.758L88.85,45.489z"/>
		<polygon id="Shape_2_" style="display:inline;fill:#62CAEF;" points="63.847,69.592 66.777,75.516 73.328,76.465 68.587,81.076 
			69.707,87.587 63.847,84.513 57.987,87.587 59.106,81.076 54.365,76.465 60.917,75.516 		"/>
		<path id="Shape_1_" style="display:inline;fill:#45403C;" d="M71.035,89.413l-7.188-3.771l-7.188,3.771l1.373-7.987l-5.818-5.659
			l8.041-1.166l3.593-7.265l3.594,7.265l8.04,1.166l-5.818,5.659L71.035,89.413z M63.847,83.384l4.531,2.377l-0.865-5.034
			l3.663-3.563l-5.062-0.734l-2.267-4.582l-2.266,4.582l-5.063,0.734l3.663,3.563l-0.865,5.034L63.847,83.384z"/>
	</g>
</g>
</svg>
