<?xml version="1.0" encoding="utf-8"?>
<!-- Generator: Adobe Illustrator 16.0.0, SVG Export Plug-In . SVG Version: 6.00 Build 0)  -->
<!DOCTYPE svg PUBLIC "-//W3C//DTD SVG 1.0//EN" "http://www.w3.org/TR/2001/REC-SVG-20010904/DTD/svg10.dtd">
<svg version="1.0" id="Layer_1" xmlns="http://www.w3.org/2000/svg" xmlns:xlink="http://www.w3.org/1999/xlink" x="0px" y="0px"
	 width="100px" height="100px" viewBox="0 0 100 100" enable-background="new 0 0 100 100" xml:space="preserve">
<path fill="#BDBCBC" d="M35,23.333h3.29c1.127-2.138,1.996-4.37,2.558-6.667h14.97c0.563,2.297,1.43,4.529,2.559,6.667h3.292
	c2.75,0,5.25,1.125,7.063,2.937l0.008-0.007c-4.122-4.113-7.07-9.804-7.07-16.087L61.666,10H35v0.176
	c0,6.283-2.952,11.974-7.07,16.087l0.008,0.008C29.75,24.458,32.25,23.333,35,23.333z"/>
<path fill="#F4F5F5" d="M38.29,23.333c1.127-2.138,1.996-4.37,2.558-6.667h14.97c0.563,2.297,1.43,4.529,2.559,6.667H38.29z"/>
<path fill="#9D9D9D" d="M56.631,19.333c0.483,1.363,1.06,2.7,1.746,4h3.292c2.75,0,5.25,1.125,7.063,2.937l0.008-0.007
	c-1.935-1.931-3.604-4.211-4.839-6.734c-0.729-0.117-1.471-0.195-2.231-0.195H56.631z"/>
<path fill="#9D9D9D" d="M38.29,23.333c0.686-1.3,1.262-2.637,1.745-4H35c-0.762,0-1.505,0.078-2.234,0.197
	c-1.234,2.522-2.903,4.802-4.836,6.733l0.008,0.008c1.813-1.813,4.313-2.938,7.063-2.938H38.29z"/>
<path fill="#E0E0E0" d="M38.29,23.333h20.087c-0.687-1.3-1.263-2.637-1.746-4H40.035C39.552,20.696,38.976,22.033,38.29,23.333z"/>
<rect x="71.669" y="36.667" fill="#455A64" width="3.331" height="9.998"/>
<rect x="71.669" y="42.664" fill="#263238" width="3.331" height="4"/>
<path fill="#BDBCBC" d="M61.669,76.666h-3.291c-1.128,2.139-1.995,4.371-2.558,6.667H40.85c-0.563-2.296-1.43-4.528-2.558-6.667H35
	c-2.751,0-5.251-1.124-7.063-2.937l-0.007,0.007C32.051,77.852,35,83.542,35,89.825L35.001,90h26.667v-0.175
	c0-6.283,2.951-11.974,7.07-16.089l-0.008-0.007C66.919,75.542,64.419,76.666,61.669,76.666z"/>
<path fill="#F4F5F5" d="M58.378,76.666c-1.128,2.139-1.995,4.371-2.558,6.667H40.85c-0.563-2.296-1.43-4.528-2.558-6.667H58.378z"/>
<path fill="#E0F2F7" d="M35,70c-1.808,0-3.335-1.523-3.335-3.334V33.333c0-1.803,1.527-3.334,3.335-3.334h26.669
	c1.803,0,3.331,1.531,3.331,3.334v33.333C65,68.477,63.472,70,61.669,70H35z"/>
<path fill="#B4E3F9" d="M65,65.2H36.465V29.999H35c-1.808,0-3.335,1.531-3.335,3.334v33.333C31.665,68.477,33.192,70,35,70h26.669
	C63.472,70,65,68.477,65,66.666V65.2z"/>
<path fill="#2CABE1" d="M61.669,23.333H35c-5.503,0-10,4.499-10,10v33.333c0,5.503,4.497,10,10,10h26.669c5.498,0,10-4.497,10-10
	V33.333C71.669,27.832,67.167,23.333,61.669,23.333z M65,66.666C65,68.477,63.472,70,61.669,70H35c-1.808,0-3.335-1.523-3.335-3.334
	V33.333c0-1.803,1.527-3.334,3.335-3.334h26.669c1.803,0,3.331,1.531,3.331,3.334V66.666z"/>
<path fill="#9D9D9D" d="M40.037,80.666c-0.483-1.361-1.059-2.7-1.745-4H35c-2.751,0-5.251-1.124-7.063-2.937l-0.007,0.007
	c1.934,1.931,3.603,4.212,4.837,6.734c0.729,0.118,1.471,0.195,2.233,0.195H40.037z"/>
<path fill="#9D9D9D" d="M58.378,76.666c-0.686,1.3-1.263,2.639-1.745,4h5.036c0.761,0,1.505-0.077,2.232-0.195
	c1.234-2.522,2.905-4.804,4.838-6.734l-0.008-0.007c-1.813,1.813-4.313,2.937-7.063,2.937H58.378z"/>
<path fill="#E0E0E0" d="M58.378,76.666H38.292c0.686,1.3,1.262,2.639,1.745,4h16.596C57.115,79.305,57.692,77.966,58.378,76.666z"/>
<path fill="#7CB342" d="M58.333,53.331l-5.202-2.939l-3.167,2.055c-1.608-1.082-2.995-2.468-4.077-4.075l2.056-3.167l-2.945-5.207
	h-6.665c0,11.042,8.951,20.001,20,20.001V53.331z"/>
<path fill="#568B3F" d="M58.333,60c-11.049,0-20-8.959-20-20.001h3.2c0,9.266,7.536,16.801,16.799,16.801V60z"/>
</svg>
