<?xml version="1.0" encoding="utf-8"?>
<!-- Generator: Adobe Illustrator 16.0.0, SVG Export Plug-In . SVG Version: 6.00 Build 0)  -->
<!DOCTYPE svg PUBLIC "-//W3C//DTD SVG 1.0//EN" "http://www.w3.org/TR/2001/REC-SVG-20010904/DTD/svg10.dtd">
<svg version="1.0" id="Layer_1" xmlns="http://www.w3.org/2000/svg" xmlns:xlink="http://www.w3.org/1999/xlink" x="0px" y="0px"
	 width="100px" height="100px" viewBox="0 0 100 100" enable-background="new 0 0 100 100" xml:space="preserve">
<path fill="#88D3E1" d="M31.95,45.284l-4.713-4.713c-5.207,5.205-5.207,13.646,0,18.856l4.713-4.714
	C29.348,52.107,29.351,47.884,31.95,45.284z"/>
<path fill="#88D3E1" d="M22.524,35.856L17.81,31.14c-10.413,10.417-10.413,27.298,0,37.713l4.714-4.714
	C14.715,56.328,14.716,43.664,22.524,35.856z"/>
<path fill="#BDBCBC" d="M50.001,23.333h3.289c1.128-2.138,1.996-4.37,2.559-6.667h14.971c0.563,2.297,1.43,4.529,2.557,6.667h3.292
	c2.751,0,5.251,1.125,7.063,2.937l0.007-0.007c-4.121-4.113-7.07-9.804-7.07-16.086l-0.002-0.176H50.001v0.176
	c0,6.283-2.953,11.973-7.071,16.086l0.008,0.008C44.75,24.459,47.251,23.333,50.001,23.333z"/>
<path fill="#F4F5F5" d="M53.29,23.333c1.128-2.138,1.996-4.37,2.559-6.667h14.971c0.563,2.297,1.43,4.529,2.557,6.667H53.29z"/>
<path fill="#9D9D9D" d="M71.632,19.333c0.482,1.363,1.06,2.7,1.744,4h3.292c2.751,0,5.251,1.125,7.063,2.937l0.007-0.007
	c-1.934-1.931-3.604-4.211-4.838-6.734c-0.729-0.117-1.471-0.195-2.232-0.195H71.632z"/>
<path fill="#9D9D9D" d="M53.29,23.333c0.686-1.3,1.263-2.637,1.745-4h-5.034c-0.763,0-1.505,0.078-2.234,0.197
	c-1.235,2.522-2.904,4.802-4.836,6.733l0.008,0.008c1.813-1.813,4.313-2.938,7.063-2.938H53.29z"/>
<path fill="#E0E0E0" d="M53.29,23.333h20.086c-0.685-1.3-1.262-2.637-1.744-4H55.035C54.553,20.697,53.976,22.033,53.29,23.333z"/>
<rect x="86.668" y="36.667" fill="#455A64" width="3.332" height="9.998"/>
<rect x="86.668" y="42.664" fill="#263238" width="3.332" height="4"/>
<path fill="#BDBCBC" d="M76.668,76.665h-3.289c-1.129,2.139-1.996,4.372-2.559,6.667H55.85c-0.563-2.295-1.43-4.528-2.557-6.667
	h-3.292c-2.751,0-5.251-1.123-7.064-2.936l-0.007,0.007c4.121,4.114,7.071,9.806,7.071,16.088l0.001,0.175h26.666v-0.175
	c0-6.282,2.952-11.974,7.07-16.088l-0.008-0.007C81.918,75.542,79.418,76.665,76.668,76.665z"/>
<path fill="#F4F5F5" d="M73.379,76.665c-1.129,2.139-1.996,4.372-2.559,6.667H55.85c-0.563-2.295-1.43-4.528-2.557-6.667H73.379z"/>
<path fill="#E0F2F7" d="M50.001,70c-1.809,0-3.335-1.523-3.335-3.335V33.333c0-1.803,1.527-3.334,3.335-3.334h26.667
	c1.804,0,3.332,1.531,3.332,3.334v33.332C80,68.477,78.472,70,76.668,70H50.001z"/>
<path fill="#B4E3F9" d="M80,65.199H51.465v-35.2h-1.464c-1.809,0-3.335,1.531-3.335,3.334v33.332c0,1.812,1.527,3.335,3.335,3.335
	h26.667C78.472,70,80,68.477,80,66.665V65.199z"/>
<path fill="#2CABE1" d="M76.668,23.333H50.001c-5.503,0-10,4.499-10,10v33.332c0,5.503,4.497,10,10,10h26.667
	c5.499,0,10-4.497,10-10V33.333C86.668,27.833,82.167,23.333,76.668,23.333z M80,66.665C80,68.477,78.472,70,76.668,70H50.001
	c-1.809,0-3.335-1.523-3.335-3.335V33.333c0-1.803,1.527-3.334,3.335-3.334h26.667c1.804,0,3.332,1.531,3.332,3.334V66.665z"/>
<path fill="#9D9D9D" d="M55.037,80.665c-0.483-1.361-1.06-2.7-1.744-4h-3.292c-2.751,0-5.251-1.123-7.064-2.936l-0.007,0.007
	c1.934,1.931,3.603,4.212,4.838,6.734c0.728,0.118,1.47,0.194,2.233,0.194H55.037z"/>
<path fill="#9D9D9D" d="M73.379,76.665c-0.687,1.3-1.263,2.639-1.746,4h5.035c0.762,0,1.505-0.076,2.233-0.195
	c1.234-2.521,2.905-4.803,4.837-6.733l-0.008-0.007c-1.813,1.813-4.313,2.936-7.063,2.936H73.379z"/>
<path fill="#E0E0E0" d="M73.379,76.665H53.293c0.685,1.3,1.261,2.639,1.744,4h16.596C72.116,79.304,72.692,77.965,73.379,76.665z"/>
</svg>
