<?xml version="1.0" encoding="utf-8"?>
<!-- Generator: Adobe Illustrator 16.0.0, SVG Export Plug-In . SVG Version: 6.00 Build 0)  -->
<!DOCTYPE svg PUBLIC "-//W3C//DTD SVG 1.0//EN" "http://www.w3.org/TR/2001/REC-SVG-20010904/DTD/svg10.dtd">
<svg version="1.0" id="Layer_1" xmlns="http://www.w3.org/2000/svg" xmlns:xlink="http://www.w3.org/1999/xlink" x="0px" y="0px"
	 width="100px" height="100px" viewBox="0 0 100 100" enable-background="new 0 0 100 100" xml:space="preserve">
<circle fill="#CFD8DB" cx="46.667" cy="49.999" r="26.667"/>
<path fill="#AFBDC4" d="M49.494,73.838c-14.725,0.001-26.666-11.937-26.666-26.665c0-6.645,2.436-12.717,6.455-17.385
	C23.603,34.678,20,41.917,20,50.001c0,14.728,11.94,26.665,26.665,26.665c8.086,0,15.325-3.602,20.215-9.282
	C62.211,71.403,56.139,73.838,49.494,73.838z"/>
<path fill="#E53A34" d="M78.977,58.214c-0.553,2.182-1.318,4.276-2.278,6.264l6.414,2.333l2.278-6.262L78.977,58.214z"/>
<path fill="#FFC00E" d="M79.834,46.666C79.942,47.763,80,48.874,80,49.999c0,1.125-0.058,2.238-0.166,3.333h6.832v-6.667H79.834z"/>
<path fill="#F68E1E" d="M80,49.999c0,1.125-0.058,2.238-0.166,3.333h3.208c0.101-1.099,0.158-2.209,0.158-3.333
	c0-1.124-0.058-2.234-0.158-3.333h-3.208C79.942,47.763,80,48.874,80,49.999z"/>
<path fill="#E53A34" d="M78.979,41.786l6.412-2.333l-2.278-6.27l-6.414,2.337C77.658,37.507,78.425,39.604,78.979,41.786z"/>
<path fill="#B62025" d="M78.977,58.214c-0.553,2.182-1.318,4.276-2.278,6.264l3.008,1.095c0.944-1.996,1.714-4.088,2.288-6.261
	L78.977,58.214z"/>
<path fill="#B62025" d="M76.698,35.521c0.96,1.986,1.727,4.083,2.28,6.266l3.016-1.098c-0.574-2.174-1.344-4.267-2.289-6.264
	L76.698,35.521z"/>
<path fill="#FFC00E" d="M29.999,21.138V10h-6.667v16.204C25.327,24.249,27.566,22.545,29.999,21.138z"/>
<path fill="#FFC00E" d="M70,26.205V10h-6.666v11.138C65.766,22.546,68.006,24.249,70,26.205z"/>
<path fill="#FFC00E" d="M23.333,73.795V90h6.667V78.862C27.566,77.453,25.327,75.75,23.333,73.795z"/>
<path fill="#FFC00E" d="M63.334,78.861V90H70V73.794C68.006,75.749,65.766,77.452,63.334,78.861z"/>
<path fill="#F68E1E" d="M29.999,21.138v-4.529c-2.377,1.191-4.61,2.628-6.667,4.28v5.315C25.327,24.249,27.566,22.545,29.999,21.138
	z"/>
<path fill="#F68E1E" d="M70,26.205v-5.316c-2.057-1.652-4.289-3.089-6.666-4.28v4.53C65.766,22.546,68.006,24.249,70,26.205z"/>
<path fill="#F68E1E" d="M63.334,78.861v4.527c2.377-1.191,4.609-2.628,6.666-4.279v-5.314
	C68.006,75.749,65.768,77.452,63.334,78.861z"/>
<path fill="#F68E1E" d="M23.333,73.795v5.316c2.057,1.651,4.289,3.087,6.667,4.279v-4.529C27.566,77.453,25.327,75.75,23.333,73.795
	z"/>
<path fill="#FFF8E1" d="M46.666,16.667c6.074,0,11.764,1.633,16.668,4.472V10H29.999v11.138
	C34.903,18.299,40.592,16.667,46.666,16.667z"/>
<path fill="#FFF8E1" d="M46.667,83.334c-6.073,0-11.763-1.633-16.668-4.472V90h33.335V78.864
	C58.43,81.701,52.74,83.334,46.667,83.334z"/>
<path fill="#455A64" d="M46.666,16.667c-18.407,0-33.332,14.921-33.332,33.332c0,18.408,14.925,33.335,33.332,33.335
	C65.072,83.334,80,68.406,80,49.999C80,31.588,65.072,16.667,46.666,16.667z M46.666,76.666C31.937,76.666,20,64.728,20,49.999
	c0-14.726,11.937-26.666,26.665-26.666c14.728,0,26.668,11.94,26.668,26.666C73.334,64.728,61.394,76.666,46.666,76.666z"/>
<polygon fill="#455A64" points="60.216,32.91 45.63,47.499 33.333,47.499 33.333,52.499 47.703,52.499 63.758,36.444 "/>
<circle fill="#E53A34" cx="25.833" cy="49.999" r="2.5"/>
<circle fill="#E53A34" cx="67.5" cy="49.999" r="2.5"/>
<circle fill="#E53A34" cx="46.666" cy="70.834" r="2.5"/>
<circle fill="#E53A34" cx="46.666" cy="29.166" r="2.5"/>
<circle fill="#E53A34" cx="61.396" cy="64.731" r="2.5"/>
<path fill="#E53A34" d="M31.938,32.765c1.377,0.005,2.498,1.125,2.5,2.5c0,1.381-1.123,2.504-2.504,2.504
	c-1.374-0.002-2.495-1.123-2.5-2.5C29.434,33.888,30.557,32.765,31.938,32.765z"/>
<path fill="#E53A34" d="M29.434,64.724c0.002-1.379,1.121-2.497,2.5-2.499c1.381,0,2.502,1.12,2.502,2.501
	c-0.003,1.379-1.121,2.498-2.5,2.5C30.555,67.226,29.434,66.104,29.434,64.724z"/>
<path fill="#FFEBB2" d="M46.666,12.667c-4.446,0-8.709,0.789-12.667,2.224V10h-4v11.138c4.904-2.838,10.593-4.471,16.667-4.471
	c6.074,0,11.764,1.633,16.668,4.472v-4.53C58.313,14.092,52.654,12.667,46.666,12.667z"/>
<path fill="#FFEBB2" d="M46.666,87.334c-4.446,0-8.709-0.789-12.667-2.224V90h-4V78.864c4.904,2.837,10.593,4.47,16.667,4.47
	c6.074,0,11.764-1.633,16.668-4.472v4.53C58.313,85.908,52.654,87.334,46.666,87.334z"/>
<path fill="#B62025" d="M45.863,30.863c0-1.38,1.119-2.501,2.5-2.5c0.242,0,0.472,0.046,0.693,0.11
	c-0.302-1.041-1.252-1.807-2.39-1.807c-1.38,0-2.5,1.121-2.5,2.5c0,1.138,0.766,2.089,1.807,2.39
	C45.908,31.335,45.863,31.105,45.863,30.863z"/>
<path fill="#B62025" d="M31.131,36.962c0-1.379,1.119-2.5,2.5-2.5c0.242,0,0.471,0.045,0.693,0.109
	c-0.302-1.041-1.252-1.807-2.39-1.807c-1.38,0-2.5,1.121-2.5,2.5c0,1.139,0.766,2.088,1.807,2.39
	C31.176,37.434,31.131,37.204,31.131,36.962z"/>
<path fill="#B62025" d="M25.03,51.697c0-1.381,1.119-2.501,2.5-2.501c0.242,0,0.472,0.046,0.693,0.11
	c-0.302-1.041-1.252-1.807-2.391-1.807c-1.38,0-2.5,1.121-2.5,2.501c0,1.138,0.766,2.089,1.807,2.389
	C25.075,52.169,25.03,51.939,25.03,51.697z"/>
<path fill="#B62025" d="M66.697,51.697c0-1.381,1.118-2.501,2.5-2.501c0.242,0,0.472,0.046,0.693,0.11
	c-0.303-1.041-1.253-1.807-2.391-1.807c-1.38,0-2.5,1.121-2.5,2.501c0,1.138,0.766,2.089,1.807,2.389
	C66.742,52.169,66.697,51.939,66.697,51.697z"/>
<path fill="#B62025" d="M31.13,66.422c0-1.381,1.119-2.502,2.5-2.502c0.242,0,0.472,0.046,0.693,0.11
	c-0.302-1.04-1.252-1.806-2.39-1.806c-1.38-0.001-2.5,1.119-2.5,2.5c0,1.138,0.766,2.088,1.806,2.39
	C31.176,66.893,31.131,66.663,31.13,66.422z"/>
<path fill="#B62025" d="M45.863,72.53c0-1.38,1.119-2.5,2.5-2.5c0.242,0,0.472,0.046,0.693,0.11
	c-0.302-1.041-1.252-1.807-2.39-1.807c-1.38,0-2.5,1.12-2.5,2.5c0,1.138,0.766,2.088,1.807,2.391
	C45.908,73.003,45.863,72.773,45.863,72.53z"/>
<path fill="#B62025" d="M60.594,66.428c0-1.379,1.119-2.5,2.5-2.5c0.242,0,0.472,0.046,0.693,0.109
	c-0.303-1.039-1.253-1.806-2.391-1.806c-1.379-0.001-2.5,1.119-2.5,2.5c0,1.138,0.766,2.088,1.807,2.39
	C60.639,66.9,60.594,66.67,60.594,66.428z"/>
<polygon fill="#263238" points="56.703,43.499 49.628,43.499 45.63,47.499 52.703,47.499 "/>
</svg>
