<?xml version="1.0" encoding="utf-8"?>
<!-- Generator: Adobe Illustrator 16.0.0, SVG Export Plug-In . SVG Version: 6.00 Build 0)  -->
<!DOCTYPE svg PUBLIC "-//W3C//DTD SVG 1.0//EN" "http://www.w3.org/TR/2001/REC-SVG-20010904/DTD/svg10.dtd">
<svg version="1.0" id="Layer_1" xmlns="http://www.w3.org/2000/svg" xmlns:xlink="http://www.w3.org/1999/xlink" x="0px" y="0px"
	 width="100px" height="100px" viewBox="0 0 100 100" enable-background="new 0 0 100 100" xml:space="preserve">
<path fill="#BDBCBC" d="M28.981,76.264V90h6.666V77.902c-1.973-0.78-3.837-1.771-5.581-2.933L28.981,76.264z"/>
<path fill="#BDBCBC" d="M63.269,74.969c-1.743,1.162-3.609,2.154-5.586,2.936V90h6.667V76.256L63.269,74.969z"/>
<path fill="#BDBCBC" d="M64.35,23.745V10h-6.667v12.097c1.977,0.781,3.843,1.773,5.586,2.936L64.35,23.745z"/>
<path fill="#BDBCBC" d="M30.068,25.03c1.743-1.16,3.606-2.152,5.579-2.932V10h-6.666v13.733L30.068,25.03z"/>
<path fill="#455A64" d="M68.38,29.31l4.407-5.253l-5.104-4.284l-4.403,5.248C65.138,26.257,66.844,27.699,68.38,29.31z"/>
<path fill="#455A64" d="M24.954,70.689l-4.41,5.255l5.11,4.284l4.403-5.247C28.198,73.743,26.489,72.3,24.954,70.689z"/>
<path fill="#455A64" d="M63.279,74.981l4.403,5.247l5.104-4.284L68.38,70.69C66.844,72.3,65.138,73.743,63.279,74.981z"/>
<path fill="#455A64" d="M30.058,25.018l-4.407-5.253l-5.104,4.292l4.408,5.253C26.491,27.698,28.199,26.256,30.058,25.018z"/>
<path fill="#E53A34" d="M80,45h-3.756c0.273,1.626,0.422,3.294,0.422,4.999c0,1.706-0.148,3.375-0.422,5.003H80
	c1.83,0,3.333-1.507,3.333-3.336v-3.334C83.333,46.497,81.83,45,80,45z"/>
<path fill="#B62025" d="M76.666,49.999c0,1.706-0.148,3.375-0.422,5.003h3.245c0.248-1.633,0.376-3.304,0.376-5.003
	c0-1.699-0.128-3.368-0.376-4.999h-3.245C76.518,46.626,76.666,48.294,76.666,49.999z"/>
<path fill="#F4F5F5" d="M46.666,20c3.892,0,7.606,0.749,11.017,2.097V10H35.647v12.098C39.06,20.749,42.774,20,46.666,20z"/>
<path fill="#E0F2F7" d="M70,49.999c0,12.886-10.448,23.335-23.334,23.335S23.333,62.885,23.333,49.999
	c0-12.883,10.447-23.333,23.333-23.333S70,37.115,70,49.999z"/>
<path fill="#2CABE1" d="M46.666,20c-16.565,0-29.999,13.431-29.999,29.999C16.667,66.57,30.101,80,46.666,80
	c16.571,0,30-13.43,30-30.001C76.666,33.431,63.236,20,46.666,20z M46.666,73.334c-12.886,0-23.333-10.449-23.333-23.335
	c0-12.883,10.447-23.333,23.333-23.333S70,37.115,70,49.999C70,62.885,59.552,73.334,46.666,73.334z"/>
<polygon fill="#455A64" points="59.037,34.089 46.666,46.46 39.006,38.802 35.471,42.336 46.667,53.531 62.578,37.623 "/>
<path fill="#E53A34" d="M31.667,49.999c0,1.381-1.116,2.5-2.5,2.5c-1.383,0-2.5-1.119-2.5-2.5c0-1.385,1.117-2.5,2.5-2.5
	C30.55,47.499,31.667,48.613,31.667,49.999z"/>
<path fill="#E53A34" d="M66.667,49.999c0,1.381-1.12,2.5-2.5,2.5s-2.5-1.119-2.5-2.5c0-1.385,1.12-2.5,2.5-2.5
	S66.667,48.613,66.667,49.999z"/>
<circle fill="#E53A34" cx="46.666" cy="67.5" r="2.5"/>
<circle fill="#E53A34" cx="46.666" cy="32.5" r="2.5"/>
<path fill="#E0E0E0" d="M46.666,16c-2.406,0-4.753,0.255-7.019,0.736V10h-4v12.098C39.06,20.749,42.774,20,46.666,20
	c3.892,0,7.606,0.749,11.017,2.097v-4.254C54.225,16.654,50.521,16,46.666,16z"/>
<path fill="#F4F5F5" d="M46.666,80.002c3.892,0,7.606-0.75,11.017-2.098V90H35.647V77.903C39.06,79.252,42.774,80.002,46.666,80.002
	z"/>
<path fill="#E0E0E0" d="M46.666,84.002c-2.406,0-4.753-0.256-7.019-0.736V90h-4V77.903c3.413,1.349,7.127,2.099,11.019,2.099
	c3.892,0,7.606-0.75,11.017-2.098v4.255C54.225,83.347,50.521,84.002,46.666,84.002z"/>
<path fill="#9D9D9D" d="M64.35,23.745v-2.773c-2.086-1.274-4.32-2.323-6.667-3.129v4.254c1.977,0.781,3.843,1.773,5.586,2.936
	L64.35,23.745z"/>
<path fill="#9D9D9D" d="M30.068,25.03c1.743-1.16,3.606-2.152,5.579-2.932v-4.255c-2.347,0.807-4.582,1.855-6.666,3.13v2.761
	L30.068,25.03z"/>
<path fill="#9D9D9D" d="M63.269,74.969c-1.743,1.162-3.609,2.154-5.586,2.936v4.254c2.347-0.807,4.581-1.855,6.667-3.13v-2.772
	L63.269,74.969z"/>
<path fill="#9D9D9D" d="M28.981,76.264v2.763c2.084,1.275,4.319,2.324,6.666,3.132v-4.256c-1.973-0.78-3.837-1.771-5.581-2.933
	L28.981,76.264z"/>
<path fill="#B62025" d="M28.364,51.697c0-1.384,1.12-2.5,2.5-2.5c0.242,0,0.472,0.045,0.693,0.109
	c-0.301-1.042-1.248-1.806-2.391-1.807c-1.38,0-2.5,1.117-2.5,2.501c0,1.141,0.766,2.089,1.807,2.391
	C28.409,52.169,28.364,51.939,28.364,51.697z"/>
<path fill="#B62025" d="M45.863,34.197c0-1.383,1.12-2.5,2.501-2.5c0.242,0,0.472,0.045,0.693,0.109
	C48.756,30.764,47.809,30,46.667,30c-1.381,0-2.501,1.116-2.501,2.5c0,1.141,0.766,2.088,1.807,2.391
	C45.908,34.669,45.863,34.44,45.863,34.197z"/>
<path fill="#B62025" d="M63.364,51.697c0-1.384,1.12-2.5,2.5-2.5c0.243,0,0.474,0.045,0.693,0.109
	c-0.3-1.042-1.247-1.806-2.391-1.807c-1.38,0-2.5,1.117-2.5,2.501c0,1.141,0.766,2.089,1.807,2.391
	C63.409,52.169,63.364,51.939,63.364,51.697z"/>
<path fill="#B62025" d="M45.863,69.197c0-1.383,1.12-2.5,2.501-2.5c0.242,0,0.472,0.046,0.693,0.109
	c-0.301-1.043-1.248-1.806-2.39-1.807c-1.381,0-2.501,1.116-2.501,2.501c0,1.14,0.766,2.088,1.807,2.391
	C45.908,69.67,45.863,69.44,45.863,69.197z"/>
<rect x="40.984" y="44.814" transform="matrix(-0.707 0.7072 -0.7072 -0.707 107.3349 49.1597)" fill="#263238" width="4.999" height="4"/>
<path fill="#B4E3F9" d="M26.162,52.827c0-12.887,10.449-23.333,23.335-23.333c5.722,0,10.961,2.064,15.021,5.484
	c-4.28-5.082-10.688-8.313-17.849-8.313c-12.886,0-23.336,10.447-23.336,23.333c0,7.164,3.232,13.57,8.313,17.85
	C28.226,63.789,26.162,58.55,26.162,52.827z"/>
</svg>
