<?xml version="1.0" encoding="utf-8"?>
<!-- Generator: Adobe Illustrator 16.0.0, SVG Export Plug-In . SVG Version: 6.00 Build 0)  -->
<!DOCTYPE svg PUBLIC "-//W3C//DTD SVG 1.0//EN" "http://www.w3.org/TR/2001/REC-SVG-20010904/DTD/svg10.dtd">
<svg version="1.0" id="Layer_1" xmlns="http://www.w3.org/2000/svg" xmlns:xlink="http://www.w3.org/1999/xlink" x="0px" y="0px"
	 width="100px" height="100px" viewBox="0 0 100 100" enable-background="new 0 0 100 100" xml:space="preserve">
<path fill="#FFC00E" d="M55.587,71.564l-1.473,11.77H39.219l-1.471-11.769c-2.743-1.138-5.223-2.782-7.321-4.82L33.333,90h26.669
	l2.906-23.256C60.81,68.78,58.33,70.427,55.587,71.564z"/>
<path fill="#FFC00E" d="M39.219,16.667h14.896l1.473,11.768c2.743,1.137,5.222,2.783,7.321,4.818L60.002,10H33.333l-2.906,23.251
	c2.099-2.036,4.578-3.681,7.321-4.818L39.219,16.667z"/>
<path fill="#F68E1E" d="M55.587,28.435c2.743,1.137,5.222,2.783,7.321,4.818l-0.717-5.732c-2.18-1.51-4.588-2.712-7.162-3.541
	L55.587,28.435z"/>
<path fill="#F68E1E" d="M31.144,27.52l-0.717,5.732c2.099-2.036,4.578-3.681,7.321-4.818l0.557-4.455
	C35.73,24.809,33.323,26.009,31.144,27.52z"/>
<path fill="#F68E1E" d="M55.029,76.021c2.574-0.829,4.982-2.031,7.162-3.541l0.717-5.735c-2.099,2.036-4.578,3.683-7.321,4.82
	L55.029,76.021z"/>
<path fill="#F68E1E" d="M37.748,71.565c-2.743-1.138-5.223-2.782-7.321-4.82l0.717,5.735c2.18,1.51,4.587,2.711,7.161,3.541
	L37.748,71.565z"/>
<path fill="#FFF8E1" d="M46.666,73.334c-3.159,0-6.17-0.631-8.918-1.77l1.471,11.77h14.896l1.473-11.77
	C52.838,72.702,49.827,73.334,46.666,73.334z"/>
<path fill="#E53A34" d="M69.605,45.735c0.255,1.382,0.396,2.807,0.396,4.264c0,1.458-0.141,2.883-0.397,4.268l7.063-1.768v-5
	L69.605,45.735z"/>
<path fill="#B62025" d="M70.001,49.999c0,1.458-0.141,2.883-0.397,4.268l3.369-0.843c0.146-1.122,0.229-2.264,0.229-3.425
	c0-1.16-0.083-2.301-0.229-3.423l-3.367-0.841C69.86,47.117,70.001,48.542,70.001,49.999z"/>
<path fill="#455A64" d="M68.668,57.776c-0.966,2.731-2.427,5.228-4.273,7.386l7,2l2.5-4.33L68.668,57.776z"/>
<path fill="#455A64" d="M68.666,42.218l5.229-5.057l-2.5-4.329l-6.999,2.005C66.241,36.993,67.701,39.487,68.666,42.218z"/>
<path fill="#263238" d="M67.728,66.114c1.386-1.808,2.546-3.795,3.436-5.925l-2.495-2.413c-0.966,2.731-2.427,5.228-4.273,7.386
	L67.728,66.114z"/>
<path fill="#263238" d="M64.396,34.837c1.846,2.156,3.306,4.65,4.271,7.381l2.496-2.413c-0.891-2.129-2.051-4.116-3.438-5.922
	L64.396,34.837z"/>
<path fill="#FFF8E1" d="M46.666,26.666c3.161,0,6.172,0.632,8.921,1.77l-1.473-11.769H39.219l-1.471,11.768
	C40.496,27.297,43.507,26.666,46.666,26.666z"/>
<path fill="#FFEBB2" d="M55.029,23.979c-2.638-0.85-5.446-1.314-8.363-1.314c-1.431,0-2.835,0.115-4.207,0.33l0.791-6.329h-4.031
	l-1.471,11.768c2.748-1.138,5.759-1.769,8.918-1.769c3.161,0,6.172,0.632,8.921,1.77L55.029,23.979z"/>
<path fill="#FFEBB2" d="M55.029,76.02c-2.638,0.85-5.447,1.313-8.363,1.313c-1.431,0-2.835-0.114-4.208-0.329l0.791,6.328h-4.031
	l-1.471-11.768c2.748,1.138,5.759,1.769,8.918,1.769c3.16,0,6.172-0.632,8.921-1.769L55.029,76.02z"/>
<path fill="#F4F5F5" d="M63.334,49.999c0,9.208-7.461,16.668-16.668,16.668C37.461,66.667,30,59.207,30,49.999
	c0-9.205,7.461-16.666,16.667-16.666C55.873,33.333,63.334,40.794,63.334,49.999z"/>
<path fill="#BDBCBC" d="M46.666,26.666c-12.886,0-23.333,10.444-23.333,23.333c0,12.886,10.447,23.335,23.333,23.335
	c12.887,0,23.335-10.449,23.335-23.335C70.001,37.109,59.553,26.666,46.666,26.666z M46.666,66.667
	C37.461,66.667,30,59.207,30,49.999c0-9.205,7.461-16.666,16.667-16.666c9.207,0,16.668,7.461,16.668,16.666
	C63.334,59.207,55.873,66.667,46.666,66.667z"/>
<path fill="#455A64" d="M44.166,66.461c0.818,0.123,1.648,0.206,2.5,0.206c0.853,0,1.683-0.083,2.5-0.206v-4.794h-5V66.461z"/>
<path fill="#455A64" d="M30,49.999c0,0.853,0.085,1.683,0.208,2.5H35v-5h-4.792C30.084,48.317,30,49.147,30,49.999z"/>
<path fill="#263238" d="M44.166,66.461c0.818,0.123,1.649,0.206,2.501,0.206c0.851,0,1.684-0.07,2.5-0.193v-2.651
	c-1.747-0.034-3.425-0.337-5-0.868V66.461z"/>
<path fill="#263238" d="M32.845,47.499h-2.651C30.071,48.315,30,49.148,30,49.999c0,0.852,0.085,1.683,0.208,2.5h3.506
	C33.182,50.924,32.879,49.247,32.845,47.499z"/>
<path fill="#E0E0E0" d="M44.166,62.954c-4.914-1.659-8.793-5.54-10.452-10.455h-3.506c1.086,7.2,6.761,12.875,13.958,13.962V62.954z
	"/>
<path fill="#E0E0E0" d="M32.845,47.499c-0.002-0.11-0.017-0.217-0.017-0.329c0-3.881,1.337-7.443,3.562-10.275
	c-3.264,2.563-5.547,6.314-6.196,10.604H32.845z"/>
<path fill="#E0E0E0" d="M49.495,63.839c-0.111,0-0.218-0.014-0.329-0.017v2.651c4.291-0.648,8.042-2.932,10.606-6.196
	C56.939,62.502,53.377,63.839,49.495,63.839z"/>
<polygon fill="#455A64" points="49.167,47.499 49.167,36.666 44.166,36.666 44.166,52.499 56.668,52.499 56.668,47.499 "/>
<rect x="49.167" y="47.499" fill="#263238" width="3.2" height="5"/>
</svg>
