<?xml version="1.0" encoding="utf-8"?>
<!-- Generator: Adobe Illustrator 16.0.0, SVG Export Plug-In . SVG Version: 6.00 Build 0)  -->
<!DOCTYPE svg PUBLIC "-//W3C//DTD SVG 1.0//EN" "http://www.w3.org/TR/2001/REC-SVG-20010904/DTD/svg10.dtd">
<svg version="1.0" id="Layer_1" xmlns="http://www.w3.org/2000/svg" xmlns:xlink="http://www.w3.org/1999/xlink" x="0px" y="0px"
	 width="100px" height="100px" viewBox="0 0 100 100" enable-background="new 0 0 100 100" xml:space="preserve">
<path fill="#BDBCBC" d="M55.002,83.334h-6.67V71.401c-2.37-0.368-4.615-1.111-6.667-2.181v14.113c0,3.664,3.002,6.666,6.667,6.666
	h6.67c3.664,0,6.666-3.002,6.666-6.666V69.22c-2.052,1.069-4.297,1.813-6.666,2.182V83.334z"/>
<path fill="#BDBCBC" d="M55.002,10h-6.67c-3.664,0-6.667,3.001-6.667,6.667V30.78c2.052-1.069,4.297-1.813,6.667-2.181V16.667h6.67
	V28.6c2.369,0.368,4.614,1.112,6.666,2.181V16.667C61.668,13.001,58.666,10,55.002,10z"/>
<path fill="#9D9D9D" d="M41.666,30.78c2.052-1.069,4.297-1.813,6.667-2.181v-4.042c-2.333,0.304-4.571,0.916-6.667,1.805V30.78z"/>
<path fill="#9D9D9D" d="M48.332,75.443v-4.042c-2.37-0.368-4.615-1.111-6.667-2.181v4.418C43.761,74.528,45.999,75.14,48.332,75.443
	z"/>
<path fill="#9D9D9D" d="M55.002,24.557V28.6c2.369,0.368,4.614,1.112,6.666,2.181v-4.418C59.573,25.473,57.335,24.862,55.002,24.557
	z"/>
<path fill="#9D9D9D" d="M61.668,69.22c-2.052,1.069-4.297,1.813-6.666,2.182v4.042c2.333-0.304,4.571-0.915,6.666-1.805V69.22z"/>
<path fill="#455A64" d="M29.999,49.999c0-1.133,0.088-2.246,0.256-3.333h-3.59v6.667h3.59
	C30.087,52.246,29.999,51.133,29.999,49.999z"/>
<path fill="#F4F5F5" d="M51.666,28.333c1.135,0,2.249,0.088,3.336,0.256V16.667h-6.67v11.922
	C49.419,28.421,50.532,28.333,51.666,28.333z"/>
<path fill="#F4F5F5" d="M51.666,71.667c-1.134,0-2.247-0.087-3.334-0.255v11.922h6.67V71.412
	C53.915,71.58,52.801,71.667,51.666,71.667z"/>
<path fill="#E0E0E0" d="M48.332,71.412v4.031c1.093,0.144,2.204,0.224,3.334,0.224c1.132,0,2.242-0.08,3.336-0.224v-4.031
	c-1.087,0.168-2.201,0.255-3.336,0.255C50.532,71.667,49.419,71.58,48.332,71.412z"/>
<path fill="#E0E0E0" d="M51.666,24.333c-1.13,0-2.241,0.082-3.334,0.224v4.032c1.087-0.167,2.2-0.256,3.334-0.256
	c1.135,0,2.249,0.088,3.336,0.256v-4.032C53.908,24.415,52.798,24.333,51.666,24.333z"/>
<path fill="#E1F3FC" d="M66.668,49.999C66.668,58.289,59.955,65,51.666,65c-8.284,0-15-6.711-15-15.001
	c0-8.287,6.716-14.999,15-14.999C59.955,35,66.668,41.712,66.668,49.999z"/>
<path fill="#2CABE1" d="M51.666,28.333c-11.967,0-21.667,9.7-21.667,21.666c0,11.968,9.7,21.668,21.667,21.668
	c11.968,0,21.668-9.7,21.668-21.668C73.334,38.033,63.634,28.333,51.666,28.333z M51.666,65c-8.284,0-15-6.711-15-15.001
	c0-8.287,6.716-14.999,15-14.999c8.289,0,15.002,6.712,15.002,14.999C66.668,58.289,59.955,65,51.666,65z"/>
<polygon fill="#455A64" points="49.167,38.332 49.167,47.499 43.332,47.499 43.332,52.499 54.166,52.499 54.166,38.332 "/>
<path fill="#455A64" d="M49.167,64.775c0.815,0.137,1.646,0.225,2.5,0.225c0.854,0,1.686-0.088,2.5-0.225v-4.773h-5V64.775z"/>
<path fill="#455A64" d="M61.668,52.499h4.775c0.137-0.813,0.225-1.646,0.225-2.5c0-0.853-0.088-1.685-0.225-2.5h-4.775V52.499z"/>
<path fill="#263238" d="M62.849,52.499h3.595c0.137-0.813,0.225-1.646,0.225-2.5c0-0.851-0.075-1.686-0.213-2.5h-2.633
	C63.785,49.259,63.441,50.939,62.849,52.499z"/>
<path fill="#263238" d="M49.167,64.787C49.98,64.925,50.814,65,51.669,65c0.853,0,1.684-0.088,2.497-0.225v-3.594
	c-1.559,0.594-3.24,0.937-5,0.975V64.787z"/>
<path fill="#B4E3F9" d="M49.167,62.156c-0.109,0.002-0.216,0.016-0.327,0.016c-3.422,0-6.565-1.157-9.088-3.084
	c2.259,2.959,5.588,5.055,9.415,5.699V62.156z"/>
<path fill="#B4E3F9" d="M63.822,47.499h2.633c-0.645-3.826-2.74-7.156-5.699-9.416c1.926,2.524,3.084,5.667,3.084,9.087
	C63.84,47.282,63.826,47.389,63.822,47.499z"/>
<path fill="#B4E3F9" d="M62.849,52.499c-1.52,3.995-4.688,7.163-8.683,8.683v3.594c6.28-1.054,11.223-5.995,12.277-12.276H62.849z"
	/>
<rect x="45.966" y="47.499" fill="#263238" width="3.201" height="5"/>
</svg>
