<?xml version="1.0" encoding="utf-8"?>
<!-- Generator: Adobe Illustrator 16.0.0, SVG Export Plug-In . SVG Version: 6.00 Build 0)  -->
<!DOCTYPE svg PUBLIC "-//W3C//DTD SVG 1.0//EN" "http://www.w3.org/TR/2001/REC-SVG-20010904/DTD/svg10.dtd">
<svg version="1.0" id="Layer_1" xmlns="http://www.w3.org/2000/svg" xmlns:xlink="http://www.w3.org/1999/xlink" x="0px" y="0px"
	 width="100px" height="100px" viewBox="0 0 100 100" enable-background="new 0 0 100 100" xml:space="preserve">
<path fill="#EEEAE8" d="M66.502,33.496c1.639,1.638,2.978,3.462,4.027,5.401L90,19.427v-9.426h-9.427L61.104,29.47
	C63.041,30.519,64.864,31.858,66.502,33.496z"/>
<path fill="#455A64" d="M33.501,33.499c0.801-0.801,1.647-1.527,2.528-2.187l-3.707-3.708l-4.714,4.716l3.706,3.706
	C31.975,35.146,32.701,34.299,33.501,33.499z"/>
<path fill="#C3996B" d="M70.524,38.899c1.864,3.447,2.804,7.264,2.806,11.083c0.005-2.978,1.214-5.674,3.168-7.627L90,28.854v-9.427
	L70.524,38.899z"/>
<path fill="#C3996B" d="M61.097,29.473l19.473-19.472h-9.427L57.638,23.502c-1.952,1.952-4.651,3.162-7.633,3.164
	C53.826,26.667,57.646,27.605,61.097,29.473z"/>
<path fill="#C3996B" d="M26.667,50.035c-0.01,2.967-1.216,5.657-3.162,7.602L10,71.139l0.003,9.426l19.471-19.47
	C27.611,57.654,26.673,53.846,26.667,50.035z"/>
<path fill="#C3996B" d="M38.899,70.522L19.43,89.992l9.427,0.007L42.362,76.49c1.936-1.937,4.608-3.139,7.559-3.16
	C46.122,73.317,42.328,72.38,38.899,70.522z"/>
<path fill="#EEEAE8" d="M33.501,66.497c-1.639-1.64-2.978-3.464-4.028-5.402l-19.471,19.47v9.427l9.427,0.001l19.469-19.47
	C36.961,69.474,35.139,68.135,33.501,66.497z"/>
<path fill="#FFF8E1" d="M61.785,61.784c-6.511,6.509-17.06,6.509-23.57,0c-6.51-6.51-6.51-17.065,0-23.572
	c6.51-6.507,17.06-6.507,23.57,0C68.295,44.719,68.295,55.274,61.785,61.784z"/>
<path fill="#FFC00E" d="M66.281,33.286c-9.229-8.992-24.001-8.8-32.993,0.429c-8.995,9.228-8.802,24.001,0.43,32.995
	c9.229,8.994,24.003,8.803,32.993-0.43C75.702,57.049,75.51,42.276,66.281,33.286z M61.938,61.63
	c-6.426,6.594-16.974,6.73-23.568,0.307c-6.594-6.425-6.731-16.979-0.307-23.57c6.425-6.591,16.974-6.728,23.568-0.306
	C68.225,44.481,68.361,55.035,61.938,61.63z"/>
<polygon fill="#455A64" points="52.5,47.497 52.502,41.663 47.501,41.665 47.501,52.498 63.331,52.498 63.334,47.495 "/>
<path fill="#455A64" d="M61.785,38.212c-0.603-0.602-1.249-1.13-1.915-1.621l-3.388,3.388l3.535,3.535l3.389-3.389
	C62.916,39.461,62.388,38.814,61.785,38.212z"/>
<path fill="#455A64" d="M36.593,59.868c0.491,0.665,1.019,1.313,1.622,1.916c0.602,0.602,1.248,1.128,1.912,1.619l3.39-3.39
	l-3.534-3.535L36.593,59.868z"/>
<path fill="#455A64" d="M36.594,40.126l3.389,3.389l3.534-3.535l-3.387-3.388c-0.666,0.491-1.313,1.019-1.915,1.621
	C37.612,38.814,37.084,39.461,36.594,40.126z"/>
<path fill="#263238" d="M38.215,61.784c0.601,0.601,1.239,1.14,1.902,1.628l1.875-1.874c-1.21-1.259-2.183-2.66-2.92-4.149
	l-2.479,2.479C37.084,60.533,37.612,61.182,38.215,61.784z"/>
<path fill="#263238" d="M40.12,36.582c-0.664,0.49-1.304,1.029-1.905,1.63c-0.603,0.602-1.13,1.249-1.621,1.914l2.479,2.479
	c0.738-1.49,1.71-2.89,2.921-4.148L40.12,36.582z"/>
<path fill="#455A64" d="M63.407,59.868l-3.39-3.39l-3.535,3.535l3.391,3.39c0.664-0.49,1.31-1.018,1.912-1.619
	C62.388,61.182,62.916,60.533,63.407,59.868z"/>
<path fill="#FFEBB2" d="M39.072,57.389c-2.302-4.648-2.301-10.137,0-14.784l-2.479-2.479c-4.323,5.855-4.323,13.884-0.001,19.742
	L39.072,57.389z"/>
<path fill="#FFEBB2" d="M41.994,38.456c0.077-0.08,0.142-0.166,0.221-0.244c2.745-2.744,6.209-4.316,9.785-4.746
	c-4.122-0.496-8.388,0.542-11.88,3.116L41.994,38.456z"/>
<path fill="#FFEBB2" d="M41.992,61.538l-1.875,1.874C43.61,65.99,47.878,67.027,52,66.531c-3.576-0.429-7.04-2.002-9.785-4.747
	C42.136,61.705,42.069,61.618,41.992,61.538z"/>
<rect x="52.499" y="47.497" fill="#263238" width="3.2" height="5"/>
<path fill="#A87C4F" d="M73.33,49.982c0.005-2.868,1.134-5.468,2.962-7.401c-0.643-2.294-1.586-4.52-2.837-6.612l-2.931,2.931
	C72.389,42.347,73.328,46.163,73.33,49.982z"/>
<path fill="#A87C4F" d="M64.031,26.538c-2.067-1.241-4.285-2.195-6.603-2.847c-1.934,1.837-4.544,2.973-7.424,2.974
	c3.821,0.001,7.642,0.94,11.092,2.807L64.031,26.538z"/>
<path fill="#D7CCC8" d="M67.343,28.887l18.887-18.886h-5.656L61.104,29.47c1.938,1.049,3.761,2.388,5.398,4.026
	c1.639,1.638,2.978,3.462,4.027,5.401l2.927-2.927c-1.188-1.989-2.646-3.858-4.383-5.549C68.518,29.88,67.936,29.374,67.343,28.887z
	"/>
<path fill="#D7CCC8" d="M28.889,67.334L10.003,86.221v-5.656l19.469-19.47c1.049,1.938,2.389,3.76,4.026,5.397
	c1.639,1.639,3.463,2.979,5.402,4.027l-2.927,2.928c-1.989-1.188-3.858-2.647-5.55-4.383C29.882,68.509,29.376,67.928,28.889,67.334
	z"/>
<circle fill="#C3996B" cx="28.199" cy="71.799" r="2.5"/>
<path fill="#C3996B" d="M21.128,81.37c-1.381,0-2.502-1.12-2.502-2.502c0.002-1.378,1.121-2.497,2.5-2.499
	c1.381,0,2.501,1.121,2.501,2.502C23.626,80.25,22.507,81.368,21.128,81.37z"/>
<path fill="#A87C4F" d="M26.594,50.035c-0.005,2.868-1.134,5.467-2.962,7.4c0.643,2.294,1.586,4.521,2.837,6.612l2.931-2.932
	C27.535,57.67,26.597,53.854,26.594,50.035z"/>
<path fill="#A87C4F" d="M35.893,73.479c2.067,1.241,4.286,2.195,6.603,2.847c1.934-1.836,4.544-2.973,7.425-2.975
	c-3.822-0.001-7.643-0.939-11.093-2.807L35.893,73.479z"/>
<path fill="#A87C4F" d="M21.027,78.868c0.001-0.941,0.531-1.753,1.302-2.179c-0.358-0.198-0.764-0.32-1.202-0.32
	c-1.379,0.002-2.498,1.121-2.5,2.499c0,1.382,1.121,2.502,2.502,2.502c0.437-0.001,0.841-0.123,1.199-0.32
	C21.556,80.623,21.027,79.812,21.027,78.868z"/>
<path fill="#A87C4F" d="M28.1,71.799c0.001-0.941,0.531-1.753,1.302-2.178c-0.358-0.199-0.764-0.322-1.203-0.322
	c-1.378,0.004-2.497,1.122-2.5,2.5c0,1.382,1.122,2.502,2.502,2.502c0.437-0.001,0.841-0.123,1.198-0.32
	C28.628,73.554,28.1,72.742,28.1,71.799z"/>
</svg>
