<?xml version="1.0" encoding="utf-8"?>
<!-- Generator: Adobe Illustrator 16.0.0, SVG Export Plug-In . SVG Version: 6.00 Build 0)  -->
<!DOCTYPE svg PUBLIC "-//W3C//DTD SVG 1.0//EN" "http://www.w3.org/TR/2001/REC-SVG-20010904/DTD/svg10.dtd">
<svg version="1.0" id="Layer_1" xmlns="http://www.w3.org/2000/svg" xmlns:xlink="http://www.w3.org/1999/xlink" x="0px" y="0px"
	 width="100px" height="100px" viewBox="0 0 100 100" enable-background="new 0 0 100 100" xml:space="preserve">
<path fill="#FFC00E" d="M60.001,74.721v8.61H40v-8.61c-2.419-0.98-4.661-2.304-6.667-3.911v12.521C33.334,86.998,36.335,90,40,90h20
	c3.665,0,6.665-3.002,6.665-6.669V70.81C64.662,72.417,62.42,73.74,60.001,74.721z"/>
<path fill="#FFF8E1" d="M49.999,76.666c-3.537,0-6.91-0.695-9.999-1.945v8.61h20v-8.61C56.912,75.971,53.538,76.666,49.999,76.666z"
	/>
<path fill="#FFC00E" d="M40,25.278v-8.613h20v8.613c2.419,0.979,4.661,2.303,6.665,3.912V16.666c0-3.666-3-6.666-6.665-6.666H40
	c-3.667,0-6.667,3-6.667,6.666V29.19C35.339,27.581,37.581,26.257,40,25.278z"/>
<path fill="#FFF8E1" d="M49.999,23.332c3.539,0,6.913,0.695,10.002,1.946v-8.613H40v8.613
	C43.089,24.027,46.462,23.332,49.999,23.332z"/>
<path fill="#F4F5F5" d="M30,50c0,11.041,8.954,20,20,20c11.041,0,20-8.959,20-20c0-11.049-8.959-20-20-20C38.954,30,30,38.951,30,50
	z"/>
<path fill="#E0E0E0" d="M32.829,52.828c0-11.047,8.959-19.999,20-19.999c4.803,0,9.209,1.693,12.656,4.515
	C61.818,32.862,56.244,30,50.001,30c-11.041,0-20,8.954-20,19.999c0,6.242,2.864,11.816,7.346,15.484
	C34.524,62.036,32.829,57.628,32.829,52.828z"/>
<path fill="#BDBCBC" d="M49.999,23.332c-14.727,0-26.666,11.94-26.666,26.667c0,14.728,11.939,26.667,26.666,26.667
	c14.729,0,26.667-11.939,26.667-26.667C76.666,35.272,64.728,23.332,49.999,23.332z M50.001,70c-11.047,0-20-8.959-20-20
	c0-11.049,8.954-20,20-20c11.041,0,20,8.951,20,20C70.001,61.041,61.042,70,50.001,70z"/>
<path fill="#455A64" d="M53.334,46.666V35h-6.667v15c0,1.842,1.494,3.331,3.334,3.331h15v-6.666H53.334z"/>
<path fill="#455A64" d="M53.334,61.664c0,1.842-1.492,3.336-3.333,3.336c-1.841,0-3.334-1.494-3.334-3.336
	c0-1.838,1.493-3.333,3.334-3.333C51.842,58.331,53.334,59.826,53.334,61.664z"/>
<circle fill="#455A64" cx="38.334" cy="50" r="3.333"/>
<path fill="#FFEBB2" d="M40,74.721v4.262c3.136,1.086,6.499,1.684,9.999,1.684c3.503,0,6.865-0.598,10.002-1.684v-4.262
	c-3.089,1.25-6.463,1.945-10.002,1.945C46.462,76.666,43.089,75.971,40,74.721z"/>
<path fill="#FFEBB2" d="M49.999,19.332c-3.5,0-6.862,0.598-9.999,1.683v4.264c3.088-1.251,6.462-1.946,9.999-1.946
	c3.539,0,6.913,0.695,10.002,1.946v-4.262C56.864,19.93,53.502,19.332,49.999,19.332z"/>
<path fill="#F68E1E" d="M33.334,29.19c2.005-1.609,4.247-2.933,6.667-3.912v-4.264c-2.367,0.82-4.602,1.919-6.667,3.262V29.19z"/>
<path fill="#F68E1E" d="M40,78.982v-4.262c-2.419-0.98-4.661-2.304-6.667-3.911v4.912C35.399,77.064,37.634,78.164,40,78.982z"/>
<path fill="#F68E1E" d="M60.001,21.017v4.262c2.419,0.979,4.661,2.303,6.665,3.912v-4.912
	C64.603,22.935,62.366,21.834,60.001,21.017z"/>
<path fill="#F68E1E" d="M66.666,70.81c-2.004,1.607-4.246,2.931-6.665,3.911v4.262c2.365-0.819,4.602-1.918,6.665-3.262V70.81z"/>
<rect x="61.001" y="46.666" fill="#263238" width="4" height="6.666"/>
<rect x="46.667" y="35" fill="#263238" width="6.667" height="4"/>
<path fill="#263238" d="M37.263,52.263c0-1.841,1.494-3.333,3.333-3.333c0.323,0,0.629,0.06,0.924,0.146
	c-0.403-1.388-1.671-2.409-3.188-2.41C36.494,46.666,35,48.159,35,50c0,1.518,1.022,2.784,2.409,3.188
	C37.323,52.891,37.263,52.586,37.263,52.263z"/>
<path fill="#263238" d="M48.93,63.93c0-1.842,1.494-3.334,3.334-3.334c0.322,0,0.628,0.06,0.923,0.146
	c-0.403-1.388-1.67-2.409-3.188-2.411c-1.838,0-3.332,1.494-3.332,3.335c0,1.519,1.022,2.784,2.409,3.188
	C48.99,64.558,48.93,64.253,48.93,63.93z"/>
</svg>
