<?xml version="1.0" encoding="utf-8"?>
<!-- Generator: Adobe Illustrator 16.0.0, SVG Export Plug-In . SVG Version: 6.00 Build 0)  -->
<!DOCTYPE svg PUBLIC "-//W3C//DTD SVG 1.0//EN" "http://www.w3.org/TR/2001/REC-SVG-20010904/DTD/svg10.dtd">
<svg version="1.0" id="Layer_1" xmlns="http://www.w3.org/2000/svg" xmlns:xlink="http://www.w3.org/1999/xlink" x="0px" y="0px"
	 width="100px" height="100px" viewBox="0 0 100 100" enable-background="new 0 0 100 100" xml:space="preserve">
<path fill="#FFF3E1" d="M23.333,49.999c0,21.871,7.428,33.335,10,33.335h5.788c-4.493-7.166-7.455-19.418-7.455-33.335
	c0-13.917,2.962-26.167,7.454-33.332h-5.787C30.761,16.667,23.333,28.125,23.333,49.999z"/>
<path fill="#F68C1E" d="M76.666,73.334h-6.809c-2.294,6.605-5.126,10-6.523,10h-5.793c1.682-2.681,3.148-6.074,4.326-10h-5.2
	c-0.599,0-1.177-0.087-1.729-0.237c-2.31,6.761-5.192,10.237-6.605,10.237c-2.572,0-10-11.465-10-33.335
	c0-21.874,7.428-33.332,10-33.332c1.413,0,4.296,3.475,6.607,10.236c0.552-0.15,1.129-0.237,1.728-0.237h5.202
	c-1.179-3.925-2.645-7.318-4.326-9.999h5.791c1.397,0,4.23,3.395,6.524,9.999h6.808c0.069,0,0.137,0.009,0.204,0.011
	C73.846,16.581,68.912,10,63.334,10H33.333c-9.206,0-16.667,17.904-16.667,39.999C16.667,72.091,24.127,90,33.333,90h30.001
	c5.577,0,10.511-6.58,13.535-16.677C76.802,73.326,76.735,73.334,76.666,73.334z M33.333,83.334c-2.572,0-10-11.465-10-33.335
	c0-21.874,7.428-33.332,10-33.332h5.787c-4.492,7.165-7.454,19.415-7.454,33.332c0,13.917,2.962,26.169,7.455,33.335H33.333z"/>
<path fill="#E45325" d="M56.667,26.666h5.196c-0.421-1.402-0.877-2.741-1.369-4h-3.827c-1.114,0-2.189,0.174-3.2,0.492
	c0.504,1.107,0.999,2.36,1.473,3.745C55.491,26.753,56.068,26.666,56.667,26.666z"/>
<path fill="#E45325" d="M76.666,26.666c0.068,0,0.135,0.009,0.202,0.011c-0.422-1.406-0.879-2.749-1.371-4.011h-7.261
	c0.552,1.164,1.098,2.505,1.618,4H76.666z"/>
<path fill="#E45325" d="M56.667,73.334c-0.599,0-1.176-0.087-1.729-0.237c-0.473,1.385-0.969,2.638-1.473,3.745
	c1.012,0.319,2.087,0.492,3.201,0.492h3.827c0.491-1.258,0.947-2.598,1.368-4H56.667z"/>
<path fill="#E45325" d="M76.666,73.334h-6.813c-0.52,1.496-1.066,2.836-1.618,4h7.261c0.492-1.262,0.949-2.604,1.371-4.01
	C76.8,73.326,76.734,73.334,76.666,73.334z"/>
<path fill="#FFF3E1" d="M69.858,26.666c-2.294-6.604-5.127-9.999-6.524-9.999h-5.791c1.682,2.681,3.147,6.074,4.326,9.999H69.858z"
	/>
<path fill="#FFF3E1" d="M61.867,73.334c-1.178,3.926-2.645,7.319-4.326,10h5.793c1.397,0,4.229-3.395,6.523-10H61.867z"/>
<path fill="#FFDFB1" d="M60.493,77.334h7.737c0.555-1.168,1.105-2.496,1.627-4h-7.99C61.445,74.739,60.985,76.073,60.493,77.334z"/>
<path fill="#FFDFB1" d="M61.869,26.666h7.989c-0.521-1.503-1.072-2.831-1.627-4h-7.737C60.986,23.927,61.447,25.261,61.869,26.666z"
	/>
<rect x="56.667" y="33.333" fill="#E0F2F7" width="19.999" height="33.334"/>
<path fill="#455A64" d="M76.666,26.666H56.667c-3.667,0-6.668,3.002-6.668,6.667v33.334c0,3.665,3.001,6.667,6.668,6.667h19.999
	c3.665,0,6.668-3.002,6.668-6.667V33.333C83.334,29.667,80.331,26.666,76.666,26.666z M76.666,66.667H56.667V33.333h19.999V66.667z"
	/>
<rect x="63.334" y="40" fill="#E53A34" width="6.666" height="6.666"/>
<rect x="63.334" y="53.332" fill="#7CB342" width="6.666" height="6.67"/>
<rect x="63.334" y="40" fill="#B62025" width="3.199" height="6.666"/>
<rect x="63.334" y="53.332" fill="#568B3F" width="3.199" height="6.67"/>
<path fill="#E45325" d="M37.005,20.667h7.465c1.528-2.652,2.981-4,3.863-4H39.12C38.37,17.863,37.663,19.202,37.005,20.667z"/>
<path fill="#E45325" d="M22.005,20.667h7.465c1.528-2.652,2.981-4,3.863-4H24.12C23.37,17.863,22.663,19.202,22.005,20.667z"/>
<path fill="#FFDFB1" d="M29.47,20.667h7.543c0.657-1.459,1.358-2.806,2.107-4h-5.787C32.451,16.667,30.998,18.015,29.47,20.667z"/>
<path fill="#E45325" d="M37.005,79.334h7.465c1.528,2.652,2.981,4,3.863,4H39.12C38.37,82.138,37.663,80.799,37.005,79.334z"/>
<path fill="#E45325" d="M22.005,79.334h7.465c1.528,2.652,2.981,4,3.863,4H24.12C23.37,82.138,22.663,80.799,22.005,79.334z"/>
<path fill="#FFDFB1" d="M29.47,79.334h7.543c0.657,1.46,1.358,2.807,2.107,4h-5.787C32.451,83.334,30.998,81.986,29.47,79.334z"/>
<polygon fill="#B6E2EB" points="60.667,62.667 60.667,33.333 56.667,33.333 56.667,66.667 76.666,66.667 76.666,62.667 "/>
</svg>
