<?xml version="1.0" encoding="utf-8"?>
<!-- Generator: Adobe Illustrator 16.0.0, SVG Export Plug-In . SVG Version: 6.00 Build 0)  -->
<!DOCTYPE svg PUBLIC "-//W3C//DTD SVG 1.0//EN" "http://www.w3.org/TR/2001/REC-SVG-20010904/DTD/svg10.dtd">
<svg version="1.0" id="Layer_1" xmlns="http://www.w3.org/2000/svg" xmlns:xlink="http://www.w3.org/1999/xlink" x="0px" y="0px"
	 width="100px" height="100px" viewBox="0 0 100 100" enable-background="new 0 0 100 100" xml:space="preserve">
<path fill="#BDBCBC" d="M42.132,16.666h15.733l1.689,8.438c2.836,1.09,5.442,2.648,7.717,4.586L63.334,10H36.667l-3.938,19.688
	c2.274-1.936,4.879-3.494,7.715-4.584L42.132,16.666z"/>
<path fill="#BDBCBC" d="M59.555,74.896l-1.689,8.438H42.132l-1.688-8.438c-2.837-1.092-5.441-2.65-7.716-4.588L36.667,90h26.667
	l3.938-19.692C64.997,72.245,62.393,73.804,59.555,74.896z"/>
<path fill="#F4F5F5" d="M50,76.666c-3.369,0-6.588-0.63-9.555-1.771l1.688,8.438h15.733l1.689-8.438
	C56.588,76.036,53.369,76.666,50,76.666z"/>
<path fill="#F4F5F5" d="M50,23.332c3.368,0,6.588,0.631,9.555,1.771l-1.689-8.438H42.132l-1.688,8.438
	C43.412,23.963,46.631,23.332,50,23.332z"/>
<path fill="#455A64" d="M50,23.332c-14.727,0-26.667,11.934-26.667,26.667c0,14.728,11.94,26.667,26.667,26.667
	c14.727,0,26.667-11.939,26.667-26.667C76.667,35.266,64.727,23.332,50,23.332z M50,70c-11.047,0-20-8.958-20-20.001
	c0-11.048,8.953-20,20-20c11.042,0,20,8.952,20,20C70,61.042,61.042,70,50,70z"/>
<path fill="#E0E0E0" d="M41.348,20.584l-0.904,4.519c2.967-1.14,6.187-1.771,9.555-1.771c3.368,0,6.588,0.631,9.555,1.771
	l-0.904-4.52c-2.746-0.808-5.647-1.251-8.651-1.251C46.995,19.332,44.094,19.775,41.348,20.584z"/>
<path fill="#E0E0E0" d="M58.65,79.416l0.904-4.521c-2.967,1.141-6.186,1.771-9.555,1.771c-3.369,0-6.588-0.63-9.555-1.771
	l0.904,4.521c2.746,0.809,5.647,1.25,8.651,1.25C53.003,80.666,55.904,80.225,58.65,79.416z"/>
<path fill="#9D9D9D" d="M40.444,74.896c-2.837-1.092-5.441-2.65-7.716-4.588l1.153,5.766c2.304,1.43,4.811,2.56,7.467,3.343
	L40.444,74.896z"/>
<path fill="#9D9D9D" d="M58.65,79.416c2.656-0.783,5.164-1.913,7.469-3.344l1.152-5.765c-2.274,1.938-4.879,3.496-7.717,4.588
	L58.65,79.416z"/>
<path fill="#9D9D9D" d="M59.555,25.103c2.836,1.09,5.442,2.648,7.717,4.586l-1.152-5.763c-2.305-1.43-4.813-2.561-7.469-3.343
	L59.555,25.103z"/>
<path fill="#9D9D9D" d="M41.348,20.584c-2.656,0.781-5.163,1.912-7.466,3.34l-1.153,5.763c2.274-1.936,4.879-3.494,7.715-4.584
	L41.348,20.584z"/>
<path fill="#CFD8DB" d="M70,49.999C70,61.042,61.042,70,50,70c-11.047,0-20-8.958-20-20.001c0-11.048,8.953-20,20-20
	C61.042,29.999,70,38.951,70,49.999z"/>
<path fill="#AFBDC4" d="M33.394,53.394c0-11.047,8.958-20,20.002-20c4.657,0,8.94,1.597,12.339,4.266
	c-3.661-4.662-9.344-7.661-15.734-7.661c-11.043,0-20.001,8.953-20.001,20c0,6.386,3,12.072,7.662,15.733
	C34.991,62.331,33.394,58.052,33.394,53.394z"/>
</svg>
