<?xml version="1.0" encoding="utf-8"?>
<!-- Generator: Adobe Illustrator 16.0.0, SVG Export Plug-In . SVG Version: 6.00 Build 0)  -->
<!DOCTYPE svg PUBLIC "-//W3C//DTD SVG 1.0//EN" "http://www.w3.org/TR/2001/REC-SVG-20010904/DTD/svg10.dtd">
<svg version="1.0" id="Layer_1" xmlns="http://www.w3.org/2000/svg" xmlns:xlink="http://www.w3.org/1999/xlink" x="0px" y="0px"
	 width="100px" height="100px" viewBox="0 0 100 100" enable-background="new 0 0 100 100" xml:space="preserve">
<path fill="#FFC00E" d="M71.384,28.301L68.334,10h-6.667v11.278c-4.054-1.886-8.569-2.945-13.334-2.945
	c-4.765,0-9.28,1.06-13.334,2.945V10h-6.666l-3.05,18.3c-5.339,5.668-8.617,13.299-8.617,21.699c0,8.402,3.278,16.033,8.617,21.702
	l3.05,18.3h6.666V78.722c4.054,1.886,8.569,2.944,13.334,2.944c4.765,0,9.28-1.059,13.334-2.944V90h6.667l3.05-18.301
	C76.723,66.03,80,58.399,80,49.999C80,41.6,76.723,33.97,71.384,28.301z M48.333,75c-13.806,0-25-11.19-25-25.001
	c0-13.807,11.194-24.999,25-24.999c13.81,0,25.001,11.191,25.001,24.999C73.334,63.81,62.143,75,48.333,75z"/>
<path fill="#455A64" d="M80,43.332h-0.709C79.752,45.483,80,47.712,80,49.999c0,2.289-0.248,4.518-0.709,6.668H80
	c1.83,0,3.334-1.503,3.334-3.335v-6.667C83.334,44.831,81.83,43.332,80,43.332z"/>
<path fill="#FFF8E1" d="M61.667,78.722c-4.054,1.886-8.569,2.944-13.334,2.944c-4.765,0-9.28-1.059-13.334-2.944V90h26.668V78.722z"
	/>
<path fill="#FFEBB2" d="M34.999,78.722v4.35c4.123,1.669,8.621,2.595,13.334,2.595c4.713,0,9.212-0.927,13.334-2.595v-4.35
	c-4.054,1.886-8.569,2.944-13.334,2.944C43.568,81.666,39.053,80.607,34.999,78.722z"/>
<path fill="#FFF8E1" d="M34.999,21.278c4.054-1.886,8.569-2.945,13.334-2.945c4.765,0,9.28,1.06,13.334,2.945V10H34.999V21.278z"/>
<path fill="#FFEBB2" d="M48.333,14.333c-4.713,0-9.211,0.928-13.334,2.596v4.35c4.054-1.886,8.569-2.945,13.334-2.945
	c4.765,0,9.28,1.06,13.334,2.945v-4.35C57.545,15.261,53.046,14.333,48.333,14.333z"/>
<path fill="#F68E1E" d="M25.283,71.7l1.058,6.349c2.618,2.057,5.527,3.755,8.658,5.022v-4.35
	C31.322,77.012,28.03,74.617,25.283,71.7z"/>
<path fill="#F68E1E" d="M61.667,78.722v4.35c3.132-1.268,6.041-2.967,8.659-5.023l1.058-6.349
	C68.637,74.616,65.345,77.012,61.667,78.722z"/>
<path fill="#F68E1E" d="M71.384,28.301l-1.058-6.349c-2.618-2.057-5.527-3.755-8.659-5.023v4.35
	C65.345,22.989,68.637,25.384,71.384,28.301z"/>
<path fill="#F68E1E" d="M34.999,21.278v-4.35c-3.131,1.268-6.04,2.965-8.658,5.023L25.283,28.3
	C28.03,25.384,31.322,22.988,34.999,21.278z"/>
<path fill="#FFF8E1" d="M73.334,49.999C73.334,63.81,62.143,75,48.333,75c-13.806,0-25-11.19-25-25.001
	c0-13.807,11.194-24.999,25-24.999C62.143,25,73.334,36.191,73.334,49.999z"/>
<polygon fill="#455A64" points="64.245,37.623 60.704,34.089 48.333,46.461 40.673,38.802 37.135,42.336 48.333,53.532 "/>
<path fill="#E53A34" d="M33.6,61.193l-4.624,4.627c1.058,1.292,2.242,2.478,3.535,3.536l4.624-4.629L33.6,61.193z"/>
<path fill="#E53A34" d="M66.667,52.499h6.542c0.082-0.821,0.125-1.656,0.125-2.5c0-0.843-0.043-1.676-0.125-2.5h-6.542V52.499z"/>
<path fill="#E53A34" d="M29.999,47.499h-6.541c-0.082,0.823-0.125,1.656-0.125,2.5c0,0.844,0.043,1.679,0.125,2.5h6.541V47.499z"/>
<path fill="#E53A34" d="M63.061,61.193l-3.535,3.534l4.629,4.63c1.293-1.059,2.477-2.242,3.535-3.535L63.061,61.193z"/>
<path fill="#E53A34" d="M33.6,38.802l3.535-3.535l-4.623-4.622c-1.293,1.058-2.478,2.242-3.535,3.534L33.6,38.802z"/>
<path fill="#E53A34" d="M50.833,74.876v-6.542h-5v6.542c0.822,0.081,1.656,0.124,2.5,0.124S50.01,74.957,50.833,74.876z"/>
<path fill="#E53A34" d="M50.833,25.124C50.01,25.043,49.177,25,48.333,25s-1.678,0.043-2.5,0.124v6.542h5V25.124z"/>
<path fill="#B62025" d="M31.261,63.533l-2.284,2.287c1.058,1.292,2.242,2.478,3.535,3.536l2.284-2.288
	C33.487,66.029,32.301,64.842,31.261,63.533z"/>
<path fill="#B62025" d="M65.403,63.536c-1.04,1.309-2.226,2.494-3.535,3.534l2.286,2.287c1.293-1.059,2.477-2.243,3.535-3.535
	L65.403,63.536z"/>
<path fill="#B62025" d="M70.134,49.999c0,0.846-0.054,1.679-0.147,2.5h3.223c0.082-0.821,0.125-1.656,0.125-2.5
	c0-0.843-0.043-1.676-0.125-2.5h-3.223C70.08,48.32,70.134,49.153,70.134,49.999z"/>
<path fill="#B62025" d="M50.833,28.348v-3.224C50.01,25.043,49.177,25,48.333,25s-1.678,0.043-2.5,0.124v3.224
	c0.821-0.095,1.654-0.147,2.5-0.147S50.012,28.253,50.833,28.348z"/>
<path fill="#B62025" d="M26.533,49.999c0-0.845,0.054-1.678,0.148-2.5h-3.223c-0.082,0.823-0.125,1.656-0.125,2.5
	c0,0.844,0.043,1.679,0.125,2.5h3.223C26.586,51.678,26.533,50.845,26.533,49.999z"/>
<path fill="#B62025" d="M50.833,74.876v-3.223c-0.821,0.094-1.654,0.146-2.5,0.146s-1.679-0.053-2.5-0.146v3.223
	c0.822,0.081,1.656,0.124,2.5,0.124S50.01,74.957,50.833,74.876z"/>
<path fill="#B62025" d="M31.263,36.464c1.04-1.309,2.226-2.494,3.535-3.535l-2.285-2.285c-1.293,1.058-2.478,2.242-3.535,3.534
	L31.263,36.464z"/>
<path fill="#FFEBB2" d="M34.798,32.929c3.105-2.467,6.895-4.106,11.035-4.582v-3.224c-5.028,0.5-9.617,2.489-13.32,5.521
	L34.798,32.929z"/>
<path fill="#FFEBB2" d="M31.261,63.533c-2.466-3.105-4.105-6.895-4.58-11.034h-3.223c0.499,5.028,2.488,9.616,5.518,13.32
	L31.261,63.533z"/>
<path fill="#FFEBB2" d="M26.681,47.499c0.475-4.14,2.114-7.93,4.582-11.035l-2.285-2.285c-3.031,3.704-5.021,8.292-5.52,13.32
	H26.681z"/>
<path fill="#FFEBB2" d="M69.986,52.499c-0.477,4.142-2.115,7.931-4.583,11.037l2.286,2.286c3.031-3.704,5.02-8.293,5.52-13.323
	H69.986z"/>
<path fill="#FFEBB2" d="M45.833,71.653c-4.142-0.476-7.932-2.116-11.038-4.585l-2.285,2.286c3.704,3.032,8.294,5.022,13.322,5.521
	V71.653z"/>
<path fill="#FFEBB2" d="M61.868,67.07c-3.105,2.468-6.895,4.107-11.035,4.583v3.223c5.028-0.499,9.617-2.488,13.321-5.519
	L61.868,67.07z"/>
<rect x="49.014" y="44.815" transform="matrix(0.7071 0.7071 -0.7071 0.7071 48.1915 -22.7148)" fill="#263238" width="5.002" height="4"/>
</svg>
