<?xml version="1.0" encoding="utf-8"?>
<!-- Generator: Adobe Illustrator 16.0.0, SVG Export Plug-In . SVG Version: 6.00 Build 0)  -->
<!DOCTYPE svg PUBLIC "-//W3C//DTD SVG 1.0//EN" "http://www.w3.org/TR/2001/REC-SVG-20010904/DTD/svg10.dtd">
<svg version="1.0" id="Layer_1" xmlns="http://www.w3.org/2000/svg" xmlns:xlink="http://www.w3.org/1999/xlink" x="0px" y="0px"
	 width="100px" height="100px" viewBox="0 0 100 100" enable-background="new 0 0 100 100" xml:space="preserve">
<path fill="#FFC00E" d="M51.666,10v6.667h-6.667V10h-6.666v20.78c2.052-1.07,4.294-1.824,6.666-2.191v-5.256h6.667v5.256
	c2.372,0.367,4.615,1.121,6.668,2.191V10H51.666z"/>
<rect x="44.999" y="10" fill="#FFF8E1" width="6.667" height="6.667"/>
<path fill="#FFF8E1" d="M44.999,23.333v5.256c1.087-0.167,2.2-0.256,3.334-0.256c1.133,0,2.246,0.088,3.333,0.256v-5.256H44.999z"/>
<path fill="#FFC00E" d="M51.666,71.412v5.254h-6.667v-5.254c-2.372-0.366-4.614-1.121-6.666-2.191V90h6.666v-6.666h6.667V90h6.668
	V69.221C56.281,70.291,54.038,71.046,51.666,71.412z"/>
<path fill="#FFF8E1" d="M51.666,76.666v-5.254c-1.087,0.168-2.2,0.255-3.333,0.255c-1.134,0-2.247-0.087-3.334-0.255v5.254H51.666z"
	/>
<rect x="44.999" y="83.334" fill="#FFF8E1" width="6.667" height="6.666"/>
<path fill="#FFEBB2" d="M48.333,25.133c-1.131,0-2.242,0.083-3.334,0.23v3.226c1.087-0.167,2.2-0.256,3.334-0.256
	c1.133,0,2.246,0.088,3.333,0.256v-3.226C50.574,25.216,49.463,25.133,48.333,25.133z"/>
<path fill="#FFEBB2" d="M44.999,71.412v3.226c1.092,0.146,2.203,0.229,3.334,0.229c1.13,0,2.241-0.083,3.333-0.229v-3.226
	c-1.087,0.168-2.2,0.255-3.333,0.255C47.199,71.667,46.086,71.58,44.999,71.412z"/>
<path fill="#455A64" d="M29.788,61.209l-2.75,2.308l4.284,5.104l2.756-2.312C32.401,64.842,30.948,63.125,29.788,61.209z"/>
<path fill="#455A64" d="M34.08,33.688l-2.758-2.315l-4.284,5.11l2.75,2.307C30.948,36.874,32.401,35.156,34.08,33.688z"/>
<path fill="#455A64" d="M69.744,46.666c0.168,1.087,0.256,2.2,0.256,3.333c0,1.134-0.088,2.248-0.256,3.333h3.59v-6.667H69.744z"/>
<path fill="#F68E1E" d="M51.666,25.363v3.226c2.372,0.367,4.615,1.121,6.668,2.191v-3.54C56.244,26.319,54.006,25.678,51.666,25.363
	z"/>
<path fill="#F68E1E" d="M51.666,74.638c2.34-0.315,4.578-0.956,6.668-1.878v-3.539c-2.053,1.07-4.296,1.825-6.668,2.191V74.638z"/>
<path fill="#F68E1E" d="M38.333,27.24v3.541c2.052-1.07,4.294-1.824,6.666-2.191v-3.226C42.659,25.678,40.421,26.319,38.333,27.24z"
	/>
<path fill="#F68E1E" d="M38.333,72.761c2.088,0.921,4.326,1.562,6.666,1.877v-3.226c-2.372-0.366-4.614-1.121-6.666-2.191V72.761z"
	/>
<path fill="#E1F3FC" d="M63.334,49.999C63.334,58.289,56.622,65,48.333,65c-8.288,0-15-6.711-15-15.001
	c0-8.287,6.712-14.999,15-14.999C56.622,35,63.334,41.712,63.334,49.999z"/>
<path fill="#2CABE1" d="M48.333,28.333c-11.967,0-21.667,9.7-21.667,21.666c0,11.968,9.7,21.668,21.667,21.668S70,61.967,70,49.999
	C70,38.033,60.3,28.333,48.333,28.333z M48.333,65c-8.288,0-15-6.711-15-15.001c0-8.287,6.712-14.999,15-14.999
	c8.289,0,15.001,6.712,15.001,14.999C63.334,58.289,56.622,65,48.333,65z"/>
<polygon fill="#FFC00E" points="58.347,43.515 54.812,39.98 44.798,49.999 52.453,57.658 55.99,54.12 51.867,49.999 "/>
<rect x="49.63" y="50.397" transform="matrix(-0.7071 -0.7071 0.7071 -0.7071 50.0517 126.527)" fill="#F68E1E" width="3.201" height="5.001"/>
<path fill="#455A64" d="M45.833,64.775c0.814,0.137,1.646,0.225,2.5,0.225c0.853,0,1.684-0.088,2.5-0.225v-4.773h-5V64.775z"/>
<path fill="#455A64" d="M50.833,35.224C50.017,35.087,49.186,35,48.333,35c-0.854,0-1.686,0.087-2.5,0.224V40h5V35.224z"/>
<path fill="#455A64" d="M58.334,52.499h4.775c0.136-0.813,0.225-1.646,0.225-2.5c0-0.853-0.089-1.685-0.225-2.5h-4.775V52.499z"/>
<path fill="#455A64" d="M33.333,49.999c0,0.855,0.088,1.687,0.225,2.5h4.775v-5h-4.775C33.421,48.314,33.333,49.146,33.333,49.999z"
	/>
<path fill="#263238" d="M45.833,38.819c1.559-0.594,3.24-0.937,5-0.975v-2.633C50.021,35.075,49.186,35,48.334,35
	c-0.855,0-1.687,0.087-2.501,0.224V38.819z"/>
<path fill="#263238" d="M33.333,49.999c0,0.853,0.076,1.688,0.212,2.5h2.633c0.038-1.759,0.381-3.439,0.974-5h-3.595
	C33.421,48.314,33.333,49.146,33.333,49.999z"/>
<path fill="#B4E3F9" d="M45.833,35.224c-6.281,1.056-11.221,5.998-12.275,12.275h3.595c1.519-3.993,4.686-7.161,8.681-8.68V35.224z"
	/>
<path fill="#B4E3F9" d="M36.178,52.499h-2.633c0.645,3.828,2.741,7.157,5.7,9.417c-1.926-2.522-3.084-5.666-3.083-9.089
	C36.162,52.717,36.176,52.61,36.178,52.499z"/>
<path fill="#B4E3F9" d="M50.833,35.212v2.633c0.11-0.002,0.219-0.017,0.329-0.017c3.422,0,6.564,1.157,9.088,3.083
	C57.989,37.952,54.659,35.856,50.833,35.212z"/>
</svg>
