<?xml version="1.0" encoding="utf-8"?>
<!-- Generator: Adobe Illustrator 16.0.0, SVG Export Plug-In . SVG Version: 6.00 Build 0)  -->
<!DOCTYPE svg PUBLIC "-//W3C//DTD SVG 1.0//EN" "http://www.w3.org/TR/2001/REC-SVG-20010904/DTD/svg10.dtd">
<svg version="1.0" id="Layer_1" xmlns="http://www.w3.org/2000/svg" xmlns:xlink="http://www.w3.org/1999/xlink" x="0px" y="0px"
	 width="100px" height="100px" viewBox="0 0 100 100" enable-background="new 0 0 100 100" xml:space="preserve">
<path fill="#FFC00E" d="M69.605,45.735c0.255,1.382,0.396,2.807,0.396,4.264c0,1.458-0.141,2.883-0.397,4.268l7.063-1.768v-5
	L69.605,45.735z"/>
<path fill="#FFC00E" d="M63.334,66.322c-1.914,1.954-4.168,3.574-6.666,4.762v5.582H36.667v-5.581
	c-2.5-1.188-4.752-2.808-6.667-4.762v17.011h3.333V90H40v-6.666h13.333V90h6.668v-6.666h3.333V66.322z"/>
<path fill="#FFC00E" d="M60.001,16.667V10h-6.668v6.667H40V10h-6.667v6.667H30v17.008c1.914-1.954,4.167-3.574,6.667-4.76v-5.581
	h20.001v5.582c2.498,1.188,4.752,2.807,6.666,4.761V16.667H60.001z"/>
<rect x="40" y="10" fill="#FFF8E1" width="13.333" height="6.667"/>
<rect x="33.333" y="13.466" fill="#F68E1E" width="6.667" height="3.2"/>
<rect x="53.333" y="13.466" fill="#F68E1E" width="6.668" height="3.2"/>
<polygon fill="#FFEBB2" points="43.2,13.466 43.2,10 40,10 40,16.667 53.333,16.667 53.333,13.466 "/>
<rect x="40" y="83.334" fill="#FFF8E1" width="13.333" height="6.666"/>
<polygon fill="#FFEBB2" points="53.333,83.334 40,83.334 40,90 43.2,90 43.2,86.534 53.333,86.534 "/>
<rect x="53.333" y="83.334" fill="#F68E1E" width="6.668" height="3.2"/>
<rect x="33.333" y="83.334" fill="#F68E1E" width="6.667" height="3.2"/>
<path fill="#F68E1E" d="M56.668,75.431c2.408-0.95,4.648-2.23,6.666-3.788v-5.32c-1.914,1.954-4.168,3.574-6.666,4.762V75.431z"/>
<path fill="#F68E1E" d="M36.667,75.431v-4.346c-2.5-1.188-4.752-2.808-6.667-4.762v5.319C32.018,73.2,34.259,74.481,36.667,75.431z"
	/>
<path fill="#F68E1E" d="M70.001,49.999c0,1.458-0.141,2.883-0.397,4.268l3.369-0.843c0.146-1.122,0.229-2.264,0.229-3.425
	c0-1.16-0.083-2.301-0.229-3.423l-3.367-0.841C69.86,47.117,70.001,48.542,70.001,49.999z"/>
<path fill="#FFF8E1" d="M46.667,73.334c-3.58,0-6.969-0.809-10-2.249v5.581h20.001v-5.582
	C53.637,72.525,50.246,73.334,46.667,73.334z"/>
<path fill="#F68E1E" d="M56.668,24.569v4.346c2.498,1.188,4.752,2.807,6.666,4.761v-5.318C61.316,26.8,59.076,25.52,56.668,24.569z"
	/>
<path fill="#F68E1E" d="M30,28.357v5.317c1.914-1.954,4.167-3.574,6.667-4.76v-4.345C34.259,25.519,32.018,26.799,30,28.357z"/>
<path fill="#FFF8E1" d="M46.667,26.666c3.58,0,6.97,0.809,10.001,2.25v-5.582H36.667v5.581
	C39.698,27.474,43.087,26.666,46.667,26.666z"/>
<path fill="#CFD8DB" d="M63.334,49.999c0,9.208-7.461,16.668-16.667,16.668C37.461,66.667,30,59.207,30,49.999
	c0-9.205,7.461-16.666,16.667-16.666C55.873,33.333,63.334,40.794,63.334,49.999z"/>
<path fill="#455A64" d="M46.667,26.666c-12.888,0-23.333,10.444-23.333,23.333c0,12.886,10.445,23.335,23.333,23.335
	c12.886,0,23.334-10.449,23.334-23.335C70.001,37.109,59.553,26.666,46.667,26.666z M46.667,66.667
	C37.461,66.667,30,59.207,30,49.999c0-9.205,7.461-16.666,16.667-16.666c9.207,0,16.667,7.461,16.667,16.666
	C63.334,59.207,55.873,66.667,46.667,66.667z"/>
<polygon fill="#E53A34" points="49.167,47.499 49.167,36.666 44.167,36.666 44.167,52.499 56.668,52.499 56.668,47.499 "/>
<path fill="#AFBDC4" d="M32.845,47.499c-0.002-0.109-0.016-0.216-0.016-0.326c0-3.882,1.337-7.445,3.562-10.279
	c-3.264,2.563-5.547,6.314-6.196,10.605H32.845z"/>
<path fill="#AFBDC4" d="M49.495,63.839c-0.111,0-0.218-0.014-0.328-0.017v2.651c4.292-0.648,8.042-2.933,10.606-6.197
	C56.939,62.502,53.377,63.839,49.495,63.839z"/>
<path fill="#AFBDC4" d="M44.167,62.954c-4.914-1.659-8.794-5.54-10.453-10.455h-3.506c1.085,7.199,6.76,12.876,13.959,13.962V62.954
	z"/>
<path fill="#E53A34" d="M30,49.999c0,0.853,0.084,1.683,0.208,2.5H35v-5h-4.792C30.084,48.317,30,49.147,30,49.999z"/>
<path fill="#B62025" d="M32.845,47.499h-2.65C30.071,48.315,30,49.149,30,50c0,0.853,0.084,1.682,0.208,2.499h3.506
	C33.182,50.924,32.879,49.246,32.845,47.499z"/>
<path fill="#E53A34" d="M44.167,66.461c0.817,0.123,1.648,0.206,2.5,0.206c0.852,0,1.682-0.083,2.5-0.206v-4.794h-5V66.461z"/>
<path fill="#B62025" d="M44.167,66.461c0.817,0.123,1.647,0.206,2.499,0.206c0.851,0,1.685-0.07,2.501-0.193v-2.651
	c-1.747-0.034-3.425-0.336-5-0.868V66.461z"/>
<rect x="49.167" y="47.499" fill="#B62025" width="3.2" height="5"/>
</svg>
