<?xml version="1.0" encoding="utf-8"?>
<!-- Generator: Adobe Illustrator 16.0.0, SVG Export Plug-In . SVG Version: 6.00 Build 0)  -->
<!DOCTYPE svg PUBLIC "-//W3C//DTD SVG 1.0//EN" "http://www.w3.org/TR/2001/REC-SVG-20010904/DTD/svg10.dtd">
<svg version="1.0" id="Layer_1" xmlns="http://www.w3.org/2000/svg" xmlns:xlink="http://www.w3.org/1999/xlink" x="0px" y="0px"
	 width="100px" height="100px" viewBox="0 0 100 100" enable-background="new 0 0 100 100" xml:space="preserve">
<path fill="#BDBCBC" d="M70,21.667h-6.667V10h-6.666v11.667h-20V10h-6.667v11.667h-6.667l-2.9,26.115
	c2.623-3.344,5.869-6.172,9.567-8.312V28.333h33.334v11.138c3.7,2.141,6.946,4.969,9.57,8.314L70,21.667z"/>
<path fill="#E53A34" d="M79.5,62.612c0.323,1.86,0.5,3.771,0.5,5.722c0,1.952-0.175,3.863-0.5,5.722l7.166-2.389V65L79.5,62.612z"/>
<rect x="36.667" y="10" fill="#F4F5F5" width="20" height="11.667"/>
<polygon fill="#E0E0E0" points="40.667,17.667 40.667,10 36.667,10 36.667,21.667 56.667,21.667 56.667,17.667 "/>
<path fill="#B62025" d="M82.901,63.746L79.5,62.612c0.323,1.86,0.5,3.771,0.5,5.722c0,1.952-0.175,3.863-0.5,5.723l3.403-1.135
	c0.193-1.516,0.297-3.048,0.297-4.588C83.2,66.779,83.091,65.25,82.901,63.746z"/>
<path fill="#9D9D9D" d="M63.333,39.471c3.7,2.141,6.946,4.969,9.57,8.314l-0.744-6.69c-2.618-2.452-5.587-4.531-8.826-6.153V39.471z
	"/>
<path fill="#9D9D9D" d="M29.999,39.469v-4.528c-3.237,1.623-6.206,3.701-8.824,6.153l-0.743,6.687
	C23.055,44.438,26.301,41.609,29.999,39.469z"/>
<path fill="#F4F5F5" d="M46.666,35c6.074,0,11.764,1.632,16.667,4.471V28.333H29.999v11.136C34.903,36.632,40.592,35,46.666,35z"/>
<path fill="#FFF8E1" d="M31.162,90h31.007c6.751-4.843,11.164-12.734,11.164-21.666c0-14.728-11.939-26.668-26.667-26.668
	C31.94,41.666,20,53.606,20,68.334C20,77.266,24.413,85.157,31.162,90z"/>
<path fill="#FFC00E" d="M46.666,35c-18.411,0-33.332,14.92-33.332,33.334c0,8.274,3.036,15.832,8.032,21.666h9.796
	C24.413,85.157,20,77.266,20,68.334c0-14.728,11.939-26.668,26.665-26.668c14.728,0,26.667,11.941,26.667,26.668
	c0,8.932-4.413,16.823-11.164,21.666h9.797C76.959,84.166,80,76.608,80,68.334C80,49.92,65.072,35,46.666,35z"/>
<rect x="44.166" y="46.666" fill="#455A64" width="5" height="5"/>
<polygon fill="#455A64" points="63.758,54.779 60.216,51.242 46.665,64.799 38.417,56.55 34.882,60.086 46.667,71.869 "/>
<rect x="44.166" y="85" fill="#455A64" width="5" height="5"/>
<rect x="44.166" y="85" fill="#263238" width="2.4" height="5"/>
<rect x="25" y="65.834" fill="#455A64" width="4.999" height="5"/>
<rect x="63.333" y="65.834" fill="#455A64" width="5" height="5"/>
<rect x="56.667" y="17.667" fill="#9D9D9D" width="6.666" height="4"/>
<rect x="29.999" y="17.667" fill="#9D9D9D" width="6.667" height="4"/>
<path fill="#E0E0E0" d="M46.666,31c-4.446,0-8.709,0.788-12.667,2.224v-4.891h-4v11.136C34.903,36.632,40.592,35,46.666,35
	c6.074,0,11.764,1.632,16.667,4.471v-4.53C58.313,32.425,52.654,31,46.666,31z"/>
<rect x="25" y="65.834" fill="#263238" width="2.4" height="5"/>
<rect x="63.333" y="65.834" fill="#263238" width="2.399" height="5"/>
<rect x="44.166" y="46.666" fill="#263238" width="2.4" height="5"/>
<rect x="40.984" y="63.152" transform="matrix(-0.7069 0.7074 -0.7074 -0.7069 120.3058 80.4471)" fill="#263238" width="4.999" height="4"/>
<path fill="#FFEBB2" d="M24,68.334c0-14.055,10.875-25.562,24.665-26.585c-0.661-0.05-1.326-0.083-2-0.083
	C31.94,41.666,20,53.606,20,68.334C20,77.266,24.413,85.157,31.162,90h4C28.413,85.157,24,77.266,24,68.334z"/>
</svg>
