<?xml version="1.0" encoding="utf-8"?>
<!-- Generator: Adobe Illustrator 26.3.1, SVG Export Plug-In . SVG Version: 6.00 Build 0)  -->
<svg version="1.1" id="Layer_1" xmlns="http://www.w3.org/2000/svg" xmlns:xlink="http://www.w3.org/1999/xlink" x="0px" y="0px"
	 viewBox="0 0 1000 1000" style="enable-background:new 0 0 1000 1000;" xml:space="preserve">
<style type="text/css">
	.st0{fill:#FFFFFF;}
	.st1{fill:#777777;}
</style>
<path class="st0" d="M641.7,432.1h-47.8v-53.2c-31.3-23.6-70.3-37.7-112.6-37.7c-103.3,0-187,83.7-187,187s83.7,187,187,187
	s187.1-83.7,187.1-187C668.4,493.1,658.7,460.1,641.7,432.1z M464.9,454.4l24.9,63c1,0.8,1.9,1.7,2.6,2.7l10.6,2.6l-8.1,7.4
	c-0.5,4-2.7,7.3-5.8,9.4l-3,10.5l-7.1-8.3c-1-0.2-2-0.4-2.9-0.8l-98.3,13.7L469,520L464.9,454.4z M481.4,690.6
	c-89.7,0-162.4-72.7-162.4-162.4c0-17.3,2.7-33.9,7.7-49.5c-2.7,11.7-4.1,23.8-4.1,36.2c0,89.7,72.7,162.4,162.4,162.4
	c72.4,0,133.7-47.4,154.6-112.8C623.1,636.6,558.5,690.6,481.4,690.6z"/>
<path class="st1" d="M605.4,378.7h41.9v41.9h-41.9V378.7z"/>
<path class="st1" d="M679,359.7h29.6v29.6H679V359.7z"/>
<path class="st1" d="M625.6,316.9h23.6v23.6h-23.6V316.9z"/>
<path class="st1" d="M695.2,301.6H707v11.8h-11.8V301.6z"/>
</svg>
